%FSLAX44Y44*%
%MOMM*%
%SFA1B1*%

%IPPOS*%
%ADD13R,0.519999X0.519999*%
%ADD14R,0.519999X0.519999*%
%ADD29R,1.019998X4.749991*%
%ADD44R,1.499997X1.499997*%
%ADD45C,1.499997*%
%ADD46R,1.499997X1.499997*%
%ADD47C,1.549997*%
%ADD48R,1.549997X1.549997*%
%ADD55R,0.449999X0.549999*%
G54D13*
X266499Y164249D03*
Y156249D03*
G54D14*
X297499Y134999D03*
X289499D03*
G54D29*
X307749Y23749D03*
X222749D03*
G54D44*
X497599Y142999D03*
Y361399D03*
X158499Y197499D03*
X70999Y585249D03*
X14999Y269999D03*
Y498599D03*
G54D45*
X497599Y168399D03*
Y193799D03*
Y219199D03*
Y244599D03*
Y269999D03*
Y295399D03*
Y320799D03*
X467999Y589999D03*
X497599Y412199D03*
Y589999D03*
Y564599D03*
Y539199D03*
Y513799D03*
Y488399D03*
Y462999D03*
Y437599D03*
Y386799D03*
X158499Y172099D03*
X70999Y559849D03*
X14999Y244599D03*
Y219199D03*
Y193799D03*
Y168399D03*
Y142999D03*
Y473199D03*
Y447799D03*
Y422399D03*
Y396999D03*
Y371599D03*
Y346199D03*
Y320799D03*
X184999Y563999D03*
Y589399D03*
X210399Y563999D03*
Y589399D03*
X235799Y563999D03*
Y589399D03*
X261199Y563999D03*
Y589399D03*
X286599Y563999D03*
Y589399D03*
X311999Y563999D03*
Y589399D03*
X337399Y563999D03*
G54D46*
X442599Y589999D03*
X337399Y589399D03*
G54D47*
X497599Y113249D03*
X14999Y528499D03*
X126899Y504499D03*
X152299D03*
G54D48*
X101499Y504499D03*
G54D55*
X235999Y144999D03*
X244999D03*
M02*