%FSLAX44Y44*%
%MOMM*%
%SFA1B1*%

%IPPOS*%
%ADD10C,0.253999*%
%ADD40C,0.150000*%
%ADD115C,0.203200*%
%ADD116C,0.200000*%
%ADD117C,0.100000*%
%ADD118R,1.999996X1.999996*%
%ADD119R,0.974998X1.024998*%
%ADD120R,0.165100X0.584199*%
%ADD121R,1.701797X0.457199*%
%ADD122R,0.185400X0.650199*%
G54D10*
X234249Y159999D02*
D01*
X234247Y160069*
X234240Y160139*
X234228Y160207*
X234211Y160275*
X234189Y160341*
X234163Y160406*
X234132Y160469*
X234097Y160529*
X234058Y160587*
X234016Y160642*
X233969Y160694*
X233919Y160743*
X233865Y160787*
X233809Y160828*
X233749Y160865*
X233688Y160898*
X233624Y160927*
X233558Y160950*
X233491Y160970*
X233423Y160984*
X233354Y160994*
X233284Y160999*
X233214*
X233145Y160994*
X233076Y160984*
X233007Y160970*
X232940Y160950*
X232875Y160927*
X232811Y160898*
X232749Y160865*
X232690Y160828*
X232634Y160787*
X232580Y160743*
X232530Y160694*
X232483Y160642*
X232440Y160587*
X232401Y160529*
X232366Y160469*
X232336Y160406*
X232310Y160341*
X232288Y160275*
X232271Y160207*
X232259Y160139*
X232252Y160069*
X232249Y159999*
X232252Y159930*
X232259Y159860*
X232271Y159791*
X232288Y159724*
X232310Y159657*
X232336Y159593*
X232366Y159530*
X232401Y159469*
X232440Y159412*
X232483Y159357*
X232530Y159305*
X232580Y159256*
X232634Y159211*
X232690Y159170*
X232749Y159133*
X232811Y159101*
X232875Y159072*
X232940Y159048*
X233007Y159029*
X233076Y159015*
X233145Y159005*
X233214Y159000*
X233284*
X233354Y159005*
X233423Y159015*
X233491Y159029*
X233558Y159048*
X233624Y159072*
X233688Y159101*
X233749Y159133*
X233809Y159170*
X233865Y159211*
X233919Y159256*
X233969Y159305*
X234016Y159357*
X234058Y159412*
X234097Y159469*
X234132Y159530*
X234163Y159593*
X234189Y159657*
X234211Y159724*
X234228Y159791*
X234240Y159860*
X234247Y159930*
X234249Y159999*
X442999Y553999D02*
Y569234D01*
X450616*
X453156Y566695*
Y561617*
X450616Y559077*
X442999*
X465852Y553999D02*
Y569234D01*
X458234Y561617*
X468391*
G54D40*
X213749Y331999D02*
X243749D01*
Y301999D02*
Y331999D01*
X213749Y301999D02*
X243749D01*
X213749D02*
Y331999D01*
X94999Y404999D02*
X301999D01*
Y243999D02*
Y404999D01*
X147999Y243999D02*
X193999D01*
X94999Y301749D02*
Y404999D01*
Y258249D02*
Y301749D01*
X193999Y243999D02*
X301999D01*
X94999D02*
Y258249D01*
Y243999D02*
X147999D01*
X214999Y181249D02*
Y186249D01*
X209999D02*
X214999D01*
X33749Y428573D02*
X36748Y431572D01*
X42746*
X45745Y428573*
Y425574*
X42746Y422575*
X39747*
X42746*
X45745Y419576*
Y416577*
X42746Y413578*
X36748*
X33749Y416577*
X51743Y431572D02*
Y419576D01*
X57741Y413578*
X63739Y419576*
Y431572*
X69737Y428573D02*
X72736Y431572D01*
X78734*
X81733Y428573*
Y425574*
X78734Y422575*
X75735*
X78734*
X81733Y419576*
Y416577*
X78734Y413578*
X72736*
X69737Y416577*
X45745Y378187D02*
X42746Y381186D01*
X36748*
X33749Y378187*
Y366191*
X36748Y363192*
X42746*
X45745Y366191*
Y372189*
X39747*
X51743Y363192D02*
Y381186D01*
X63739Y363192*
Y381186*
X69737D02*
Y363192D01*
X78734*
X81733Y366191*
Y378187*
X78734Y381186*
X69737*
X45745Y352994D02*
X42746Y355993D01*
X36748*
X33749Y352994*
Y340998*
X36748Y337999*
X42746*
X45745Y340998*
Y346996*
X39747*
X51743Y337999D02*
Y355993D01*
X63739Y337999*
Y355993*
X69737D02*
Y337999D01*
X78734*
X81733Y340998*
Y352994*
X78734Y355993*
X69737*
X144996Y577741D02*
X142997Y579740D01*
X138998*
X136999Y577741*
Y569744*
X138998Y567744*
X142997*
X144996Y569744*
X156993Y577741D02*
X154993Y579740D01*
X150995*
X148995Y577741*
Y575742*
X150995Y573742*
X154993*
X156993Y571743*
Y569744*
X154993Y567744*
X150995*
X148995Y569744*
X160991Y567744D02*
X164990D01*
X162991*
Y579740*
X160991Y577741*
X144996Y559746D02*
X142997Y561745D01*
X138998*
X136999Y559746*
Y551748*
X138998Y549749*
X142997*
X144996Y551748*
X156993Y559746D02*
X154993Y561745D01*
X150995*
X148995Y559746*
Y557746*
X150995Y555747*
X154993*
X156993Y553748*
Y551748*
X154993Y549749*
X150995*
X148995Y551748*
X168989Y549749D02*
X160991D01*
X168989Y557746*
Y559746*
X166989Y561745*
X162991*
X160991Y559746*
X87749Y567744D02*
Y569744D01*
X89748*
Y567744*
X87749*
X101744D02*
X97746D01*
Y579740*
X101744*
X107743Y567744D02*
Y569744D01*
X109742*
Y567744*
X107743*
X117739D02*
Y569744D01*
X119739*
Y567744*
X117739*
X127736D02*
X131735D01*
Y579740*
X127736*
X91748Y549749D02*
X87749D01*
Y561745*
X91748*
X97746Y549749D02*
Y551748D01*
X99745*
Y549749*
X97746*
X107743D02*
Y551748D01*
X109742*
Y549749*
X107743*
X117739D02*
X121738D01*
Y561745*
X117739*
X127736Y549749D02*
Y551748D01*
X129735*
Y549749*
X127736*
X255002Y309746D02*
X253003Y307747D01*
Y303748*
X255002Y301749*
X263000*
X264999Y303748*
Y307747*
X263000Y309746*
X255002Y313745D02*
X253003Y315745D01*
Y319743*
X255002Y321743*
X257002*
X259001Y319743*
Y317744*
Y319743*
X261000Y321743*
X263000*
X264999Y319743*
Y315745*
X263000Y313745*
X255002Y325741D02*
X253003Y327741D01*
Y331739*
X255002Y333739*
X257002*
X259001Y331739*
Y329740*
Y331739*
X261000Y333739*
X263000*
X264999Y331739*
Y327741*
X263000Y325741*
X343249Y432499D02*
X355245D01*
Y426501*
X353246Y424502*
X349247*
X347248Y426501*
Y432499*
Y428500D02*
X343249Y424502D01*
X341250Y420503D02*
Y412505D01*
X355245Y408507D02*
Y400509D01*
Y404508*
X343249*
X355245Y396511D02*
X343249Y388513D01*
X355245D02*
X343249Y396511D01*
X378416Y432499D02*
X390412D01*
Y426501*
X388412Y424502*
X384414*
X382414Y426501*
Y432499*
Y428500D02*
X378416Y424502D01*
X376416Y420503D02*
Y412505D01*
X388412Y400509D02*
X390412Y402509D01*
Y406507*
X388412Y408507*
X386413*
X384414Y406507*
Y402509*
X382414Y400509*
X380415*
X378416Y402509*
Y406507*
X380415Y408507*
X390412Y388513D02*
Y396511D01*
X384414*
Y392512*
Y396511*
X378416*
X390412Y384514D02*
X378416D01*
Y378516*
X380415Y376517*
X388412*
X390412Y378516*
Y384514*
X362332Y432499D02*
X374328D01*
Y426501*
X372329Y424502*
X368330*
X366331Y426501*
Y432499*
Y428500D02*
X362332Y424502D01*
X360333Y420503D02*
Y412505D01*
X362332Y408507D02*
X374328D01*
Y402509*
X372329Y400509*
X368330*
X366331Y402509*
Y408507*
Y404508D02*
X362332Y400509D01*
X374328Y396511D02*
X362332Y388513D01*
X374328D02*
X362332Y396511D01*
X394999Y432499D02*
X406995D01*
Y426501*
X404996Y424502*
X400997*
X398998Y426501*
Y432499*
Y428500D02*
X394999Y424502D01*
X393000Y420503D02*
Y412505D01*
X394999Y408507D02*
X406995D01*
Y402509*
X404996Y400509*
X400997*
X398998Y402509*
Y408507*
Y404508D02*
X394999Y400509D01*
X406995Y396511D02*
X394999Y388513D01*
X406995D02*
X394999Y396511D01*
X406995Y378516D02*
Y382515D01*
X404996Y384514*
X396998*
X394999Y382515*
Y378516*
X396998Y376517*
X404996*
X406995Y378516*
Y372518D02*
X394999D01*
X398998*
X406995Y364521*
X400997Y370519*
X394999Y364521*
X155003Y382999D02*
X166999Y390996D01*
X155003D02*
X166999Y382999D01*
Y394995D02*
Y398994D01*
Y396995*
X155003*
X157002Y394995*
X372749Y78995D02*
Y68998D01*
X374748Y66999*
X378747*
X380746Y68998*
Y78995*
X392742Y66999D02*
X384745D01*
X392742Y74996*
Y76996*
X390743Y78995*
X386744*
X384745Y76996*
X38496Y533246D02*
X36497Y535245D01*
X32498*
X30499Y533246*
Y525248*
X32498Y523249*
X36497*
X38496Y525248*
Y529247*
X34498*
X42495Y523249D02*
Y535245D01*
X50492Y523249*
Y535245*
X54491D02*
Y523249D01*
X60489*
X62489Y525248*
Y533246*
X60489Y535245*
X54491*
X491503Y49246D02*
Y41249D01*
X503499*
Y49246*
X497501Y41249D02*
Y45248D01*
X495502Y53245D02*
X503499Y61243D01*
X499500Y57244*
X495502Y61243*
X503499Y53245*
X493502Y67241D02*
X495502D01*
Y65241*
Y69240*
Y67241*
X501500*
X503499Y69240*
X491503Y81236D02*
Y77237D01*
X493502Y75238*
X501500*
X503499Y77237*
Y81236*
X501500Y83235*
X493502*
X491503Y81236*
X503499Y87234D02*
X495502D01*
Y93232*
X497501Y95232*
X503499*
X220999Y261995D02*
X228996D01*
X224998*
Y249999*
X232995D02*
X236994D01*
X234994*
Y261995*
X232995Y259996*
X195499Y287749D02*
X183503D01*
Y293747*
X185502Y295746*
X189501*
X191500Y293747*
Y287749*
Y291748D02*
X195499Y295746D01*
X183503Y307742D02*
Y299745D01*
X189501*
X187502Y303744*
Y305743*
X189501Y307742*
X193500*
X195499Y305743*
Y301744*
X193500Y299745*
X130999Y350749D02*
X119003D01*
Y356747*
X121002Y358746*
X125001*
X127000Y356747*
Y350749*
Y354748D02*
X130999Y358746D01*
Y368743D02*
X119003D01*
X125001Y362745*
Y370742*
X242749Y229499D02*
Y241495D01*
X248747*
X250746Y239496*
Y235497*
X248747Y233498*
X242749*
X246748D02*
X250746Y229499D01*
X254745D02*
X258744D01*
X256744*
Y241495*
X254745Y239496*
X65999Y499499D02*
Y511495D01*
X71997*
X73996Y509496*
Y505497*
X71997Y503498*
X65999*
X85992Y499499D02*
X77995D01*
X85992Y507496*
Y509496*
X83993Y511495*
X79994*
X77995Y509496*
X17749Y566499D02*
Y578495D01*
X23747*
X25746Y576496*
Y572497*
X23747Y570498*
X17749*
X29745Y566499D02*
X33744D01*
X31745*
Y578495*
X29745Y576496*
X369995Y524749D02*
X357999D01*
Y516751*
X369995Y504755D02*
Y512753D01*
X357999*
Y504755*
X363997Y512753D02*
Y508754D01*
X369995Y500757D02*
X357999D01*
Y494758*
X359998Y492760*
X367996*
X369995Y494758*
Y500757*
X355999Y488760D02*
Y480763D01*
X369995Y476764D02*
Y468767D01*
Y472766*
X357999*
X369995Y464768D02*
X357999Y456771D01*
X369995D02*
X357999Y464768D01*
X406162Y524749D02*
X394166D01*
Y516751*
X406162Y504755D02*
Y512753D01*
X394166*
Y504755*
X400164Y512753D02*
Y508754D01*
X406162Y500757D02*
X394166D01*
Y494758*
X396166Y492760*
X404163*
X406162Y494758*
Y500757*
X392167Y488760D02*
Y480763D01*
X404163Y468767D02*
X406162Y470766D01*
Y474765*
X404163Y476764*
X402164*
X400164Y474765*
Y470766*
X398165Y468767*
X396166*
X394166Y470766*
Y474765*
X396166Y476764*
X406162Y456771D02*
Y464768D01*
X400164*
Y460769*
Y464768*
X394166*
X406162Y452772D02*
X394166D01*
Y446774*
X396166Y444775*
X404163*
X406162Y446774*
Y452772*
X388329Y524749D02*
X376333D01*
Y516751*
X388329Y504755D02*
Y512753D01*
X376333*
Y504755*
X382331Y512753D02*
Y508754D01*
X388329Y500756D02*
X376333D01*
Y494758*
X378333Y492760*
X386329*
X388329Y494758*
Y500756*
X374333Y488760D02*
Y480763D01*
X376333Y476764D02*
X388329D01*
Y470766*
X386329Y468767*
X382331*
X380331Y470766*
Y476764*
Y472766D02*
X376333Y468767D01*
X388329Y464768D02*
X376333Y456771D01*
X388329D02*
X376333Y464768D01*
X424246Y524749D02*
X412250D01*
Y516751*
X424246Y504755D02*
Y512753D01*
X412250*
Y504755*
X418248Y512753D02*
Y508754D01*
X424246Y500757D02*
X412250D01*
Y494758*
X414249Y492760*
X422247*
X424246Y494758*
Y500757*
X410251Y488760D02*
Y480763D01*
X412250Y476764D02*
X424246D01*
Y470766*
X422247Y468767*
X418248*
X416249Y470766*
Y476764*
Y472766D02*
X412250Y468767D01*
X424246Y464768D02*
X412250Y456771D01*
X424246D02*
X412250Y464768D01*
X424246Y446774D02*
Y450773D01*
X422247Y452772*
X414249*
X412250Y450773*
Y446774*
X414249Y444775*
X422247*
X424246Y446774*
Y440776D02*
X412250D01*
X416249*
X424246Y432779*
X418248Y438777*
X412250Y432779*
X394836Y29746D02*
X392836Y27747D01*
Y23749*
X394836Y21749*
X402833*
X404832Y23749*
Y27747*
X402833Y29746*
X394836Y33745D02*
X392836Y35744D01*
Y39743*
X394836Y41743*
X396835*
X398834Y39743*
Y37744*
Y39743*
X400834Y41743*
X402833*
X404832Y39743*
Y35744*
X402833Y33745*
X404832Y45741D02*
Y49740D01*
Y47741*
X392836*
X394836Y45741*
X379502Y29746D02*
X377503Y27747D01*
Y23749*
X379502Y21749*
X387500*
X389499Y23749*
Y27747*
X387500Y29746*
X379502Y33745D02*
X377503Y35744D01*
Y39743*
X379502Y41742*
X381502*
X383501Y39743*
Y37744*
Y39743*
X385500Y41742*
X387500*
X389499Y39743*
Y35744*
X387500Y33745*
X379502Y45741D02*
X377503Y47741D01*
Y51739*
X379502Y53739*
X387500*
X389499Y51739*
Y47741*
X387500Y45741*
X379502*
X410169Y29746D02*
X408170Y27747D01*
Y23749*
X410169Y21749*
X418166*
X420166Y23749*
Y27747*
X418166Y29746*
X420166Y41743D02*
Y33745D01*
X412168Y41743*
X410169*
X408170Y39743*
Y35744*
X410169Y33745*
X418166Y45741D02*
X420166Y47741D01*
Y51739*
X418166Y53739*
X410169*
X408170Y51739*
Y47741*
X410169Y45741*
X412168*
X414168Y47741*
Y53739*
X456169Y29746D02*
X454169Y27747D01*
Y23749*
X456169Y21749*
X464166*
X466166Y23749*
Y27747*
X464166Y29746*
X466166Y41742D02*
Y33745D01*
X458168Y41742*
X456169*
X454169Y39743*
Y35744*
X456169Y33745*
Y45741D02*
X454169Y47741D01*
Y51739*
X456169Y53739*
X458168*
X460167Y51739*
X462167Y53739*
X464166*
X466166Y51739*
Y47741*
X464166Y45741*
X462167*
X460167Y47741*
X458168Y45741*
X456169*
X460167Y47741D02*
Y51739D01*
X471502Y29746D02*
X469503Y27747D01*
Y23749*
X471502Y21749*
X479500*
X481499Y23749*
Y27747*
X479500Y29746*
X481499Y41742D02*
Y33745D01*
X473502Y41742*
X471502*
X469503Y39743*
Y35744*
X471502Y33745*
X469503Y45741D02*
Y53739D01*
X471502*
X479500Y45741*
X481499*
X440835Y29746D02*
X438836Y27747D01*
Y23749*
X440835Y21749*
X448833*
X450832Y23749*
Y27747*
X448833Y29746*
X450832Y41742D02*
Y33745D01*
X442835Y41742*
X440835*
X438836Y39743*
Y35744*
X440835Y33745*
X438836Y53739D02*
X440835Y49740D01*
X444834Y45741*
X448833*
X450832Y47741*
Y51739*
X448833Y53739*
X446834*
X444834Y51739*
Y45741*
X259496Y280996D02*
X257497Y282995D01*
X253498*
X251499Y280996*
Y272998*
X253498Y270999*
X257497*
X259496Y272998*
X271492Y270999D02*
X263495D01*
X271492Y278996*
Y280996*
X269494Y282995*
X265494*
X263495Y280996*
X283489Y282995D02*
X275491D01*
Y276997*
X279490Y278996*
X281489*
X283489Y276997*
Y272998*
X281489Y270999*
X277491*
X275491Y272998*
X206002Y351246D02*
X204003Y349247D01*
Y345248*
X206002Y343249*
X214000*
X215999Y345248*
Y349247*
X214000Y351246*
X215999Y363242D02*
Y355245D01*
X208002Y363242*
X206002*
X204003Y361243*
Y357244*
X206002Y355245*
Y367241D02*
X204003Y369241D01*
Y373239*
X206002Y375239*
X208002*
X210001Y373239*
Y371240*
Y373239*
X212000Y375239*
X214000*
X215999Y373239*
Y369241*
X214000Y367241*
X200752Y281246D02*
X198753Y279247D01*
Y275248*
X200752Y273249*
X208750*
X210749Y275248*
Y279247*
X208750Y281246*
X210749Y293243D02*
Y285245D01*
X202752Y293243*
X200752*
X198753Y291243*
Y287245*
X200752Y285245*
X210749Y305239D02*
Y297241D01*
X202752Y305239*
X200752*
X198753Y303239*
Y299241*
X200752Y297241*
X425502Y29746D02*
X423503Y27747D01*
Y23749*
X425502Y21749*
X433500*
X435499Y23749*
Y27747*
X433500Y29746*
X435499Y41742D02*
Y33745D01*
X427502Y41742*
X425502*
X423503Y39743*
Y35744*
X425502Y33745*
X435499Y45741D02*
Y49740D01*
Y47741*
X423503*
X425502Y45741*
X221252Y376996D02*
X219253Y374997D01*
Y370998*
X221252Y368999*
X229250*
X231249Y370998*
Y374997*
X229250Y376996*
X231249Y388992D02*
Y380995D01*
X223252Y388992*
X221252*
X219253Y386993*
Y382994*
X221252Y380995*
Y392991D02*
X219253Y394991D01*
Y398989*
X221252Y400989*
X229250*
X231249Y398989*
Y394991*
X229250Y392991*
X221252*
X144252Y288246D02*
X142253Y286247D01*
Y282248*
X144252Y280249*
X152250*
X154249Y282248*
Y286247*
X152250Y288246*
X154249Y292245D02*
Y296244D01*
Y294244*
X142253*
X144252Y292245*
X152250Y302242D02*
X154249Y304241D01*
Y308240*
X152250Y310239*
X144252*
X142253Y308240*
Y304241*
X144252Y302242*
X146252*
X148251Y304241*
Y310239*
X260246Y295996D02*
X258247Y297995D01*
X254248*
X252249Y295996*
Y287998*
X254248Y285999*
X258247*
X260246Y287998*
X264245Y285999D02*
X268244D01*
X266244*
Y297995*
X264245Y295996*
X274242D02*
X276241Y297995D01*
X280240*
X282239Y295996*
Y293996*
X280240Y291997*
X282239Y289998*
Y287998*
X280240Y285999*
X276241*
X274242Y287998*
Y289998*
X276241Y291997*
X274242Y293996*
Y295996*
X276241Y291997D02*
X280240D01*
X162246Y327246D02*
X160247Y329245D01*
X156248*
X154249Y327246*
Y319248*
X156248Y317249*
X160247*
X162246Y319248*
X166245Y317249D02*
X170244D01*
X168245*
Y329245*
X166245Y327246*
X176242Y329245D02*
X184239D01*
Y327246*
X176242Y319248*
Y317249*
X155996Y358996D02*
X153997Y360995D01*
X149998*
X147999Y358996*
Y350998*
X149998Y348999*
X153997*
X155996Y350998*
X159995Y348999D02*
X163994D01*
X161995*
Y360995*
X159995Y358996*
X177989Y360995D02*
X169992D01*
Y354997*
X173991Y356997*
X175990*
X177989Y354997*
Y350998*
X175990Y348999*
X171991*
X169992Y350998*
X155996Y373996D02*
X153997Y375995D01*
X149998*
X147999Y373996*
Y365998*
X149998Y363999*
X153997*
X155996Y365998*
X159995Y363999D02*
X163994D01*
X161995*
Y375995*
X159995Y373996*
X175990Y363999D02*
Y375995D01*
X169992Y369997*
X177989*
X127502Y302746D02*
X125503Y300747D01*
Y296748*
X127502Y294749*
X135500*
X137499Y296748*
Y300747*
X135500Y302746*
X137499Y306745D02*
Y310744D01*
Y308744*
X125503*
X127502Y306745*
Y316742D02*
X125503Y318741D01*
Y322740*
X127502Y324739*
X129502*
X131501Y322740*
Y320741*
Y322740*
X133500Y324739*
X135500*
X137499Y322740*
Y318741*
X135500Y316742*
X236752Y377496D02*
X234753Y375497D01*
Y371498*
X236752Y369499*
X244750*
X246749Y371498*
Y375497*
X244750Y377496*
X246749Y381495D02*
Y385494D01*
Y383494*
X234753*
X236752Y381495*
X246749Y399489D02*
Y391492D01*
X238752Y399489*
X236752*
X234753Y397490*
Y393491*
X236752Y391492*
X289002Y280746D02*
X287003Y278747D01*
Y274748*
X289002Y272749*
X297000*
X298999Y274748*
Y278747*
X297000Y280746*
X298999Y284745D02*
Y288744D01*
Y286744*
X287003*
X289002Y284745*
X298999Y294742D02*
Y298741D01*
Y296741*
X287003*
X289002Y294742*
X217002Y275746D02*
X215003Y273747D01*
Y269748*
X217002Y267749*
X225000*
X226999Y269748*
Y273747*
X225000Y275746*
X226999Y279745D02*
Y283744D01*
Y281744*
X215003*
X217002Y279745*
Y289742D02*
X215003Y291741D01*
Y295740*
X217002Y297739*
X225000*
X226999Y295740*
Y291741*
X225000Y289742*
X217002*
X232752Y285743D02*
X230753Y283744D01*
Y279745*
X232752Y277746*
X240750*
X242749Y279745*
Y283744*
X240750Y285743*
Y289742D02*
X242749Y291741D01*
Y295740*
X240750Y297739*
X232752*
X230753Y295740*
Y291741*
X232752Y289742*
X234752*
X236751Y291741*
Y297739*
X167246Y309246D02*
X165247Y311245D01*
X161248*
X159249Y309246*
Y301248*
X161248Y299249*
X165247*
X167246Y301248*
X171245Y309246D02*
X173245Y311245D01*
X177243*
X179243Y309246*
Y307246*
X177243Y305247*
X179243Y303248*
Y301248*
X177243Y299249*
X173245*
X171245Y301248*
Y303248*
X173245Y305247*
X171245Y307246*
Y309246*
X173245Y305247D02*
X177243D01*
X167246Y293246D02*
X165247Y295245D01*
X161248*
X159249Y293246*
Y285248*
X161248Y283249*
X165247*
X167246Y285248*
X171245Y295245D02*
X179243D01*
Y293246*
X171245Y285248*
Y283249*
X104162Y357306D02*
X102163Y355307D01*
Y351308*
X104162Y349309*
X112160*
X114159Y351308*
Y355307*
X112160Y357306*
X102163Y369303D02*
X104162Y365304D01*
X108161Y361305*
X112160*
X114159Y363305*
Y367303*
X112160Y369303*
X110160*
X108161Y367303*
Y361305*
X114746Y341246D02*
X112747Y343245D01*
X108748*
X106749Y341246*
Y333248*
X108748Y331249*
X112747*
X114746Y333248*
X126742Y343245D02*
X118745D01*
Y337247*
X122744Y339246*
X124743*
X126742Y337247*
Y333248*
X124743Y331249*
X120744*
X118745Y333248*
X141752Y389246D02*
X139753Y387247D01*
Y383248*
X141752Y381249*
X149750*
X151749Y383248*
Y387247*
X149750Y389246*
X151749Y399243D02*
X139753D01*
X145751Y393245*
Y401243*
X174502Y389246D02*
X172503Y387247D01*
Y383248*
X174502Y381249*
X182500*
X184499Y383248*
Y387247*
X182500Y389246*
X174502Y393245D02*
X172503Y395245D01*
Y399243*
X174502Y401243*
X176502*
X178501Y399243*
Y397244*
Y399243*
X180500Y401243*
X182500*
X184499Y399243*
Y395245*
X182500Y393245*
X401746Y135496D02*
X399747Y137495D01*
X395748*
X393749Y135496*
Y127498*
X395748Y125499*
X399747*
X401746Y127498*
X413743Y125499D02*
X405745D01*
X413743Y133496*
Y135496*
X411743Y137495*
X407745*
X405745Y135496*
X419252Y91496D02*
X417253Y89497D01*
Y85498*
X419252Y83499*
X427250*
X429249Y85498*
Y89497*
X427250Y91496*
X429249Y95495D02*
Y99494D01*
Y97494*
X417253*
X419252Y95495*
X133499Y479749D02*
Y491745D01*
X139497*
X141496Y489746*
Y485747*
X139497Y483748*
X133499*
X137498D02*
X141496Y479749D01*
X145495Y491745D02*
X153492D01*
Y489746*
X145495Y481748*
Y479749*
X254000Y351499D02*
Y363495D01*
X259997*
X261996Y361496*
Y357497*
X259997Y355498*
X254000*
X257998D02*
X261996Y351499D01*
X265995D02*
X269994D01*
X267994*
Y363495*
X265995Y361496*
X283989Y363495D02*
X275992D01*
Y357497*
X279991Y359496*
X281990*
X283989Y357497*
Y353498*
X281990Y351499*
X277991*
X275992Y353498*
X254249Y336499D02*
Y348495D01*
X260247*
X262247Y346496*
Y342497*
X260247Y340498*
X254249*
X258248D02*
X262247Y336499D01*
X266245D02*
X270244D01*
X268245*
Y348495*
X266245Y346496*
X284239Y348495D02*
X280241Y346496D01*
X276242Y342497*
Y338498*
X278241Y336499*
X282240*
X284239Y338498*
Y340498*
X282240Y342497*
X276242*
X191502Y377496D02*
X189503Y375497D01*
Y371498*
X191502Y369499*
X199500*
X201499Y371498*
Y375497*
X199500Y377496*
X201499Y389492D02*
Y381495D01*
X193502Y389492*
X191502*
X189503Y387493*
Y383494*
X191502Y381495*
X201499Y399489D02*
X189503D01*
X195501Y393491*
Y401489*
X124749Y197749D02*
X136745D01*
Y191751*
X134747Y189752*
X130747*
X128748Y191751*
Y197749*
X136745Y177756D02*
Y185753D01*
X130747*
X132746Y181754*
Y179755*
X130747Y177756*
X126748*
X124749Y179755*
Y183754*
X126748Y185753*
X180002Y500996D02*
X178003Y498997D01*
Y494998*
X180002Y492999*
X188000*
X189999Y494998*
Y498997*
X188000Y500996*
X184001*
Y496998*
X189999Y504995D02*
X178003D01*
Y510993*
X180002Y512993*
X184001*
X186000Y510993*
Y504995*
X178003Y516991D02*
Y520990D01*
Y518991*
X189999*
Y516991*
Y520990*
X178003Y532986D02*
Y528987D01*
X180002Y526988*
X188000*
X189999Y528987*
Y532986*
X188000Y534985*
X180002*
X178003Y532986*
Y546981D02*
X180002Y542983D01*
X184001Y538984*
X188000*
X189999Y540983*
Y544982*
X188000Y546981*
X186000*
X184001Y544982*
Y538984*
X335002Y499996D02*
X333003Y497997D01*
Y493998*
X335002Y491999*
X343000*
X344999Y493998*
Y497997*
X343000Y499996*
X339001*
Y495998*
X344999Y503995D02*
X333003D01*
Y509993*
X335002Y511992*
X339001*
X341000Y509993*
Y503995*
X333003Y515991D02*
Y519990D01*
Y517991*
X344999*
Y515991*
Y519990*
X333003Y531986D02*
Y527987D01*
X335002Y525988*
X343000*
X344999Y527987*
Y531986*
X343000Y533985*
X335002*
X333003Y531986*
X335002Y537984D02*
X333003Y539984D01*
Y543982*
X335002Y545982*
X343000*
X344999Y543982*
Y539984*
X343000Y537984*
X335002*
X309402Y503995D02*
X307403Y501996D01*
Y497997*
X309402Y495998*
X317400*
X319399Y497997*
Y501996*
X317400Y503995*
X313401*
Y499996*
X319399Y507994D02*
X307403D01*
Y513992*
X309402Y515991*
X313401*
X315400Y513992*
Y507994*
X307403Y519990D02*
Y523989D01*
Y521989*
X319399*
Y519990*
Y523989*
X307403Y535985D02*
Y531986D01*
X309402Y529987*
X317400*
X319399Y531986*
Y535985*
X317400Y537984*
X309402*
X307403Y535985*
X319399Y541983D02*
Y545982D01*
Y543982*
X307403*
X309402Y541983*
X283802Y499996D02*
X281803Y497997D01*
Y493998*
X283802Y491999*
X291800*
X293799Y493998*
Y497997*
X291800Y499996*
X287801*
Y495998*
X293799Y503995D02*
X281803D01*
Y509993*
X283802Y511992*
X287801*
X289800Y509993*
Y503995*
X281803Y515991D02*
Y519990D01*
Y517991*
X293799*
Y515991*
Y519990*
X281803Y531986D02*
Y527987D01*
X283802Y525988*
X291800*
X293799Y527987*
Y531986*
X291800Y533985*
X283802*
X281803Y531986*
X293799Y545982D02*
Y537984D01*
X285802Y545982*
X283802*
X281803Y543982*
Y539984*
X283802Y537984*
X258202Y499996D02*
X256203Y497997D01*
Y493998*
X258202Y491999*
X266200*
X268199Y493998*
Y497997*
X266200Y499996*
X262201*
Y495998*
X268199Y503995D02*
X256203D01*
Y509993*
X258202Y511992*
X262201*
X264200Y509993*
Y503995*
X256203Y515991D02*
Y519990D01*
Y517991*
X268199*
Y515991*
Y519990*
X256203Y531986D02*
Y527987D01*
X258202Y525988*
X266200*
X268199Y527987*
Y531986*
X266200Y533985*
X258202*
X256203Y531986*
X258202Y537984D02*
X256203Y539984D01*
Y543982*
X258202Y545982*
X260202*
X262201Y543982*
Y541983*
Y543982*
X264200Y545982*
X266200*
X268199Y543982*
Y539984*
X266200Y537984*
X232602Y499996D02*
X230603Y497997D01*
Y493998*
X232602Y491999*
X240600*
X242599Y493998*
Y497997*
X240600Y499996*
X236601*
Y495998*
X242599Y503995D02*
X230603D01*
Y509993*
X232602Y511992*
X236601*
X238600Y509993*
Y503995*
X230603Y515991D02*
Y519990D01*
Y517991*
X242599*
Y515991*
Y519990*
X230603Y531986D02*
Y527987D01*
X232602Y525988*
X240600*
X242599Y527987*
Y531986*
X240600Y533985*
X232602*
X230603Y531986*
X242599Y543982D02*
X230603D01*
X236601Y537984*
Y545982*
X207002Y499996D02*
X205003Y497997D01*
Y493998*
X207002Y491999*
X215000*
X216999Y493998*
Y497997*
X215000Y499996*
X211001*
Y495998*
X216999Y503995D02*
X205003D01*
Y509993*
X207002Y511992*
X211001*
X213000Y509993*
Y503995*
X205003Y515991D02*
Y519990D01*
Y517991*
X216999*
Y515991*
Y519990*
X205003Y531986D02*
Y527987D01*
X207002Y525988*
X215000*
X216999Y527987*
Y531986*
X215000Y533985*
X207002*
X205003Y531986*
Y545982D02*
Y537984D01*
X211001*
X209002Y541983*
Y543982*
X211001Y545982*
X215000*
X216999Y543982*
Y539984*
X215000Y537984*
X219749Y322995D02*
Y312998D01*
X221748Y310999*
X225747*
X227746Y312998*
Y322995*
X231745Y310999D02*
X235744D01*
X233744*
Y322995*
X231745Y320996*
X433996Y198996D02*
X431997Y200995D01*
X427998*
X425999Y198996*
Y190998*
X427998Y188999*
X431997*
X433996Y190998*
Y194997*
X429998*
X437995Y188999D02*
Y200995D01*
X443993*
X445992Y198996*
Y194997*
X443993Y192998*
X437995*
X449991Y200995D02*
X453990D01*
X451991*
Y188999*
X449991*
X453990*
X465986Y200995D02*
X461987D01*
X459988Y198996*
Y190998*
X461987Y188999*
X465986*
X467985Y190998*
Y198996*
X465986Y200995*
X479982D02*
X471984D01*
Y194997*
X475983Y196996*
X477982*
X479982Y194997*
Y190998*
X477982Y188999*
X473983*
X471984Y190998*
X433996Y224396D02*
X431997Y226395D01*
X427998*
X425999Y224396*
Y216398*
X427998Y214399*
X431997*
X433996Y216398*
Y220397*
X429998*
X437995Y214399D02*
Y226395D01*
X443993*
X445992Y224396*
Y220397*
X443993Y218398*
X437995*
X449991Y226395D02*
X453990D01*
X451991*
Y214399*
X449991*
X453990*
X465986Y226395D02*
X461987D01*
X459988Y224396*
Y216398*
X461987Y214399*
X465986*
X467985Y216398*
Y224396*
X465986Y226395*
X477982Y214399D02*
Y226395D01*
X471984Y220397*
X479982*
X433996Y249796D02*
X431997Y251795D01*
X427998*
X425999Y249796*
Y241798*
X427998Y239799*
X431997*
X433996Y241798*
Y245797*
X429998*
X437995Y239799D02*
Y251795D01*
X443993*
X445992Y249796*
Y245797*
X443993Y243798*
X437995*
X449991Y251795D02*
X453990D01*
X451991*
Y239799*
X449991*
X453990*
X465986Y251795D02*
X461987D01*
X459988Y249796*
Y241798*
X461987Y239799*
X465986*
X467985Y241798*
Y249796*
X465986Y251795*
X471984Y249796D02*
X473983Y251795D01*
X477982*
X479982Y249796*
Y247796*
X477982Y245797*
X475983*
X477982*
X479982Y243798*
Y241798*
X477982Y239799*
X473983*
X471984Y241798*
X433996Y275196D02*
X431997Y277195D01*
X427998*
X425999Y275196*
Y267198*
X427998Y265199*
X431997*
X433996Y267198*
Y271197*
X429998*
X437995Y265199D02*
Y277195D01*
X443993*
X445992Y275196*
Y271197*
X443993Y269198*
X437995*
X449991Y277195D02*
X453990D01*
X451991*
Y265199*
X449991*
X453990*
X465986Y277195D02*
X461987D01*
X459988Y275196*
Y267198*
X461987Y265199*
X465986*
X467985Y267198*
Y275196*
X465986Y277195*
X479982Y265199D02*
X471984D01*
X479982Y273196*
Y275196*
X477982Y277195*
X473983*
X471984Y275196*
X437995Y300596D02*
X435996Y302595D01*
X431997*
X429998Y300596*
Y292598*
X431997Y290599*
X435996*
X437995Y292598*
Y296597*
X433996*
X441994Y290599D02*
Y302595D01*
X447992*
X449991Y300596*
Y296597*
X447992Y294598*
X441994*
X453990Y302595D02*
X457989D01*
X455989*
Y290599*
X453990*
X457989*
X469985Y302595D02*
X465986D01*
X463987Y300596*
Y292598*
X465986Y290599*
X469985*
X471984Y292598*
Y300596*
X469985Y302595*
X475983Y290599D02*
X479982D01*
X477982*
Y302595*
X475983Y300596*
X433996Y325996D02*
X431997Y327995D01*
X427998*
X425999Y325996*
Y317998*
X427998Y315999*
X431997*
X433996Y317998*
Y321997*
X429998*
X437995Y315999D02*
Y327995D01*
X443993*
X445992Y325996*
Y321997*
X443993Y319998*
X437995*
X449991Y327995D02*
X453990D01*
X451991*
Y315999*
X449991*
X453990*
X465986Y327995D02*
X461987D01*
X459988Y325996*
Y317998*
X461987Y315999*
X465986*
X467985Y317998*
Y325996*
X465986Y327995*
X471984Y325996D02*
X473983Y327995D01*
X477982*
X479982Y325996*
Y317998*
X477982Y315999*
X473983*
X471984Y317998*
Y325996*
X196499Y458743D02*
X208495D01*
X202497*
Y440749*
X214493Y458743D02*
Y443748D01*
X217492Y440749*
X223490*
X226489Y443748*
Y458743*
X206496Y433996D02*
X204497Y435995D01*
X200498*
X198499Y433996*
Y425998*
X200498Y423999*
X204497*
X206496Y425998*
Y429997*
X202498*
X210495Y431996D02*
Y423999D01*
Y427998*
X212494Y429997*
X214494Y431996*
X216493*
X224491D02*
X228489D01*
X230489Y429997*
Y423999*
X224491*
X222491Y425998*
X224491Y427998*
X230489*
X234487Y431996D02*
X242485D01*
X234487Y423999*
X242485*
X32999Y264999D02*
Y272996D01*
X38997*
X40996Y270997*
Y264999*
X44995D02*
Y276995D01*
X50993*
X52992Y274996*
Y270997*
X50993Y268998*
X44995*
X48994D02*
X52992Y264999D01*
X64989Y274996D02*
X62989Y276995D01*
X58991*
X56991Y274996*
Y272996*
X58991Y270997*
X62989*
X64989Y268998*
Y266998*
X62989Y264999*
X58991*
X56991Y266998*
X68987Y276995D02*
X76985D01*
X72986*
Y264999*
X40996Y247746D02*
X38997Y249745D01*
X34998*
X32999Y247746*
Y239748*
X34998Y237749*
X38997*
X40996Y239748*
X52992Y247746D02*
X50993Y249745D01*
X46995*
X44995Y247746*
Y245746*
X46995Y243747*
X50993*
X52992Y241748*
Y239748*
X50993Y237749*
X46995*
X44995Y239748*
X64989Y237749D02*
X56991D01*
X64989Y245746*
Y247746*
X62989Y249745*
X58991*
X56991Y247746*
X40996Y222996D02*
X38997Y224995D01*
X34998*
X32999Y222996*
Y214998*
X34998Y212999*
X38997*
X40996Y214998*
Y218997*
X36998*
X44995Y212999D02*
Y224995D01*
X50993*
X52992Y222996*
Y218997*
X50993Y216998*
X44995*
X56991Y224995D02*
X60990D01*
X58991*
Y212999*
X56991*
X60990*
X72986Y224995D02*
X68987D01*
X66988Y222996*
Y214998*
X68987Y212999*
X72986*
X74985Y214998*
Y222996*
X72986Y224995*
X86982D02*
X82983Y222996D01*
X78984Y218997*
Y214998*
X80983Y212999*
X84982*
X86982Y214998*
Y216998*
X84982Y218997*
X78984*
X457494Y517246D02*
X455494Y519245D01*
X451496*
X449496Y517246*
Y509248*
X451496Y507249*
X455494*
X457494Y509248*
Y513247*
X453495*
X461492Y507249D02*
Y519245D01*
X469490Y507249*
Y519245*
X473489D02*
Y507249D01*
X479487*
X481486Y509248*
Y517246*
X479487Y519245*
X473489*
X457494Y491896D02*
X455494Y493895D01*
X451496*
X449496Y491896*
Y489896*
X451496Y487897*
X455494*
X457494Y485898*
Y483898*
X455494Y481899*
X451496*
X449496Y483898*
X469490Y491896D02*
X467491Y493895D01*
X463492*
X461492Y491896*
Y483898*
X463492Y481899*
X467491*
X469490Y483898*
X473489Y493895D02*
Y481899D01*
Y485898*
X481486Y493895*
X475488Y487897*
X481486Y481899*
X439500Y456549D02*
Y468545D01*
X443498Y464546*
X447497Y468545*
Y456549*
X451496Y468545D02*
X455494D01*
X453495*
Y456549*
X451496*
X455494*
X469490Y466546D02*
X467491Y468545D01*
X463492*
X461492Y466546*
Y464546*
X463492Y462547*
X467491*
X469490Y460548*
Y458548*
X467491Y456549*
X463492*
X461492Y458548*
X479487Y468545D02*
X475488D01*
X473489Y466546*
Y458548*
X475488Y456549*
X479487*
X481486Y458548*
Y466546*
X479487Y468545*
X441499Y431199D02*
Y443195D01*
X445498Y439196*
X449496Y443195*
Y431199*
X459493Y443195D02*
X455494D01*
X453495Y441196*
Y433198*
X455494Y431199*
X459493*
X461492Y433198*
Y441196*
X459493Y443195*
X473489Y441196D02*
X471489Y443195D01*
X467491*
X465491Y441196*
Y439196*
X467491Y437197*
X471489*
X473489Y435198*
Y433198*
X471489Y431199*
X467491*
X465491Y433198*
X477487Y443195D02*
X481486D01*
X479487*
Y431199*
X477487*
X481486*
X461492Y415846D02*
X459493Y417845D01*
X455494*
X453495Y415846*
Y407848*
X455494Y405849*
X459493*
X461492Y407848*
X473489Y415846D02*
X471489Y417845D01*
X467491*
X465491Y415846*
Y413846*
X467491Y411847*
X471489*
X473489Y409848*
Y407848*
X471489Y405849*
X467491*
X465491Y407848*
X477487Y405849D02*
X481486D01*
X479487*
Y417845*
X477487Y415846*
X451496Y392495D02*
X455494D01*
X453495*
Y380499*
X451496*
X455494*
X461492D02*
Y392495D01*
X467491*
X469490Y390496*
Y386497*
X467491Y384498*
X461492*
X465491D02*
X469490Y380499D01*
X481486Y382498D02*
Y390496D01*
X479487Y392495*
X475488*
X473489Y390496*
Y382498*
X475488Y380499*
X479487*
X477487Y384498D02*
X481486Y380499D01*
X479487D02*
X481486Y382498D01*
X413749Y368745D02*
Y356749D01*
X417748Y360748*
X421746Y356749*
Y368745*
X427745Y364746D02*
X431743D01*
X433743Y362747*
Y356749*
X427745*
X425745Y358748*
X427745Y360748*
X433743*
X437741Y356749D02*
Y368745D01*
Y360748D02*
X443739Y364746D01*
X437741Y360748D02*
X443739Y356749D01*
X455735D02*
X451737D01*
X449737Y358748*
Y362747*
X451737Y364746*
X455735*
X457735Y362747*
Y360748*
X449737*
X461734Y368745D02*
Y358748D01*
X463733Y356749*
X467732*
X469731Y358748*
Y368745*
X473730Y352750D02*
Y364746D01*
X479728*
X481727Y362747*
Y358748*
X479728Y356749*
X473730*
X397999Y80749D02*
Y78750D01*
X396000*
Y80749*
X397999*
G54D115*
X377499Y599016D02*
D01*
X377349Y599011*
X377199Y598995*
X377051Y598969*
X376904Y598933*
X376761Y598886*
X376621Y598830*
X376486Y598764*
X376355Y598688*
X376230Y598604*
X376112Y598511*
X376000Y598411*
X375895Y598302*
X375798Y598187*
X375709Y598065*
X375630Y597937*
X375559Y597804*
X375498Y597666*
X375446Y597525*
X375404Y597380*
X375373Y597232*
X375352Y597083*
X375342Y596933*
X375340Y596857*
X390326D02*
D01*
X390321Y597008*
X390305Y597158*
X390279Y597306*
X390243Y597452*
X390196Y597596*
X390140Y597735*
X390074Y597871*
X389998Y598001*
X389914Y598126*
X389821Y598245*
X389720Y598357*
X389612Y598462*
X389497Y598559*
X389375Y598647*
X389247Y598727*
X389114Y598798*
X388976Y598859*
X388835Y598911*
X388690Y598952*
X388542Y598984*
X388393Y599005*
X388243Y599015*
X388167Y599016*
X375340Y569141D02*
D01*
X375346Y568991*
X375361Y568841*
X375388Y568693*
X375424Y568546*
X375471Y568403*
X375527Y568263*
X375593Y568128*
X375669Y567997*
X375753Y567872*
X375846Y567754*
X375946Y567641*
X376055Y567537*
X376170Y567440*
X376292Y567351*
X376420Y567272*
X376553Y567201*
X376691Y567140*
X376832Y567088*
X376977Y567047*
X377124Y567015*
X377274Y566994*
X377424Y566984*
X377499Y566982*
X388167D02*
D01*
X388318Y566988*
X388468Y567003*
X388616Y567030*
X388763Y567066*
X388906Y567113*
X389045Y567169*
X389181Y567235*
X389311Y567311*
X389436Y567395*
X389555Y567488*
X389667Y567588*
X389772Y567697*
X389869Y567812*
X389957Y567934*
X390037Y568062*
X390108Y568195*
X390169Y568333*
X390221Y568474*
X390262Y568619*
X390294Y568766*
X390314Y568916*
X390325Y569066*
X390326Y569141*
X395583Y599016D02*
D01*
X395433Y599011*
X395283Y598995*
X395135Y598969*
X394988Y598933*
X394845Y598886*
X394705Y598830*
X394570Y598764*
X394439Y598688*
X394314Y598604*
X394196Y598511*
X394084Y598411*
X393979Y598302*
X393882Y598187*
X393793Y598065*
X393714Y597937*
X393643Y597804*
X393582Y597666*
X393530Y597525*
X393488Y597380*
X393457Y597232*
X393436Y597083*
X393426Y596933*
X393424Y596857*
X408410D02*
D01*
X408405Y597008*
X408389Y597158*
X408363Y597306*
X408327Y597452*
X408280Y597596*
X408224Y597735*
X408158Y597871*
X408082Y598001*
X407998Y598126*
X407905Y598245*
X407804Y598357*
X407696Y598462*
X407581Y598559*
X407459Y598647*
X407331Y598727*
X407198Y598798*
X407060Y598859*
X406918Y598911*
X406774Y598952*
X406626Y598984*
X406477Y599005*
X406327Y599015*
X406251Y599016*
X393424Y569141D02*
D01*
X393430Y568991*
X393446Y568841*
X393472Y568693*
X393508Y568546*
X393554Y568403*
X393611Y568263*
X393677Y568128*
X393752Y567997*
X393837Y567872*
X393929Y567754*
X394030Y567641*
X394139Y567537*
X394254Y567440*
X394376Y567351*
X394504Y567272*
X394637Y567201*
X394775Y567140*
X394916Y567088*
X395061Y567047*
X395209Y567015*
X395358Y566994*
X395508Y566984*
X395583Y566982*
X406251D02*
D01*
X406402Y566988*
X406552Y567003*
X406700Y567030*
X406847Y567066*
X406990Y567113*
X407129Y567169*
X407265Y567235*
X407395Y567311*
X407520Y567395*
X407639Y567488*
X407751Y567588*
X407856Y567697*
X407953Y567812*
X408041Y567934*
X408121Y568062*
X408192Y568195*
X408253Y568333*
X408305Y568474*
X408346Y568619*
X408378Y568766*
X408398Y568916*
X408409Y569066*
X408410Y569141*
X359415Y599016D02*
D01*
X359265Y599011*
X359115Y598995*
X358967Y598969*
X358820Y598933*
X358677Y598886*
X358537Y598830*
X358402Y598764*
X358271Y598688*
X358146Y598604*
X358027Y598511*
X357916Y598411*
X357811Y598302*
X357714Y598187*
X357625Y598065*
X357546Y597937*
X357475Y597804*
X357414Y597666*
X357362Y597525*
X357321Y597380*
X357289Y597232*
X357268Y597083*
X357258Y596933*
X357256Y596857*
X372242D02*
D01*
X372237Y597008*
X372221Y597158*
X372195Y597306*
X372159Y597452*
X372112Y597596*
X372056Y597735*
X371990Y597871*
X371914Y598001*
X371830Y598126*
X371737Y598245*
X371637Y598357*
X371528Y598462*
X371413Y598559*
X371291Y598647*
X371163Y598727*
X371030Y598798*
X370892Y598859*
X370751Y598911*
X370606Y598952*
X370458Y598984*
X370309Y599005*
X370159Y599015*
X370083Y599016*
X357256Y569141D02*
D01*
X357262Y568991*
X357277Y568841*
X357304Y568693*
X357340Y568546*
X357387Y568403*
X357443Y568263*
X357509Y568128*
X357585Y567997*
X357669Y567872*
X357762Y567754*
X357862Y567641*
X357971Y567537*
X358086Y567440*
X358208Y567351*
X358336Y567272*
X358469Y567201*
X358607Y567140*
X358748Y567088*
X358893Y567047*
X359040Y567015*
X359190Y566994*
X359340Y566984*
X359415Y566982*
X370083D02*
D01*
X370234Y566988*
X370384Y567003*
X370532Y567030*
X370678Y567066*
X370822Y567113*
X370961Y567169*
X371097Y567235*
X371227Y567311*
X371352Y567395*
X371471Y567488*
X371583Y567588*
X371688Y567697*
X371785Y567812*
X371873Y567934*
X371953Y568062*
X372024Y568195*
X372085Y568333*
X372137Y568474*
X372178Y568619*
X372210Y568766*
X372231Y568916*
X372241Y569066*
X372242Y569141*
X413666Y599266D02*
D01*
X413516Y599261*
X413366Y599245*
X413217Y599219*
X413071Y599183*
X412928Y599136*
X412788Y599080*
X412653Y599014*
X412522Y598938*
X412397Y598854*
X412279Y598761*
X412167Y598660*
X412062Y598552*
X411965Y598437*
X411877Y598315*
X411797Y598187*
X411726Y598054*
X411665Y597916*
X411613Y597775*
X411571Y597630*
X411540Y597482*
X411519Y597333*
X411509Y597183*
X411507Y597107*
X426493D02*
D01*
X426488Y597258*
X426472Y597408*
X426446Y597556*
X426410Y597702*
X426363Y597846*
X426307Y597986*
X426241Y598121*
X426165Y598252*
X426081Y598377*
X425988Y598495*
X425887Y598607*
X425779Y598712*
X425664Y598809*
X425542Y598897*
X425414Y598977*
X425281Y599048*
X425143Y599109*
X425001Y599161*
X424857Y599202*
X424709Y599234*
X424560Y599255*
X424410Y599265*
X424334Y599266*
X411507Y569391D02*
D01*
X411513Y569241*
X411528Y569091*
X411554Y568942*
X411591Y568796*
X411637Y568653*
X411694Y568513*
X411760Y568378*
X411835Y568247*
X411920Y568122*
X412012Y568004*
X412113Y567892*
X412222Y567787*
X412337Y567690*
X412459Y567601*
X412587Y567522*
X412720Y567451*
X412858Y567390*
X412999Y567338*
X413144Y567297*
X413292Y567265*
X413441Y567244*
X413591Y567234*
X413666Y567232*
X424334D02*
D01*
X424485Y567238*
X424635Y567253*
X424783Y567280*
X424930Y567316*
X425073Y567363*
X425213Y567419*
X425348Y567485*
X425478Y567560*
X425603Y567645*
X425722Y567738*
X425834Y567838*
X425939Y567947*
X426036Y568062*
X426124Y568184*
X426204Y568312*
X426275Y568445*
X426336Y568583*
X426388Y568724*
X426429Y568869*
X426461Y569016*
X426482Y569166*
X426492Y569316*
X426493Y569391*
X377499Y599016D02*
X388167D01*
X377499Y566982D02*
X388167D01*
X375340Y569141D02*
Y596857D01*
X390326Y569141D02*
Y596857D01*
X395583Y599016D02*
X406251D01*
X395583Y566982D02*
X406251D01*
X393424Y569141D02*
Y596857D01*
X408410Y569141D02*
Y596857D01*
X359415Y599016D02*
X370083D01*
X359415Y566982D02*
X370083D01*
X357256Y569141D02*
Y596857D01*
X372242Y569141D02*
Y596857D01*
X413666Y599266D02*
X424334D01*
X413666Y567232D02*
X424334D01*
X411507Y569391D02*
Y597107D01*
X426493Y569391D02*
Y597107D01*
G54D116*
X510699Y113249D02*
D01*
X510669Y114135*
X510576Y115017*
X510422Y115890*
X510208Y116750*
X509933Y117593*
X509601Y118415*
X509213Y119212*
X508770Y119979*
X508274Y120714*
X507728Y121413*
X507135Y122072*
X506497Y122687*
X505818Y123257*
X505101Y123778*
X504349Y124248*
X503567Y124664*
X502757Y125025*
X501924Y125328*
X501072Y125572*
X500205Y125756*
X499327Y125880*
X498442Y125942*
X497556*
X496672Y125880*
X495794Y125756*
X494927Y125572*
X494075Y125328*
X493242Y125025*
X492432Y124664*
X491649Y124248*
X490898Y123778*
X490180Y123257*
X489501Y122687*
X488864Y122072*
X488271Y121413*
X487725Y120714*
X487229Y119979*
X486786Y119212*
X486397Y118415*
X486065Y117593*
X485791Y116750*
X485577Y115890*
X485423Y115017*
X485330Y114135*
X485299Y113249*
X485330Y112364*
X485423Y111482*
X485577Y110609*
X485791Y109749*
X486065Y108906*
X486397Y108084*
X486786Y107287*
X487229Y106519*
X487725Y105784*
X488271Y105086*
X488864Y104427*
X489501Y103811*
X490180Y103242*
X490898Y102721*
X491649Y102251*
X492432Y101835*
X493242Y101474*
X494075Y101171*
X494927Y100927*
X495794Y100742*
X496672Y100619*
X497556Y100557*
X498442*
X499327Y100619*
X500205Y100742*
X501072Y100927*
X501924Y101171*
X502757Y101474*
X503567Y101835*
X504349Y102251*
X505101Y102721*
X505818Y103242*
X506497Y103811*
X507135Y104427*
X507728Y105086*
X508274Y105784*
X508770Y106519*
X509213Y107287*
X509601Y108084*
X509933Y108906*
X510208Y109749*
X510422Y110609*
X510576Y111482*
X510669Y112364*
X510699Y113249*
X27699Y528499D02*
D01*
X27668Y529385*
X27576Y530267*
X27422Y531140*
X27207Y532000*
X26933Y532843*
X26601Y533665*
X26213Y534462*
X25770Y535229*
X25274Y535964*
X24728Y536663*
X24135Y537322*
X23497Y537937*
X22818Y538507*
X22101Y539028*
X21349Y539498*
X20567Y539914*
X19757Y540275*
X18924Y540578*
X18072Y540822*
X17205Y541007*
X16327Y541130*
X15443Y541192*
X14556*
X13672Y541130*
X12794Y541007*
X11927Y540822*
X11075Y540578*
X10242Y540275*
X9432Y539914*
X8649Y539498*
X7898Y539028*
X7181Y538507*
X6501Y537937*
X5864Y537322*
X5271Y536663*
X4725Y535964*
X4229Y535229*
X3786Y534462*
X3397Y533665*
X3065Y532843*
X2791Y532000*
X2577Y531140*
X2423Y530267*
X2330Y529385*
X2299Y528499*
X2330Y527613*
X2423Y526732*
X2577Y525859*
X2791Y524999*
X3065Y524156*
X3397Y523334*
X3786Y522537*
X4229Y521769*
X4725Y521035*
X5271Y520336*
X5864Y519677*
X6501Y519061*
X7181Y518492*
X7898Y517971*
X8649Y517501*
X9432Y517085*
X10242Y516724*
X11075Y516421*
X11927Y516177*
X12794Y515992*
X13672Y515869*
X14556Y515807*
X15443*
X16327Y515869*
X17205Y515992*
X18072Y516177*
X18924Y516421*
X19757Y516724*
X20567Y517085*
X21349Y517501*
X22101Y517971*
X22818Y518492*
X23497Y519061*
X24135Y519677*
X24728Y520336*
X25274Y521035*
X25770Y521769*
X26213Y522537*
X26601Y523334*
X26933Y524156*
X27207Y524999*
X27422Y525859*
X27576Y526732*
X27668Y527613*
X27699Y528499*
X341249Y167749D02*
X342249D01*
X341249Y174749D02*
X342249D01*
X484899Y333499D02*
X510299D01*
Y130299D02*
Y333499D01*
X484899Y130299D02*
X510299D01*
X484899D02*
Y333499D01*
X411499Y82499D02*
Y83499D01*
X402499Y82499D02*
Y83499D01*
X422499Y551249D02*
Y552249D01*
X415499Y551249D02*
Y552249D01*
X386332Y551499D02*
Y552499D01*
X379332Y551499D02*
Y552499D01*
X404416Y551999D02*
Y552999D01*
X397416Y551999D02*
Y552999D01*
X368249Y551499D02*
Y552499D01*
X361249Y551499D02*
Y552499D01*
X480699Y577299D02*
Y602699D01*
X429899Y577299D02*
X480699D01*
X429899D02*
Y602699D01*
X480699*
X231829Y191159D02*
Y192159D01*
X222829Y191159D02*
Y192159D01*
X313249Y68499D02*
Y69499D01*
X324749Y68499D02*
Y69499D01*
X484899Y367749D02*
Y602699D01*
Y348699D02*
Y367749D01*
Y348699D02*
X510299D01*
Y602699*
X484899D02*
X510299D01*
X145799Y159399D02*
X171199D01*
X145799D02*
Y210199D01*
X171199*
Y159399D02*
Y210199D01*
X11732Y555616D02*
X45599D01*
X7499Y559849D02*
X11732Y555616D01*
X7499Y559849D02*
X11732Y564082D01*
X45599*
X11732Y581016D02*
X45599D01*
X7499Y585249D02*
X11732Y581016D01*
X7499Y585249D02*
X11732Y589482D01*
X45599*
X58299Y547149D02*
Y597949D01*
X45599D02*
X58299D01*
X45599Y547149D02*
X58299D01*
X45599D02*
Y597949D01*
X2299Y130299D02*
X27699D01*
X2299Y282699D02*
X27699D01*
Y130299D02*
Y282699D01*
X2299Y130299D02*
Y282699D01*
Y308099D02*
X27699D01*
X2299D02*
Y511299D01*
X27699*
Y308099D02*
Y511299D01*
X172299Y602099D02*
X350099D01*
X172299Y551299D02*
X350099D01*
Y602099*
X172299Y551299D02*
Y602099D01*
X259249Y52499D02*
Y57499D01*
X237249Y162999D02*
X241249D01*
X237249Y158999D02*
Y162999D01*
X293249D02*
X297249D01*
Y158999D02*
Y162999D01*
Y102999D02*
Y106999D01*
X293249Y102999D02*
X297249D01*
X237249D02*
Y106999D01*
Y102999D02*
X241249D01*
X237249Y158999D02*
X241249Y162999D01*
X341499Y154749D02*
X342499D01*
X341499Y161749D02*
X342499D01*
X86899Y545099D02*
X166899D01*
X86899Y519699D02*
Y545099D01*
Y519699D02*
X166899D01*
Y545099*
G54D117*
X370499Y102249D02*
X395499D01*
X370499Y82249D02*
X395499D01*
Y102249*
X370499Y82249D02*
Y102249D01*
G54D118*
X139499Y449499D03*
X149999Y439999D03*
X161499Y449499D03*
X171499Y459249D03*
X183499Y449499D03*
G54D119*
X250124Y427874D03*
G54D120*
X375148Y597900D03*
X393231Y597901D03*
X357065D03*
X411315Y598151D03*
G54D121*
X382831Y600440D03*
X400915Y600441D03*
X364749D03*
X418999Y600691D03*
G54D122*
X390413Y597569D03*
X408497Y597571D03*
X372331D03*
X426580Y597821D03*
M02*