%FSLAX44Y44*%
%MOMM*%
%SFA1B1*%

%IPPOS*%
%ADD92R,0.723199X0.723199*%
%ADD93R,0.723199X0.723199*%
%ADD105R,1.223198X4.953190*%
%ADD108R,1.703197X1.703197*%
%ADD109C,1.703197*%
%ADD110R,1.703197X1.703197*%
%ADD111C,1.753196*%
%ADD112R,1.753196X1.753196*%
%ADD113C,0.803198*%
%ADD114C,0.449999*%
%ADD123R,0.653199X0.753198*%
G54D92*
X266499Y164249D03*
Y156249D03*
G54D93*
X297499Y134999D03*
X289499D03*
G54D105*
X307749Y23749D03*
X222749D03*
G54D108*
X497599Y142999D03*
Y361399D03*
X158499Y197499D03*
X70999Y585249D03*
X14999Y269999D03*
Y498599D03*
G54D109*
X497599Y168399D03*
Y193799D03*
Y219199D03*
Y244599D03*
Y269999D03*
Y295399D03*
Y320799D03*
X467999Y589999D03*
X497599Y412199D03*
Y589999D03*
Y564599D03*
Y539199D03*
Y513799D03*
Y488399D03*
Y462999D03*
Y437599D03*
Y386799D03*
X158499Y172099D03*
X70999Y559849D03*
X14999Y244599D03*
Y219199D03*
Y193799D03*
Y168399D03*
Y142999D03*
Y473199D03*
Y447799D03*
Y422399D03*
Y396999D03*
Y371599D03*
Y346199D03*
Y320799D03*
X184999Y563999D03*
Y589399D03*
X210399Y563999D03*
Y589399D03*
X235799Y563999D03*
Y589399D03*
X261199Y563999D03*
Y589399D03*
X286599Y563999D03*
Y589399D03*
X311999Y563999D03*
Y589399D03*
X337399Y563999D03*
G54D110*
X442599Y589999D03*
X337399Y589399D03*
G54D111*
X497599Y113249D03*
X14999Y528499D03*
X126899Y504499D03*
X152299D03*
G54D112*
X101499Y504499D03*
G54D113*
X59999Y256499D03*
X38999Y229999D03*
X354999Y218999D03*
Y228999D03*
X355999Y254000D03*
X354999Y240999D03*
X364749Y533999D03*
X354999Y264999D03*
Y274999D03*
Y285999D03*
X418999Y533999D03*
X400916D03*
X382832D03*
X265999Y259999D03*
Y248999D03*
X108999Y178999D03*
X445999Y426999D03*
X447999Y412999D03*
X284999Y249999D03*
X279999Y259999D03*
X73999Y186999D03*
X63999Y178999D03*
X54999Y167999D03*
X49999Y90999D03*
Y76999D03*
X444999Y439999D03*
X49999Y63249D03*
X266999Y220999D03*
X96999Y178999D03*
X49999Y34999D03*
X483999Y486999D03*
X431999Y487999D03*
X299999Y103999D03*
X325124Y136999D03*
X261999Y210749D03*
X326249Y49499D03*
X341329Y62499D03*
X267249Y175999D03*
X231749Y220749D03*
X325749Y125499D03*
X344499Y131749D03*
X381749Y126499D03*
X213360Y200660D03*
X414749Y106999D03*
X194310Y110490D03*
X192499Y125999D03*
Y135999D03*
X219249Y150499D03*
X219999Y137249D03*
X227749Y94499D03*
X236749Y77749D03*
X286999Y62249D03*
X304999D03*
X296249D03*
X267999Y188499D03*
X242499Y61249D03*
X275999D03*
X306999Y137499D03*
X319999Y16166D03*
Y5499D03*
Y26832D03*
X342749Y16916D03*
X365499Y6249D03*
X345819Y49499D03*
X356999D03*
X201499Y17916D03*
Y7249D03*
X201249Y28582D03*
Y39249D03*
X182749Y18416D03*
Y7749D03*
X182499Y29083D03*
Y39749D03*
X183249Y59416D03*
Y48749D03*
X182999Y70082D03*
Y80749D03*
X201749Y59166D03*
Y48499D03*
X201499Y69832D03*
Y80499D03*
X223999Y59666D03*
Y48999D03*
X223749Y70332D03*
Y80999D03*
X365499Y27582D03*
X342749D03*
Y38249D03*
X365499D03*
X342749Y6249D03*
X365499Y16916D03*
X319999Y37499D03*
X49999Y20749D03*
X50249Y6999D03*
X49999Y49499D03*
X128749Y20749D03*
X40999Y159499D03*
X214630Y190500D03*
X247650Y210820D03*
X350329Y62249D03*
X359079Y61999D03*
X354999Y91249D03*
X312249Y103249D03*
X350759Y106139D03*
X334249Y97999D03*
X421999Y73749D03*
X331999Y66999D03*
X287999Y42249D03*
Y32999D03*
Y14249D03*
Y4999D03*
Y23499D03*
X297249Y4749D03*
Y15999D03*
Y26999D03*
Y38249D03*
Y49499D03*
X233499Y37499D03*
X243249Y37749D03*
Y26999D03*
X233499Y26749D03*
X233749Y16249D03*
X243499Y16499D03*
X233749Y5499D03*
X243499Y5749D03*
X214789Y212249D03*
X131749Y91249D03*
Y62999D03*
X162749Y143749D03*
X136750Y104998D03*
X344249Y141999D03*
X351749Y114999D03*
X238999Y201999D03*
X190749Y189499D03*
X362999Y99499D03*
G54D114*
X254749Y132999D03*
X266749Y144999D03*
X278749D03*
X266749Y132999D03*
X254749Y144999D03*
X279749Y132999D03*
X278749Y120999D03*
X254749D03*
X266749D03*
G54D123*
X235999Y144999D03*
X244999D03*
M02*