M48
;Layer_Color=9474304
;FILE_FORMAT=4:4
METRIC,LZ
;TYPE=PLATED
T1F00S00C0.3000
T2F00S00C0.9000
T3F00S00C1.0160
T4F00S00C1.0200
%
T01
X0030425Y00261
X00304Y0027475
Y00289
Y003035
Y0031725
Y00331
Y00345
X0038575Y0034525
X00390751Y00358999
X0038575Y00317
X0038275Y0027475
X0043675Y00272417
Y0026175
X004555Y0026125
Y00271917
X0045525Y00282583
Y0029325
X0045575Y003025
Y00313167
X004555Y00323833
Y003345
X00437Y0033475
Y00324083
X0043725Y00313417
Y0030275
X004365Y0029375
Y00283083
X004875Y0028075
X0049725Y00281
Y0029175
X004875Y002915
X00478Y00303
Y00313667
X0047775Y00324333
Y00335
X0049075Y0033175
X004965Y0031525
X0053
X00541Y0031625
X0055025
X00559
X0055125Y003035
Y0029225
Y00281
Y0027
X00542Y0026825
Y002775
Y00287
Y0029625
X00574Y002915
Y00280833
Y00270167
Y002595
X0059675Y0026025
Y00270917
Y00281583
Y0029225
X0059982Y003035
X00611
X0061308Y00316
X0060433Y0031625
X0059533Y003165
X00586Y00321
X0058025Y003035
X006195Y0029225
Y00281583
Y00270917
Y0026025
X0055125Y0025875
X00542Y00259
X004975Y0025975
X0048775Y002595
Y0027025
X004975Y002705
X0048175Y003485
X0044831Y0036449
X004465Y0038
Y0039
X00474Y0039125
X0050875Y00387
X0052075
Y00375
X0053275
X0053375Y00387
X00561Y003915
X00579125Y00391
X0057975Y003795
X005985Y0038575
X0059825Y00396
X0060575Y00369
X0060476Y0036014
X00617Y003535
X00609Y0034525
X0058825Y00352
X0056625Y0035725
X00554Y00358
X0050875Y00375
X0063575Y003805
X0066875Y00361
X00676Y0032775
X00609Y00473
Y00483
Y00495
X0061Y00508
X00609Y00519
Y00529
X00609Y0054
X00534Y00514
X0052
Y00503
X00539Y00504
X00521Y00475
X00516Y0046475
X0050165Y0046482
X00493Y00456
X0048575Y0047475
X0046879Y0046625
X0046736Y0045466
X0046863Y004445
X0044475Y004435
X0047325Y004045
X0050875Y00399
X0052075
X0053275
X0052125Y0043
X00522Y004425
X0041675Y0039775
X00702Y00667
X007Y00681
X00699Y00694
X00686Y00742
X00738Y00741
X00673Y00788
X00654917
X00636833
X0061875
X00314Y005105
X00293Y00484
X00295Y004135
X00309Y00422
X00318Y00433
X00328Y00441
X00351Y00433
X00363
T02
X004125Y004261
Y004515
X007516Y004478
Y004224
Y00397
Y004732
Y004986
Y00524
Y005494
Y005748
Y006154
Y006408
Y006662
Y006916
Y00717
Y007424
Y007678
Y007932
X00269Y007526
Y007272
Y007018
Y006764
Y00651
Y006256
Y006002
Y005748
Y00524
Y004986
Y004732
Y004478
Y004224
Y00397
X00325Y0081385
Y0083925
X00439Y008434
Y00818
X004644
Y008434
X004898
Y00818
X005152
Y008434
X005406
X005406Y00818
X00566
Y008434
X005914
Y00818
X006966Y00844
X00722
X007516
Y008186
T03
X007516Y0036725
X00269Y007825
T04
X004063Y007585
X003809
X003555
M30
