%FSLAX44Y44*%
%MOMM*%
%SFA1B1*%

%IPPOS*%
%ADD11R,0.699999X0.899998*%
%ADD12R,1.099998X1.099998*%
%ADD13R,0.519999X0.519999*%
%ADD14R,0.519999X0.519999*%
%ADD15R,0.999998X0.999998*%
%ADD16R,0.549999X0.449999*%
%ADD17R,0.899998X0.699999*%
%ADD18R,1.349997X0.949998*%
%ADD19R,1.299997X1.149998*%
%ADD20R,0.999998X2.450095*%
%ADD21R,2.450095X0.999998*%
%ADD22R,0.799998X0.299999*%
%ADD23R,0.699999X0.299999*%
%ADD24R,0.849998X0.599999*%
%ADD25R,0.200000X0.899998*%
%ADD26R,0.899998X0.200000*%
%ADD27R,4.399991X4.399991*%
%ADD28R,0.649999X0.749999*%
%ADD29R,1.019998X4.749991*%
%ADD30R,0.509999X1.909996*%
%ADD31R,1.149998X1.399997*%
%ADD44R,1.499997X1.499997*%
%ADD45C,1.499997*%
%ADD46R,1.499997X1.499997*%
%ADD47C,1.549997*%
%ADD48R,1.549997X1.549997*%
G54D11*
X334749Y171249D03*
X348749D03*
X334999Y158249D03*
X348999D03*
G54D12*
X406999Y91999D03*
Y73999D03*
X227330Y200660D03*
Y182659D03*
G54D13*
X177499Y171249D03*
Y179249D03*
X168910Y134809D03*
Y126809D03*
X263749Y84249D03*
Y76249D03*
X254749Y84249D03*
Y76249D03*
X362999Y108499D03*
Y116499D03*
X259749Y188499D03*
Y196499D03*
X182880Y108139D03*
Y100139D03*
X191770Y99249D03*
Y91249D03*
X247650Y189039D03*
Y197039D03*
X236749Y94499D03*
Y86499D03*
X242570Y172529D03*
Y180529D03*
X341499Y78749D03*
Y70749D03*
X359749D03*
Y78749D03*
X350749D03*
Y70749D03*
X304800Y78929D03*
Y70929D03*
X287020D03*
Y78929D03*
X295910D03*
Y70929D03*
X334499Y131499D03*
Y139499D03*
X219249Y167249D03*
Y159249D03*
G54D14*
X177989Y118110D03*
X169989D03*
X200999Y89999D03*
X208999D03*
Y98999D03*
X200999D03*
X209499Y135999D03*
X201499D03*
X208999Y125999D03*
X200999D03*
X212279Y110490D03*
X204279D03*
X333749Y114999D03*
X341749D03*
X333749Y106249D03*
X341749D03*
G54D15*
X382833Y574499D03*
Y591499D03*
X400917Y574499D03*
Y591499D03*
X364749Y574499D03*
Y591499D03*
X419000Y574749D03*
Y591749D03*
G54D16*
X177800Y135309D03*
Y126309D03*
X217999Y89999D03*
Y98999D03*
X127000Y480499D03*
Y489499D03*
G54D17*
X418999Y544749D03*
Y558749D03*
X382832Y544999D03*
Y558999D03*
X400916Y545499D03*
Y559499D03*
X364749Y544999D03*
Y558999D03*
G54D18*
X318999Y60999D03*
Y76999D03*
G54D19*
X381749Y114249D03*
X398749D03*
G54D20*
X125250Y132999D03*
X139250D03*
X111249D03*
X97249D03*
X83251D03*
X69250D03*
X55250D03*
X41250D03*
G54D21*
X153251Y104998D03*
Y91000D03*
Y76999D03*
Y62999D03*
Y48999D03*
Y34998D03*
X27249Y104998D03*
Y91000D03*
Y76999D03*
Y62999D03*
Y48999D03*
Y21000D03*
Y34998D03*
X153251Y21000D03*
Y7000D03*
X27249D03*
G54D22*
X252749Y54999D03*
Y61249D03*
Y67749D03*
X265749Y61249D03*
Y67749D03*
G54D23*
X265249Y54999D03*
G54D24*
X389749Y86749D03*
X376249D03*
X389749Y97749D03*
X376249D03*
G54D25*
X289249Y162499D03*
X281249D03*
X273249D03*
X265249D03*
X257249D03*
X249249D03*
X245249D03*
X253249D03*
X261249D03*
X269249D03*
X277249D03*
X285249D03*
X245249Y103499D03*
X253249D03*
X261249D03*
X269249D03*
X277249D03*
X285249D03*
X289249D03*
X281249D03*
X273249D03*
X265249D03*
X257249D03*
X249249D03*
G54D26*
X296749Y110999D03*
Y118999D03*
Y127000D03*
Y134999D03*
Y142999D03*
Y150999D03*
Y154999D03*
Y146999D03*
Y138999D03*
Y130999D03*
Y122999D03*
Y114999D03*
X237749Y150999D03*
Y142999D03*
Y134999D03*
Y127000D03*
Y118999D03*
Y110999D03*
Y114999D03*
Y122999D03*
Y130999D03*
Y138999D03*
Y146999D03*
Y154999D03*
G54D27*
X267249Y132999D03*
G54D28*
X242499Y220999D03*
X253499D03*
G54D29*
X222749Y23749D03*
X307749D03*
G54D30*
X265249Y9549D03*
G54D31*
X190749Y175499D03*
Y153499D03*
X206749Y175499D03*
Y153499D03*
G54D44*
X497599Y142999D03*
Y361399D03*
X158499Y197499D03*
X70999Y585249D03*
X14999Y269999D03*
Y498599D03*
G54D45*
X497599Y168399D03*
Y193799D03*
Y219199D03*
Y244599D03*
Y269999D03*
Y295399D03*
Y320799D03*
X467999Y589999D03*
X497599Y412199D03*
Y589999D03*
Y564599D03*
Y539199D03*
Y513799D03*
Y488399D03*
Y462999D03*
Y437599D03*
Y386799D03*
X158499Y172099D03*
X70999Y559849D03*
X14999Y244599D03*
Y219199D03*
Y193799D03*
Y168399D03*
Y142999D03*
Y473199D03*
Y447799D03*
Y422399D03*
Y396999D03*
Y371599D03*
Y346199D03*
Y320799D03*
X184999Y563999D03*
Y589399D03*
X210399Y563999D03*
Y589399D03*
X235799Y563999D03*
Y589399D03*
X261199Y563999D03*
Y589399D03*
X286599Y563999D03*
Y589399D03*
X311999Y563999D03*
Y589399D03*
X337399Y563999D03*
G54D46*
X442599Y589999D03*
X337399Y589399D03*
G54D47*
X497599Y113249D03*
X14999Y528499D03*
X126899Y504499D03*
X152299D03*
G54D48*
X101499Y504499D03*
M02*