%FSTAX23Y23*%
%MOMM*%
%SFA1B1*%

%IPPOS*%
%ADD129C,0.127000*%
%ADD130C,0.169300*%
G54D129*
X43751Y58491D02*
Y59507D01*
X44767*
Y58491*
X43751*
X46291D02*
Y59507D01*
X47307*
Y58491*
X46291*
X10149Y49941D02*
X09641Y50957D01*
X10657*
X10149Y49941*
X12689D02*
X12181Y50957D01*
X13197*
X12689Y49941*
X15229D02*
X14721Y50957D01*
X15737*
X15229Y49941*
X06591Y55476D02*
Y56492D01*
X07607*
Y55476*
X06591*
Y58016D02*
Y59032D01*
X07607*
Y58016*
X06591*
X49251Y13791D02*
Y14807D01*
X50267*
Y13791*
X49251*
Y16331D02*
Y17347D01*
X50267*
Y16331*
X49251*
Y18871D02*
Y19887D01*
X50267*
Y18871*
X49251*
Y21411D02*
Y22427D01*
X50267*
Y21411*
X49251*
Y23951D02*
Y24967D01*
X50267*
Y23951*
X49251*
Y26491D02*
Y27507D01*
X50267*
Y26491*
X49251*
Y29031D02*
Y30047D01*
X50267*
Y29031*
X49251*
Y31571D02*
Y32587D01*
X50267*
Y31571*
X49251*
X00991Y26491D02*
Y27507D01*
X02007*
Y26491*
X00991*
Y23951D02*
Y24967D01*
X02007*
Y23951*
X00991*
Y21411D02*
Y22427D01*
X02007*
Y21411*
X00991*
Y18871D02*
Y19887D01*
X02007*
Y18871*
X00991*
Y16331D02*
Y17347D01*
X02007*
Y16331*
X00991*
Y13791D02*
Y14807D01*
X02007*
Y13791*
X00991*
X49251Y40711D02*
Y41727D01*
X50267*
Y40711*
X49251*
Y58491D02*
Y59507D01*
X50267*
Y58491*
X49251*
Y55951D02*
Y56967D01*
X50267*
Y55951*
X49251*
Y53411D02*
Y54427D01*
X50267*
Y53411*
X49251*
Y50871D02*
Y51887D01*
X50267*
Y50871*
X49251*
Y48331D02*
Y49347D01*
X50267*
Y48331*
X49251*
Y45791D02*
Y46807D01*
X50267*
Y45791*
X49251*
Y43251D02*
Y44267D01*
X50267*
Y43251*
X49251*
Y38171D02*
Y39187D01*
X50267*
Y38171*
X49251*
Y35631D02*
Y36647D01*
X50267*
Y35631*
X49251*
X00991Y49351D02*
Y50367D01*
X02007*
Y49351*
X00991*
Y46811D02*
Y47827D01*
X02007*
Y46811*
X00991*
Y44271D02*
Y45287D01*
X02007*
Y44271*
X00991*
Y41731D02*
Y42747D01*
X02007*
Y41731*
X00991*
Y39191D02*
Y40207D01*
X02007*
Y39191*
X00991*
Y36651D02*
Y37667D01*
X02007*
Y36651*
X00991*
Y34111D02*
Y35127D01*
X02007*
Y34111*
X00991*
Y31571D02*
Y32587D01*
X02007*
Y31571*
X00991*
X17991Y55891D02*
Y56907D01*
X19007*
Y55891*
X17991*
Y58431D02*
Y59447D01*
X19007*
Y58431*
X17991*
X20531Y55891D02*
Y56907D01*
X21547*
Y55891*
X20531*
Y58431D02*
Y59447D01*
X21547*
Y58431*
X20531*
X23071Y55891D02*
Y56907D01*
X24087*
Y55891*
X23071*
Y58431D02*
Y59447D01*
X24087*
Y58431*
X23071*
X25611Y55891D02*
Y56907D01*
X26627*
Y55891*
X25611*
Y58431D02*
Y59447D01*
X26627*
Y58431*
X25611*
X28151Y55891D02*
Y56907D01*
X29167*
Y55891*
X28151*
Y58431D02*
Y59447D01*
X29167*
Y58431*
X28151*
X30691Y55891D02*
Y56907D01*
X31707*
Y55891*
X30691*
Y58431D02*
Y59447D01*
X31707*
Y58431*
X30691*
X33231Y55891D02*
Y56907D01*
X34247*
Y55891*
X33231*
Y58431D02*
Y59447D01*
X34247*
Y58431*
X33231*
X05999Y25141D02*
X06253Y25395D01*
X06507*
X06253Y25649*
X06507Y25903*
X06253*
X05999Y26157*
X05745Y25903*
X05491*
X05745Y25649*
X05491Y25395*
X05745*
X05999Y25141*
X03899Y22491D02*
X04153Y22745D01*
X04407*
X04153Y22999*
X04407Y23253*
X04153*
X03899Y23507*
X03645Y23253*
X03391*
X03645Y22999*
X03391Y22745*
X03645*
X03899Y22491*
X23999Y19491D02*
X24253Y19745D01*
X24507*
X24253Y19999*
X24507Y20253*
X24253*
X23999Y20507*
X23745Y20253*
X23491*
X23745Y19999*
X23491Y19745*
X23745*
X23999Y19491*
X35499Y21391D02*
X35753Y21645D01*
X36007*
X35753Y21899*
X36007Y22153*
X35753*
X35499Y22407*
X35245Y22153*
X34991*
X35245Y21899*
X34991Y21645*
X35245*
X35499Y21391*
Y22391D02*
X35753Y22645D01*
X36007*
X35753Y22899*
X36007Y23153*
X35753*
X35499Y23407*
X35245Y23153*
X34991*
X35245Y22899*
X34991Y22645*
X35245*
X35499Y22391*
X35599Y24892D02*
X35853Y25146D01*
X36107*
X35853Y254*
X36107Y25654*
X35853*
X35599Y25908*
X35345Y25654*
X35091*
X35345Y254*
X35091Y25146*
X35345*
X35599Y24892*
X35499Y23591D02*
X35753Y23845D01*
X36007*
X35753Y24099*
X36007Y24353*
X35753*
X35499Y24607*
X35245Y24353*
X34991*
X35245Y24099*
X34991Y23845*
X35245*
X35499Y23591*
X36474Y52891D02*
X36728Y53145D01*
X36982*
X36728Y53399*
X36982Y53653*
X36728*
X36474Y53907*
X3622Y53653*
X35966*
X3622Y53399*
X35966Y53145*
X3622*
X36474Y52891*
X35499Y25991D02*
X35753Y26245D01*
X36007*
X35753Y26499*
X36007Y26753*
X35753*
X35499Y27007*
X35245Y26753*
X34991*
X35245Y26499*
X34991Y26245*
X35245*
X35499Y25991*
Y26991D02*
X35753Y27245D01*
X36007*
X35753Y27499*
X36007Y27753*
X35753*
X35499Y28007*
X35245Y27753*
X34991*
X35245Y27499*
X34991Y27245*
X35245*
X35499Y26991*
Y28091D02*
X35753Y28345D01*
X36007*
X35753Y28599*
X36007Y28853*
X35753*
X35499Y29107*
X35245Y28853*
X34991*
X35245Y28599*
X34991Y28345*
X35245*
X35499Y28091*
X41899Y52891D02*
X42153Y53145D01*
X42407*
X42153Y53399*
X42407Y53653*
X42153*
X41899Y53907*
X41645Y53653*
X41391*
X41645Y53399*
X41391Y53145*
X41645*
X41899Y52891*
X40091D02*
X40345Y53145D01*
X40599*
X40345Y53399*
X40599Y53653*
X40345*
X40091Y53907*
X39837Y53653*
X39583*
X39837Y53399*
X39583Y53145*
X39837*
X40091Y52891*
X38283D02*
X38537Y53145D01*
X38791*
X38537Y53399*
X38791Y53653*
X38537*
X38283Y53907*
X38029Y53653*
X37775*
X38029Y53399*
X37775Y53145*
X38029*
X38283Y52891*
X26599Y25491D02*
X26853Y25745D01*
X27107*
X26853Y25999*
X27107Y26253*
X26853*
X26599Y26507*
X26345Y26253*
X26091*
X26345Y25999*
X26091Y25745*
X26345*
X26599Y25491*
Y24391D02*
X26853Y24645D01*
X27107*
X26853Y24899*
X27107Y25153*
X26853*
X26599Y25407*
X26345Y25153*
X26091*
X26345Y24899*
X26091Y24645*
X26345*
X26599Y24391*
X10899Y17391D02*
X11153Y17645D01*
X11407*
X11153Y17899*
X11407Y18153*
X11153*
X10899Y18407*
X10645Y18153*
X10391*
X10645Y17899*
X10391Y17645*
X10645*
X10899Y17391*
X44599Y42191D02*
X44853Y42445D01*
X45107*
X44853Y42699*
X45107Y42953*
X44853*
X44599Y43207*
X44345Y42953*
X44091*
X44345Y42699*
X44091Y42445*
X44345*
X44599Y42191*
X44799Y40791D02*
X45053Y41045D01*
X45307*
X45053Y41299*
X45307Y41553*
X45053*
X44799Y41807*
X44545Y41553*
X44291*
X44545Y41299*
X44291Y41045*
X44545*
X44799Y40791*
X28499Y24491D02*
X28753Y24745D01*
X29007*
X28753Y24999*
X29007Y25253*
X28753*
X28499Y25507*
X28245Y25253*
X27991*
X28245Y24999*
X27991Y24745*
X28245*
X28499Y24491*
X27999Y25491D02*
X28253Y25745D01*
X28507*
X28253Y25999*
X28507Y26253*
X28253*
X27999Y26507*
X27745Y26253*
X27491*
X27745Y25999*
X27491Y25745*
X27745*
X27999Y25491*
X07399Y18191D02*
X07653Y18445D01*
X07907*
X07653Y18699*
X07907Y18953*
X07653*
X07399Y19207*
X07145Y18953*
X06891*
X07145Y18699*
X06891Y18445*
X07145*
X07399Y18191*
X06399Y17391D02*
X06653Y17645D01*
X06907*
X06653Y17899*
X06907Y18153*
X06653*
X06399Y18407*
X06145Y18153*
X05891*
X06145Y17899*
X05891Y17645*
X06145*
X06399Y17391*
X05499Y16291D02*
X05753Y16545D01*
X06007*
X05753Y16799*
X06007Y17053*
X05753*
X05499Y17307*
X05245Y17053*
X04991*
X05245Y16799*
X04991Y16545*
X05245*
X05499Y16291*
X04999Y08591D02*
X05253Y08845D01*
X05507*
X05253Y09099*
X05507Y09353*
X05253*
X04999Y09607*
X04745Y09353*
X04491*
X04745Y09099*
X04491Y08845*
X04745*
X04999Y08591*
Y07191D02*
X05253Y07445D01*
X05507*
X05253Y07699*
X05507Y07953*
X05253*
X04999Y08207*
X04745Y07953*
X04491*
X04745Y07699*
X04491Y07445*
X04745*
X04999Y07191*
X44499Y43491D02*
X44753Y43745D01*
X45007*
X44753Y43999*
X45007Y44253*
X44753*
X44499Y44507*
X44245Y44253*
X43991*
X44245Y43999*
X43991Y43745*
X44245*
X44499Y43491*
X04999Y05816D02*
X05253Y0607D01*
X05507*
X05253Y06324*
X05507Y06578*
X05253*
X04999Y06832*
X04745Y06578*
X04491*
X04745Y06324*
X04491Y0607*
X04745*
X04999Y05816*
X26699Y21591D02*
X26953Y21845D01*
X27207*
X26953Y22099*
X27207Y22353*
X26953*
X26699Y22607*
X26445Y22353*
X26191*
X26445Y22099*
X26191Y21845*
X26445*
X26699Y21591*
X09699Y17391D02*
X09953Y17645D01*
X10207*
X09953Y17899*
X10207Y18153*
X09953*
X09699Y18407*
X09445Y18153*
X09191*
X09445Y17899*
X09191Y17645*
X09445*
X09699Y17391*
X04999Y02991D02*
X05253Y03245D01*
X05507*
X05253Y03499*
X05507Y03753*
X05253*
X04999Y04007*
X04745Y03753*
X04491*
X04745Y03499*
X04491Y03245*
X04745*
X04999Y02991*
X48399Y48191D02*
X48653Y48445D01*
X48907*
X48653Y48699*
X48907Y48953*
X48653*
X48399Y49207*
X48145Y48953*
X47891*
X48145Y48699*
X47891Y48445*
X48145*
X48399Y48191*
X43199Y48291D02*
X43453Y48545D01*
X43707*
X43453Y48799*
X43707Y49053*
X43453*
X43199Y49307*
X42945Y49053*
X42691*
X42945Y48799*
X42691Y48545*
X42945*
X43199Y48291*
X29999Y09891D02*
X30253Y10145D01*
X30507*
X30253Y10399*
X30507Y10653*
X30253*
X29999Y10907*
X29745Y10653*
X29491*
X29745Y10399*
X29491Y10145*
X29745*
X29999Y09891*
X29499Y08991D02*
X29753Y09245D01*
X30007*
X29753Y09499*
X30007Y09753*
X29753*
X29499Y10007*
X29245Y09753*
X28991*
X29245Y09499*
X28991Y09245*
X29245*
X29499Y08991*
X32599Y09091D02*
X32853Y09345D01*
X33107*
X32853Y09599*
X33107Y09853*
X32853*
X32599Y10107*
X32345Y09853*
X32091*
X32345Y09599*
X32091Y09345*
X32345*
X32599Y09091*
X32512Y13191D02*
X32766Y13445D01*
X3302*
X32766Y13699*
X3302Y13953*
X32766*
X32512Y14207*
X32258Y13953*
X32004*
X32258Y13699*
X32004Y13445*
X32258*
X32512Y13191*
X21374Y18366D02*
X21628Y1862D01*
X21882*
X21628Y18874*
X21882Y19128*
X21628*
X21374Y19382*
X2112Y19128*
X20866*
X2112Y18874*
X20866Y1862*
X2112*
X21374Y18366*
X24249Y17666D02*
X24503Y1792D01*
X24757*
X24503Y18174*
X24757Y18428*
X24503*
X24249Y18682*
X23995Y18428*
X23741*
X23995Y18174*
X23741Y1792*
X23995*
X24249Y17666*
X26199Y20566D02*
X26453Y2082D01*
X26707*
X26453Y21074*
X26707Y21328*
X26453*
X26199Y21582*
X25945Y21328*
X25691*
X25945Y21074*
X25691Y2082*
X25945*
X26199Y20566*
X32624Y04441D02*
X32878Y04695D01*
X33132*
X32878Y04949*
X33132Y05203*
X32878*
X32624Y05457*
X3237Y05203*
X32116*
X3237Y04949*
X32116Y04695*
X3237*
X32624Y04441*
X3142Y05741D02*
X31674Y05995D01*
X31928*
X31674Y06249*
X31928Y06503*
X31674*
X3142Y06757*
X31166Y06503*
X30912*
X31166Y06249*
X30912Y05995*
X31166*
X3142Y05741*
X34474Y07641D02*
X34728Y07895D01*
X34982*
X34728Y08149*
X34982Y08403*
X34728*
X34474Y08657*
X3422Y08403*
X33966*
X3422Y08149*
X33966Y07895*
X3422*
X34474Y07641*
X26724Y17091D02*
X26978Y17345D01*
X27232*
X26978Y17599*
X27232Y17853*
X26978*
X26724Y18107*
X2647Y17853*
X26216*
X2647Y17599*
X26216Y17345*
X2647*
X26724Y17091*
X23174Y21566D02*
X23428Y2182D01*
X23682*
X23428Y22074*
X23682Y22328*
X23428*
X23174Y22582*
X2292Y22328*
X22666*
X2292Y22074*
X22666Y2182*
X2292*
X23174Y21566*
X15374Y12416D02*
X15628Y1267D01*
X15882*
X15628Y12924*
X15882Y13178*
X15628*
X15374Y13432*
X1512Y13178*
X14866*
X1512Y12924*
X14866Y1267*
X1512*
X15374Y12416*
X32574Y12041D02*
X32828Y12295D01*
X33082*
X32828Y12549*
X33082Y12803*
X32828*
X32574Y13057*
X3232Y12803*
X32066*
X3232Y12549*
X32066Y12295*
X3232*
X32574Y12041*
X30399Y08991D02*
X30653Y09245D01*
X30907*
X30653Y09499*
X30907Y09753*
X30653*
X30399Y10007*
X30145Y09753*
X29891*
X30145Y09499*
X29891Y09245*
X30145*
X30399Y08991*
X34374Y12641D02*
X34628Y12895D01*
X34882*
X34628Y13149*
X34882Y13403*
X34628*
X34374Y13657*
X3412Y13403*
X33866*
X3412Y13149*
X33866Y12895*
X3412*
X34374Y12641*
X25474Y12791D02*
X25728Y13045D01*
X25982*
X25728Y13299*
X25982Y13553*
X25728*
X25474Y13807*
X2522Y13553*
X24966*
X2522Y13299*
X24966Y13045*
X2522*
X25474Y12791*
X26674Y13991D02*
X26928Y14245D01*
X27182*
X26928Y14499*
X27182Y14753*
X26928*
X26674Y15007*
X2642Y14753*
X26166*
X2642Y14499*
X26166Y14245*
X2642*
X26674Y13991*
X27874D02*
X28128Y14245D01*
X28382*
X28128Y14499*
X28382Y14753*
X28128*
X27874Y15007*
X2762Y14753*
X27366*
X2762Y14499*
X27366Y14245*
X2762*
X27874Y13991*
X26674Y12791D02*
X26928Y13045D01*
X27182*
X26928Y13299*
X27182Y13553*
X26928*
X26674Y13807*
X2642Y13553*
X26166*
X2642Y13299*
X26166Y13045*
X2642*
X26674Y12791*
X25474Y13991D02*
X25728Y14245D01*
X25982*
X25728Y14499*
X25982Y14753*
X25728*
X25474Y15007*
X2522Y14753*
X24966*
X2522Y14499*
X24966Y14245*
X2522*
X25474Y13991*
X27974Y12791D02*
X28228Y13045D01*
X28482*
X28228Y13299*
X28482Y13553*
X28228*
X27974Y13807*
X2772Y13553*
X27466*
X2772Y13299*
X27466Y13045*
X2772*
X27974Y12791*
X27874Y11591D02*
X28128Y11845D01*
X28382*
X28128Y12099*
X28382Y12353*
X28128*
X27874Y12607*
X2762Y12353*
X27366*
X2762Y12099*
X27366Y11845*
X2762*
X27874Y11591*
X36324Y12141D02*
X36578Y12395D01*
X36832*
X36578Y12649*
X36832Y12903*
X36578*
X36324Y13157*
X3607Y12903*
X35816*
X3607Y12649*
X35816Y12395*
X3607*
X36324Y12141*
X22424Y18641D02*
X22678Y18895D01*
X22932*
X22678Y19149*
X22932Y19403*
X22678*
X22424Y19657*
X2217Y19403*
X21916*
X2217Y19149*
X21916Y18895*
X2217*
X22424Y18641*
X22624Y17491D02*
X22878Y17745D01*
X23132*
X22878Y17999*
X23132Y18253*
X22878*
X22624Y18507*
X2237Y18253*
X22116*
X2237Y17999*
X22116Y17745*
X2237*
X22624Y17491*
X39624Y10191D02*
X39878Y10445D01*
X40132*
X39878Y10699*
X40132Y10953*
X39878*
X39624Y11207*
X3937Y10953*
X39116*
X3937Y10699*
X39116Y10445*
X3937*
X39624Y10191*
X32174Y09866D02*
X32428Y1012D01*
X32682*
X32428Y10374*
X32682Y10628*
X32428*
X32174Y10882*
X3192Y10628*
X31666*
X3192Y10374*
X31666Y1012*
X3192*
X32174Y09866*
X27799Y07316D02*
X28053Y0757D01*
X28307*
X28053Y07824*
X28307Y08078*
X28053*
X27799Y08332*
X27545Y08078*
X27291*
X27545Y07824*
X27291Y0757*
X27545*
X27799Y07316*
X18374Y10541D02*
X18628Y10795D01*
X18882*
X18628Y11049*
X18882Y11303*
X18628*
X18374Y11557*
X1812Y11303*
X17866*
X1812Y11049*
X17866Y10795*
X1812*
X18374Y10541*
X19249Y12091D02*
X19503Y12345D01*
X19757*
X19503Y12599*
X19757Y12853*
X19503*
X19249Y13107*
X18995Y12853*
X18741*
X18995Y12599*
X18741Y12345*
X18995*
X19249Y12091*
Y13091D02*
X19503Y13345D01*
X19757*
X19503Y13599*
X19757Y13853*
X19503*
X19249Y14107*
X18995Y13853*
X18741*
X18995Y13599*
X18741Y13345*
X18995*
X19249Y13091*
X18999Y18316D02*
X19253Y1857D01*
X19507*
X19253Y18824*
X19507Y19078*
X19253*
X18999Y19332*
X18745Y19078*
X18491*
X18745Y18824*
X18491Y1857*
X18745*
X18999Y18316*
X21924Y14541D02*
X22178Y14795D01*
X22432*
X22178Y15049*
X22432Y15303*
X22178*
X21924Y15557*
X2167Y15303*
X21416*
X2167Y15049*
X21416Y14795*
X2167*
X21924Y14541*
X21999Y13216D02*
X22253Y1347D01*
X22507*
X22253Y13724*
X22507Y13978*
X22253*
X21999Y14232*
X21745Y13978*
X21491*
X21745Y13724*
X21491Y1347*
X21745*
X21999Y13216*
X22774Y08941D02*
X23028Y09195D01*
X23282*
X23028Y09449*
X23282Y09703*
X23028*
X22774Y09957*
X2252Y09703*
X22266*
X2252Y09449*
X22266Y09195*
X2252*
X22774Y08941*
X23674Y07266D02*
X23928Y0752D01*
X24182*
X23928Y07774*
X24182Y08028*
X23928*
X23674Y08282*
X2342Y08028*
X23166*
X2342Y07774*
X23166Y0752*
X2342*
X23674Y07266*
X25474Y11591D02*
X25728Y11845D01*
X25982*
X25728Y12099*
X25982Y12353*
X25728*
X25474Y12607*
X2522Y12353*
X24966*
X2522Y12099*
X24966Y11845*
X2522*
X25474Y11591*
X26674D02*
X26928Y11845D01*
X27182*
X26928Y12099*
X27182Y12353*
X26928*
X26674Y12607*
X2642Y12353*
X26166*
X2642Y12099*
X26166Y11845*
X2642*
X26674Y11591*
X28699Y05716D02*
X28953Y0597D01*
X29207*
X28953Y06224*
X29207Y06478*
X28953*
X28699Y06732*
X28445Y06478*
X28191*
X28445Y06224*
X28191Y0597*
X28445*
X28699Y05716*
X30499D02*
X30753Y0597D01*
X31007*
X30753Y06224*
X31007Y06478*
X30753*
X30499Y06732*
X30245Y06478*
X29991*
X30245Y06224*
X29991Y0597*
X30245*
X30499Y05716*
X29624D02*
X29878Y0597D01*
X30132*
X29878Y06224*
X30132Y06478*
X29878*
X29624Y06732*
X2937Y06478*
X29116*
X2937Y06224*
X29116Y0597*
X2937*
X29624Y05716*
X31349Y07366D02*
X31603Y0762D01*
X31857*
X31603Y07874*
X31857Y08128*
X31603*
X31349Y08382*
X31095Y08128*
X30841*
X31095Y07874*
X30841Y0762*
X31095*
X31349Y07366*
X26799Y18341D02*
X27053Y18595D01*
X27307*
X27053Y18849*
X27307Y19103*
X27053*
X26799Y19357*
X26545Y19103*
X26291*
X26545Y18849*
X26291Y18595*
X26545*
X26799Y18341*
X40349Y06866D02*
X40603Y0712D01*
X40857*
X40603Y07374*
X40857Y07628*
X40603*
X40349Y07882*
X40095Y07628*
X39841*
X40095Y07374*
X39841Y0712*
X40095*
X40349Y06866*
X24249Y05616D02*
X24503Y0587D01*
X24757*
X24503Y06124*
X24757Y06378*
X24503*
X24249Y06632*
X23995Y06378*
X23741*
X23995Y06124*
X23741Y0587*
X23995*
X24249Y05616*
X27599D02*
X27853Y0587D01*
X28107*
X27853Y06124*
X28107Y06378*
X27853*
X27599Y06632*
X27345Y06378*
X27091*
X27345Y06124*
X27091Y0587*
X27345*
X27599Y05616*
X34374Y13691D02*
X34628Y13945D01*
X34882*
X34628Y14199*
X34882Y14453*
X34628*
X34374Y14707*
X3412Y14453*
X33866*
X3412Y14199*
X33866Y13945*
X3412*
X34374Y13691*
X30699Y13241D02*
X30953Y13495D01*
X31207*
X30953Y13749*
X31207Y14003*
X30953*
X30699Y14257*
X30445Y14003*
X30191*
X30445Y13749*
X30191Y13495*
X30445*
X30699Y13241*
X31999Y01108D02*
X32253Y01362D01*
X32507*
X32253Y01616*
X32507Y0187*
X32253*
X31999Y02124*
X31745Y0187*
X31491*
X31745Y01616*
X31491Y01362*
X31745*
X31999Y01108*
Y00041D02*
X32253Y00295D01*
X32507*
X32253Y00549*
X32507Y00803*
X32253*
X31999Y01057*
X31745Y00803*
X31491*
X31745Y00549*
X31491Y00295*
X31745*
X31999Y00041*
Y02175D02*
X32253Y02429D01*
X32507*
X32253Y02683*
X32507Y02937*
X32253*
X31999Y03191*
X31745Y02937*
X31491*
X31745Y02683*
X31491Y02429*
X31745*
X31999Y02175*
X28874Y01058D02*
X29128Y01312D01*
X29382*
X29128Y01566*
X29382Y0182*
X29128*
X28874Y02074*
X2862Y0182*
X28366*
X2862Y01566*
X28366Y01312*
X2862*
X28874Y01058*
Y-00007D02*
X29128Y00245D01*
X29382*
X29128Y00499*
X29382Y00753*
X29128*
X28874Y01007*
X2862Y00753*
X28366*
X2862Y00499*
X28366Y00245*
X2862*
X28874Y-00007*
X28849Y02125D02*
X29103Y02379D01*
X29357*
X29103Y02633*
X29357Y02887*
X29103*
X28849Y03141*
X28595Y02887*
X28341*
X28595Y02633*
X28341Y02379*
X28595*
X28849Y02125*
Y03191D02*
X29103Y03445D01*
X29357*
X29103Y03699*
X29357Y03953*
X29103*
X28849Y04207*
X28595Y03953*
X28341*
X28595Y03699*
X28341Y03445*
X28595*
X28849Y03191*
X29849Y01033D02*
X30103Y01287D01*
X30357*
X30103Y01541*
X30357Y01795*
X30103*
X29849Y02049*
X29595Y01795*
X29341*
X29595Y01541*
X29341Y01287*
X29595*
X29849Y01033*
Y-00032D02*
X30103Y0022D01*
X30357*
X30103Y00474*
X30357Y00728*
X30103*
X29849Y00982*
X29595Y00728*
X29341*
X29595Y00474*
X29341Y0022*
X29595*
X29849Y-00032*
X29824Y021D02*
X30078Y02354D01*
X30332*
X30078Y02608*
X30332Y02862*
X30078*
X29824Y03116*
X2957Y02862*
X29316*
X2957Y02608*
X29316Y02354*
X2957*
X29824Y021*
Y03166D02*
X30078Y0342D01*
X30332*
X30078Y03674*
X30332Y03928*
X30078*
X29824Y04182*
X2957Y03928*
X29316*
X2957Y03674*
X29316Y0342*
X2957*
X29824Y03166*
X34274Y01183D02*
X34528Y01437D01*
X34782*
X34528Y01691*
X34782Y01945*
X34528*
X34274Y02199*
X3402Y01945*
X33766*
X3402Y01691*
X33766Y01437*
X3402*
X34274Y01183*
X36549Y00116D02*
X36803Y0037D01*
X37057*
X36803Y00624*
X37057Y00878*
X36803*
X36549Y01132*
X36295Y00878*
X36041*
X36295Y00624*
X36041Y0037*
X36295*
X36549Y00116*
X34581Y04441D02*
X34835Y04695D01*
X35089*
X34835Y04949*
X35089Y05203*
X34835*
X34581Y05457*
X34327Y05203*
X34073*
X34327Y04949*
X34073Y04695*
X34327*
X34581Y04441*
X35699D02*
X35953Y04695D01*
X36207*
X35953Y04949*
X36207Y05203*
X35953*
X35699Y05457*
X35445Y05203*
X35191*
X35445Y04949*
X35191Y04695*
X35445*
X35699Y04441*
X24399Y01133D02*
X24653Y01387D01*
X24907*
X24653Y01641*
X24907Y01895*
X24653*
X24399Y02149*
X24145Y01895*
X23891*
X24145Y01641*
X23891Y01387*
X24145*
X24399Y01133*
Y00066D02*
X24653Y0032D01*
X24907*
X24653Y00574*
X24907Y00828*
X24653*
X24399Y01082*
X24145Y00828*
X23891*
X24145Y00574*
X23891Y0032*
X24145*
X24399Y00066*
X24374Y022D02*
X24628Y02454D01*
X24882*
X24628Y02708*
X24882Y02962*
X24628*
X24374Y03216*
X2412Y02962*
X23866*
X2412Y02708*
X23866Y02454*
X2412*
X24374Y022*
Y03266D02*
X24628Y0352D01*
X24882*
X24628Y03774*
X24882Y04028*
X24628*
X24374Y04282*
X2412Y04028*
X23866*
X2412Y03774*
X23866Y0352*
X2412*
X24374Y03266*
X23424Y01108D02*
X23678Y01362D01*
X23932*
X23678Y01616*
X23932Y0187*
X23678*
X23424Y02124*
X2317Y0187*
X22916*
X2317Y01616*
X22916Y01362*
X2317*
X23424Y01108*
Y00041D02*
X23678Y00295D01*
X23932*
X23678Y00549*
X23932Y00803*
X23678*
X23424Y01057*
X2317Y00803*
X22916*
X2317Y00549*
X22916Y00295*
X2317*
X23424Y00041*
X23399Y02175D02*
X23653Y02429D01*
X23907*
X23653Y02683*
X23907Y02937*
X23653*
X23399Y03191*
X23145Y02937*
X22891*
X23145Y02683*
X22891Y02429*
X23145*
X23399Y02175*
Y03241D02*
X23653Y03495D01*
X23907*
X23653Y03749*
X23907Y04003*
X23653*
X23399Y04257*
X23145Y04003*
X22891*
X23145Y03749*
X22891Y03495*
X23145*
X23399Y03241*
X20149Y01283D02*
X20403Y01537D01*
X20657*
X20403Y01791*
X20657Y02045*
X20403*
X20149Y02299*
X19895Y02045*
X19641*
X19895Y01791*
X19641Y01537*
X19895*
X20149Y01283*
Y00216D02*
X20403Y0047D01*
X20657*
X20403Y00724*
X20657Y00978*
X20403*
X20149Y01232*
X19895Y00978*
X19641*
X19895Y00724*
X19641Y0047*
X19895*
X20149Y00216*
X20124Y0235D02*
X20378Y02604D01*
X20632*
X20378Y02858*
X20632Y03112*
X20378*
X20124Y03366*
X1987Y03112*
X19616*
X1987Y02858*
X19616Y02604*
X1987*
X20124Y0235*
Y03416D02*
X20378Y0367D01*
X20632*
X20378Y03924*
X20632Y04178*
X20378*
X20124Y04432*
X1987Y04178*
X19616*
X1987Y03924*
X19616Y0367*
X1987*
X20124Y03416*
X18274Y01333D02*
X18528Y01587D01*
X18782*
X18528Y01841*
X18782Y02095*
X18528*
X18274Y02349*
X1802Y02095*
X17766*
X1802Y01841*
X17766Y01587*
X1802*
X18274Y01333*
Y00266D02*
X18528Y0052D01*
X18782*
X18528Y00774*
X18782Y01028*
X18528*
X18274Y01282*
X1802Y01028*
X17766*
X1802Y00774*
X17766Y0052*
X1802*
X18274Y00266*
X18249Y024D02*
X18503Y02654D01*
X18757*
X18503Y02908*
X18757Y03162*
X18503*
X18249Y03416*
X17995Y03162*
X17741*
X17995Y02908*
X17741Y02654*
X17995*
X18249Y024*
Y03466D02*
X18503Y0372D01*
X18757*
X18503Y03974*
X18757Y04228*
X18503*
X18249Y04482*
X17995Y04228*
X17741*
X17995Y03974*
X17741Y0372*
X17995*
X18249Y03466*
X18324Y05433D02*
X18578Y05687D01*
X18832*
X18578Y05941*
X18832Y06195*
X18578*
X18324Y06449*
X1807Y06195*
X17816*
X1807Y05941*
X17816Y05687*
X1807*
X18324Y05433*
Y04366D02*
X18578Y0462D01*
X18832*
X18578Y04874*
X18832Y05128*
X18578*
X18324Y05382*
X1807Y05128*
X17816*
X1807Y04874*
X17816Y0462*
X1807*
X18324Y04366*
X18299Y065D02*
X18553Y06754D01*
X18807*
X18553Y07008*
X18807Y07262*
X18553*
X18299Y07516*
X18045Y07262*
X17791*
X18045Y07008*
X17791Y06754*
X18045*
X18299Y065*
Y07566D02*
X18553Y0782D01*
X18807*
X18553Y08074*
X18807Y08328*
X18553*
X18299Y08582*
X18045Y08328*
X17791*
X18045Y08074*
X17791Y0782*
X18045*
X18299Y07566*
X20174Y05408D02*
X20428Y05662D01*
X20682*
X20428Y05916*
X20682Y0617*
X20428*
X20174Y06424*
X1992Y0617*
X19666*
X1992Y05916*
X19666Y05662*
X1992*
X20174Y05408*
Y04341D02*
X20428Y04595D01*
X20682*
X20428Y04849*
X20682Y05103*
X20428*
X20174Y05357*
X1992Y05103*
X19666*
X1992Y04849*
X19666Y04595*
X1992*
X20174Y04341*
X20149Y06475D02*
X20403Y06729D01*
X20657*
X20403Y06983*
X20657Y07237*
X20403*
X20149Y07491*
X19895Y07237*
X19641*
X19895Y06983*
X19641Y06729*
X19895*
X20149Y06475*
Y07541D02*
X20403Y07795D01*
X20657*
X20403Y08049*
X20657Y08303*
X20403*
X20149Y08557*
X19895Y08303*
X19641*
X19895Y08049*
X19641Y07795*
X19895*
X20149Y07541*
X22399Y05458D02*
X22653Y05712D01*
X22907*
X22653Y05966*
X22907Y0622*
X22653*
X22399Y06474*
X22145Y0622*
X21891*
X22145Y05966*
X21891Y05712*
X22145*
X22399Y05458*
Y04391D02*
X22653Y04645D01*
X22907*
X22653Y04899*
X22907Y05153*
X22653*
X22399Y05407*
X22145Y05153*
X21891*
X22145Y04899*
X21891Y04645*
X22145*
X22399Y04391*
X22374Y06525D02*
X22628Y06779D01*
X22882*
X22628Y07033*
X22882Y07287*
X22628*
X22374Y07541*
X2212Y07287*
X21866*
X2212Y07033*
X21866Y06779*
X2212*
X22374Y06525*
Y07591D02*
X22628Y07845D01*
X22882*
X22628Y08099*
X22882Y08353*
X22628*
X22374Y08607*
X2212Y08353*
X21866*
X2212Y08099*
X21866Y07845*
X2212*
X22374Y07591*
X30109Y04441D02*
X30363Y04695D01*
X30617*
X30363Y04949*
X30617Y05203*
X30363*
X30109Y05457*
X29855Y05203*
X29601*
X29855Y04949*
X29601Y04695*
X29855*
X30109Y04441*
X28991D02*
X29245Y04695D01*
X29499*
X29245Y04949*
X29499Y05203*
X29245*
X28991Y05457*
X28737Y05203*
X28483*
X28737Y04949*
X28483Y04695*
X28737*
X28991Y04441*
X36549Y0225D02*
X36803Y02504D01*
X37057*
X36803Y02758*
X37057Y03012*
X36803*
X36549Y03266*
X36295Y03012*
X36041*
X36295Y02758*
X36041Y02504*
X36295*
X36549Y0225*
X34274D02*
X34528Y02504D01*
X34782*
X34528Y02758*
X34782Y03012*
X34528*
X34274Y03266*
X3402Y03012*
X33766*
X3402Y02758*
X33766Y02504*
X3402*
X34274Y0225*
Y03316D02*
X34528Y0357D01*
X34782*
X34528Y03824*
X34782Y04078*
X34528*
X34274Y04332*
X3402Y04078*
X33766*
X3402Y03824*
X33766Y0357*
X3402*
X34274Y03316*
X36549D02*
X36803Y0357D01*
X37057*
X36803Y03824*
X37057Y04078*
X36803*
X36549Y04332*
X36295Y04078*
X36041*
X36295Y03824*
X36041Y0357*
X36295*
X36549Y03316*
X34274Y00116D02*
X34528Y0037D01*
X34782*
X34528Y00624*
X34782Y00878*
X34528*
X34274Y01132*
X3402Y00878*
X33766*
X3402Y00624*
X33766Y0037*
X3402*
X34274Y00116*
X36549Y01183D02*
X36803Y01437D01*
X37057*
X36803Y01691*
X37057Y01945*
X36803*
X36549Y02199*
X36295Y01945*
X36041*
X36295Y01691*
X36041Y01437*
X36295*
X36549Y01183*
X31999Y03241D02*
X32253Y03495D01*
X32507*
X32253Y03749*
X32507Y04003*
X32253*
X31999Y04257*
X31745Y04003*
X31491*
X31745Y03749*
X31491Y03495*
X31745*
X31999Y03241*
X04999Y01566D02*
X05253Y0182D01*
X05507*
X05253Y02074*
X05507Y02328*
X05253*
X04999Y02582*
X04745Y02328*
X04491*
X04745Y02074*
X04491Y0182*
X04745*
X04999Y01566*
X05024Y00191D02*
X05278Y00445D01*
X05532*
X05278Y00699*
X05532Y00953*
X05278*
X05024Y01207*
X0477Y00953*
X04516*
X0477Y00699*
X04516Y00445*
X0477*
X05024Y00191*
X04999Y04441D02*
X05253Y04695D01*
X05507*
X05253Y04949*
X05507Y05203*
X05253*
X04999Y05457*
X04745Y05203*
X04491*
X04745Y04949*
X04491Y04695*
X04745*
X04999Y04441*
X12899Y08591D02*
X13153Y08845D01*
X13407*
X13153Y09099*
X13407Y09353*
X13153*
X12899Y09607*
X12645Y09353*
X12391*
X12645Y09099*
X12391Y08845*
X12645*
X12899Y08591*
X12874Y07166D02*
X13128Y0742D01*
X13382*
X13128Y07674*
X13382Y07928*
X13128*
X12874Y08182*
X1262Y07928*
X12366*
X1262Y07674*
X12366Y0742*
X1262*
X12874Y07166*
Y05766D02*
X13128Y0602D01*
X13382*
X13128Y06274*
X13382Y06528*
X13128*
X12874Y06782*
X1262Y06528*
X12366*
X1262Y06274*
X12366Y0602*
X1262*
X12874Y05766*
Y10066D02*
X13128Y1032D01*
X13382*
X13128Y10574*
X13382Y10828*
X13128*
X12874Y11082*
X1262Y10828*
X12366*
X1262Y10574*
X12366Y1032*
X1262*
X12874Y10066*
Y01566D02*
X13128Y0182D01*
X13382*
X13128Y02074*
X13382Y02328*
X13128*
X12874Y02582*
X1262Y02328*
X12366*
X1262Y02074*
X12366Y0182*
X1262*
X12874Y01566*
X04099Y15441D02*
X04353Y15695D01*
X04607*
X04353Y15949*
X04607Y16203*
X04353*
X04099Y16457*
X03845Y16203*
X03591*
X03845Y15949*
X03591Y15695*
X03845*
X04099Y15441*
X17424Y08666D02*
X17678Y0892D01*
X17932*
X17678Y09174*
X17932Y09428*
X17678*
X17424Y09682*
X1717Y09428*
X16916*
X1717Y09174*
X16916Y0892*
X1717*
X17424Y08666*
G54D130*
X50267Y11324D02*
D01*
X50266Y1136*
X50263Y11395*
X50256Y1143*
X50248Y11465*
X50237Y11498*
X50224Y11531*
X50208Y11563*
X5019Y11594*
X5017Y11623*
X50149Y11651*
X50125Y11677*
X50099Y11702*
X50072Y11725*
X50044Y11746*
X50013Y11764*
X49982Y11781*
X4995Y11795*
X49916Y11808*
X49882Y11817*
X49848Y11825*
X49813Y1183*
X49777Y11832*
X49742*
X49706Y1183*
X49671Y11825*
X49637Y11817*
X49602Y11808*
X49569Y11795*
X49537Y11781*
X49505Y11764*
X49475Y11746*
X49447Y11725*
X4942Y11702*
X49394Y11677*
X4937Y11651*
X49348Y11623*
X49329Y11594*
X49311Y11563*
X49295Y11531*
X49282Y11498*
X49271Y11465*
X49263Y1143*
X49256Y11395*
X49253Y1136*
X49251Y11324*
X49253Y11289*
X49256Y11254*
X49263Y11219*
X49271Y11184*
X49282Y11151*
X49295Y11118*
X49311Y11086*
X49329Y11055*
X49348Y11026*
X4937Y10998*
X49394Y10972*
X4942Y10947*
X49447Y10924*
X49475Y10903*
X49505Y10885*
X49537Y10868*
X49569Y10853*
X49602Y10841*
X49637Y10832*
X49671Y10824*
X49706Y10819*
X49742Y10817*
X49777*
X49813Y10819*
X49848Y10824*
X49882Y10832*
X49916Y10841*
X4995Y10853*
X49982Y10868*
X50013Y10885*
X50044Y10903*
X50072Y10924*
X50099Y10947*
X50125Y10972*
X50149Y10998*
X5017Y11026*
X5019Y11055*
X50208Y11086*
X50224Y11118*
X50237Y11151*
X50248Y11184*
X50256Y11219*
X50263Y11254*
X50266Y11289*
X50267Y11324*
X02007Y52849D02*
D01*
X02006Y52885*
X02003Y5292*
X01996Y52955*
X01988Y5299*
X01977Y53023*
X01964Y53056*
X01948Y53088*
X0193Y53119*
X0191Y53148*
X01889Y53176*
X01865Y53202*
X01839Y53227*
X01812Y5325*
X01784Y53271*
X01753Y53289*
X01722Y53306*
X0169Y53321*
X01656Y53333*
X01622Y53342*
X01588Y5335*
X01553Y53355*
X01517Y53357*
X01482*
X01446Y53355*
X01411Y5335*
X01377Y53342*
X01342Y53333*
X01309Y53321*
X01277Y53306*
X01245Y53289*
X01215Y53271*
X01187Y5325*
X0116Y53227*
X01134Y53202*
X0111Y53176*
X01088Y53148*
X01069Y53119*
X01051Y53088*
X01035Y53056*
X01022Y53023*
X01011Y5299*
X01003Y52955*
X00996Y5292*
X00993Y52885*
X00991Y52849*
X00993Y52814*
X00996Y52779*
X01003Y52744*
X01011Y52709*
X01022Y52676*
X01035Y52643*
X01051Y52611*
X01069Y5258*
X01088Y52551*
X0111Y52523*
X01134Y52497*
X0116Y52472*
X01187Y52449*
X01215Y52428*
X01245Y5241*
X01277Y52393*
X01309Y52378*
X01342Y52366*
X01377Y52357*
X01411Y52349*
X01446Y52344*
X01482Y52342*
X01517*
X01553Y52344*
X01588Y52349*
X01622Y52357*
X01656Y52366*
X0169Y52378*
X01722Y52393*
X01753Y5241*
X01784Y52428*
X01812Y52449*
X01839Y52472*
X01865Y52497*
X01889Y52523*
X0191Y52551*
X0193Y5258*
X01948Y52611*
X01964Y52643*
X01977Y52676*
X01988Y52709*
X01996Y52744*
X02003Y52779*
X02006Y52814*
X02007Y52849*
M02*