%FSTAX23Y23*%
%MOMM*%
%SFA1B1*%

%IPPOS*%
%ADD10C,0.253999*%
%ADD40C,0.150000*%
%ADD50C,1.015998*%
%ADD51C,1.915996*%
%ADD52C,2.031996*%
%ADD53C,2.035996*%
%ADD54C,1.315997*%
G54D10*
X50175Y02424D02*
D01*
X50171Y02526*
X50161Y02626*
X50143Y02726*
X50119Y02824*
X50087Y0292*
X50049Y03014*
X50005Y03105*
X49954Y03193*
X49898Y03277*
X49835Y03357*
X49768Y03432*
X49695Y03502*
X49617Y03567*
X49535Y03627*
X4945Y0368*
X4936Y03728*
X49268Y03769*
X49173Y03804*
X49075Y03832*
X48976Y03853*
X48876Y03867*
X48775Y03874*
X48674*
X48573Y03867*
X48473Y03853*
X48374Y03832*
X48276Y03804*
X48181Y03769*
X48089Y03728*
X47999Y0368*
X47914Y03627*
X47832Y03567*
X47754Y03502*
X47681Y03432*
X47614Y03357*
X47551Y03277*
X47495Y03193*
X47444Y03105*
X474Y03014*
X47362Y0292*
X4733Y02824*
X47306Y02726*
X47288Y02626*
X47278Y02526*
X47274Y02424*
X47278Y02323*
X47288Y02223*
X47306Y02123*
X4733Y02025*
X47362Y01928*
X474Y01835*
X47444Y01744*
X47495Y01656*
X47551Y01572*
X47614Y01492*
X47681Y01417*
X47754Y01347*
X47832Y01282*
X47914Y01222*
X47999Y01169*
X48089Y01121*
X48181Y0108*
X48276Y01045*
X48374Y01017*
X48473Y00996*
X48573Y00982*
X48674Y00975*
X48775*
X48876Y00982*
X48976Y00996*
X49075Y01017*
X49173Y01045*
X49268Y0108*
X4936Y01121*
X4945Y01169*
X49535Y01222*
X49617Y01282*
X49695Y01347*
X49768Y01417*
X49835Y01492*
X49898Y01572*
X49954Y01656*
X50005Y01744*
X50049Y01835*
X50087Y01928*
X50119Y02025*
X50143Y02123*
X50161Y02223*
X50171Y02323*
X50175Y02424*
X03825Y58174D02*
D01*
X03821Y58276*
X03811Y58376*
X03793Y58476*
X03769Y58574*
X03737Y5867*
X03699Y58764*
X03655Y58855*
X03604Y58943*
X03548Y59027*
X03485Y59107*
X03418Y59182*
X03345Y59252*
X03267Y59317*
X03185Y59377*
X031Y5943*
X0301Y59478*
X02918Y59519*
X02823Y59554*
X02725Y59582*
X02626Y59603*
X02526Y59617*
X02425Y59624*
X02324*
X02223Y59617*
X02123Y59603*
X02024Y59582*
X01926Y59554*
X01831Y59519*
X01739Y59478*
X01649Y5943*
X01564Y59377*
X01482Y59317*
X01404Y59252*
X01331Y59182*
X01264Y59107*
X01201Y59027*
X01145Y58943*
X01094Y58855*
X0105Y58764*
X01012Y5867*
X0098Y58574*
X00956Y58476*
X00938Y58376*
X00928Y58276*
X00924Y58174*
X00928Y58073*
X00938Y57973*
X00956Y57873*
X0098Y57775*
X01012Y57678*
X0105Y57585*
X01094Y57494*
X01145Y57406*
X01201Y57322*
X01264Y57242*
X01331Y57167*
X01404Y57097*
X01482Y57032*
X01564Y56972*
X01649Y56919*
X01739Y56871*
X01831Y5683*
X01926Y56795*
X02024Y56767*
X02123Y56746*
X02223Y56732*
X02324Y56725*
X02425*
X02526Y56732*
X02626Y56746*
X02725Y56767*
X02823Y56795*
X02918Y5683*
X0301Y56871*
X031Y56919*
X03185Y56972*
X03267Y57032*
X03345Y57097*
X03418Y57167*
X03485Y57242*
X03548Y57322*
X03604Y57406*
X03655Y57494*
X03699Y57585*
X03737Y57678*
X03769Y57775*
X03793Y57873*
X03811Y57973*
X03821Y58073*
X03825Y58174*
G54D40*
X13524Y56424D02*
Y56624D01*
X13724*
Y56424*
X13524*
X15324D02*
X14524D01*
X15324Y57224*
Y57424*
X15124Y57624*
X14724*
X14524Y57424*
X15724Y56424D02*
Y56624D01*
X15924*
Y56424*
X15724*
X16723D02*
Y56624D01*
X16923*
Y56424*
X16723*
G54D50*
X0Y0D02*
Y60499D01*
X51259*
Y0D02*
Y60499D01*
X0Y0D02*
X51259D01*
G54D51*
X44259Y58999D03*
X07099Y55984D03*
Y58524D03*
X49759Y14299D03*
Y16839D03*
Y19379D03*
Y21919D03*
Y24459D03*
Y26999D03*
Y29539D03*
Y32079D03*
X01499Y26999D03*
Y24459D03*
Y21919D03*
Y19379D03*
Y16839D03*
Y14299D03*
X49759Y41219D03*
Y58999D03*
Y56459D03*
Y53919D03*
Y48839D03*
Y46299D03*
Y43759D03*
Y38679D03*
Y36139D03*
X01499Y49859D03*
Y47319D03*
Y44779D03*
Y42239D03*
Y39699D03*
Y32079D03*
X18499Y56399D03*
Y58939D03*
X21039Y56399D03*
Y58939D03*
X23579Y56399D03*
Y58939D03*
X26119Y56399D03*
Y58939D03*
X28659Y56399D03*
Y58939D03*
X31199Y56399D03*
Y58939D03*
X33739Y56399D03*
Y58939D03*
G54D52*
X49759Y11324D03*
G54D53*
X10149Y50449D03*
X12689D03*
X15229D03*
G54D54*
X05999Y25649D03*
X03899Y22999D03*
X23999Y19999D03*
X35499Y21899D03*
Y22899D03*
X35599Y254D03*
X35499Y24099D03*
X36474Y53399D03*
X35499Y26499D03*
Y27499D03*
Y28599D03*
X41899Y53399D03*
X40091D03*
X38283D03*
X26599Y25999D03*
Y24899D03*
X10899Y17899D03*
X44599Y42699D03*
X44799Y41299D03*
X28499Y24999D03*
X27999Y25999D03*
X07399Y18699D03*
X06399Y17899D03*
X05499Y16799D03*
X04999Y09099D03*
Y07699D03*
X44499Y43999D03*
X04999Y06324D03*
X26699Y22099D03*
X09699Y17899D03*
X04999Y03499D03*
X48399Y48699D03*
X43199Y48799D03*
X29999Y10399D03*
X29499Y09499D03*
X32512Y13699D03*
X21374Y18874D03*
X24249Y18174D03*
X34474Y08149D03*
X26724Y17599D03*
X15374Y12924D03*
X32574Y12549D03*
X34374Y13149D03*
X36324Y12649D03*
X32174Y10374D03*
X27799Y07824D03*
X21999Y13724D03*
X22774Y09449D03*
X31349Y07874D03*
X26799Y18849D03*
X40349Y07374D03*
X30699Y13749D03*
X12899Y09099D03*
X12874Y07674D03*
Y06274D03*
Y02074D03*
M02*