%FSTAX23Y23*%
%MOMM*%
%SFA1B1*%

%IPPOS*%
%ADD22R,0.999998X0.999998*%
%ADD80R,0.299999X0.999998*%
%ADD81R,0.999998X0.299999*%
%ADD86R,3.049994X2.849994*%
%ADD87R,3.549993X5.299989*%
%ADD88R,0.903198X1.103198*%
%ADD89R,0.723199X0.723199*%
%ADD90R,1.103198X0.903198*%
%ADD91R,0.853198X0.953198*%
%ADD92R,1.303197X1.303197*%
%ADD93R,0.723199X0.723199*%
%ADD94R,1.553197X1.153198*%
%ADD95R,1.503197X1.353197*%
%ADD96R,0.753198X0.653199*%
%ADD97R,0.653199X0.753198*%
%ADD98R,1.353197X1.603197*%
%ADD99R,1.003198X0.503199*%
%ADD100R,1.053198X0.803198*%
%ADD101R,4.499991X4.499991*%
%ADD102R,1.223198X4.953190*%
%ADD103R,0.713199X2.113196*%
%ADD104R,1.203198X2.653295*%
%ADD105R,2.653295X1.203198*%
%ADD106R,1.703197X1.703197*%
%ADD107C,1.703197*%
%ADD108C,1.753196*%
%ADD109R,1.753196X1.753196*%
%ADD110R,1.703197X1.703197*%
%ADD111C,0.803198*%
%ADD112C,0.449999*%
G54D22*
X38283Y57449D03*
Y59149D03*
X36474Y57449D03*
Y59149D03*
X40091Y57449D03*
Y59149D03*
X419Y57474D03*
Y59174D03*
G54D80*
X28924Y16249D03*
X28124D03*
X27324D03*
X26524D03*
X25724D03*
X24924D03*
X24524D03*
X25324D03*
X26124D03*
X26924D03*
X27724D03*
X28524D03*
X24524Y10349D03*
X25324D03*
X26124D03*
X26924D03*
X27724D03*
X28524D03*
X28924D03*
X28124D03*
X27324D03*
X26524D03*
X25724D03*
X24924D03*
G54D81*
X29674Y11099D03*
Y11899D03*
Y127D03*
Y13499D03*
Y14299D03*
Y15099D03*
Y15499D03*
Y14699D03*
Y13899D03*
Y13099D03*
Y12299D03*
Y11499D03*
X23774Y15099D03*
Y14299D03*
Y13499D03*
Y127D03*
Y11899D03*
Y11099D03*
Y11499D03*
Y12299D03*
Y13099D03*
Y13899D03*
Y14699D03*
Y15499D03*
G54D86*
X25924Y08424D03*
G54D87*
X26624Y02649D03*
G54D88*
X33499Y15824D03*
X34899D03*
X33474Y17124D03*
X34874D03*
G54D89*
X33499Y13149D03*
Y13949D03*
X25974Y18849D03*
Y19649D03*
X31249Y10399D03*
Y09599D03*
X34474Y07374D03*
Y06574D03*
X17424Y10949D03*
Y10149D03*
X17049Y13649D03*
Y12849D03*
X17974Y13649D03*
Y12849D03*
X23674Y09449D03*
Y08649D03*
X21924Y16724D03*
Y15924D03*
X17749Y17124D03*
Y17924D03*
X29599Y07874D03*
Y07074D03*
X30474Y07874D03*
Y07074D03*
X26374Y08424D03*
Y07624D03*
X25474Y08424D03*
Y07624D03*
X28724Y07074D03*
Y07874D03*
G54D90*
X36474Y54649D03*
Y56049D03*
X40091Y54699D03*
Y56099D03*
X38283Y54649D03*
Y56049D03*
X41899Y54624D03*
Y56024D03*
G54D91*
X24249Y22099D03*
X25349D03*
G54D92*
X34149Y09849D03*
Y11649D03*
X38849Y09199D03*
Y07399D03*
G54D93*
X31699Y11299D03*
X32499D03*
X24074Y19149D03*
X23274D03*
X24274Y17349D03*
X23474D03*
X20899Y09899D03*
X20099D03*
X19174Y10149D03*
X18374D03*
X20099Y08999D03*
X20899D03*
X20049Y11049D03*
X19249D03*
X20899Y12599D03*
X20099D03*
X20949Y13599D03*
X20149D03*
G54D94*
X32674Y05774D03*
Y07374D03*
G54D95*
X36324Y11424D03*
X38024D03*
G54D96*
X21799Y08999D03*
Y09899D03*
X127Y48049D03*
Y48949D03*
G54D97*
X17049Y11899D03*
X17949D03*
G54D98*
X19074Y17549D03*
Y15349D03*
X20674Y17549D03*
Y15349D03*
G54D99*
X25274Y05499D03*
Y06124D03*
Y06774D03*
X26574Y05499D03*
Y06124D03*
Y06774D03*
G54D100*
X37124Y08674D03*
X35774D03*
X37124Y09774D03*
X35774D03*
G54D101*
X26724Y13299D03*
G54D102*
X22379Y02374D03*
X30879D03*
G54D103*
X26629Y00954D03*
G54D104*
X12525Y13299D03*
X13925D03*
X11124D03*
X09724D03*
X08325D03*
X06925D03*
X05525D03*
X04125D03*
G54D105*
X15325Y10499D03*
Y091D03*
Y07699D03*
Y06299D03*
Y04899D03*
Y03499D03*
X02724Y10499D03*
Y091D03*
Y07699D03*
Y06299D03*
Y04899D03*
Y021D03*
Y03499D03*
X15325Y021D03*
Y007D03*
X02724D03*
G54D106*
X44259Y58999D03*
X33739Y58939D03*
G54D107*
X46799Y58999D03*
X07099Y55984D03*
X49759Y16839D03*
Y19379D03*
Y21919D03*
Y24459D03*
Y26999D03*
Y29539D03*
Y32079D03*
X01499Y24459D03*
Y21919D03*
Y19379D03*
Y16839D03*
Y14299D03*
X49759Y41219D03*
Y58999D03*
Y56459D03*
Y53919D03*
Y51379D03*
Y48839D03*
Y46299D03*
Y43759D03*
Y38679D03*
X01499Y47319D03*
Y44779D03*
Y42239D03*
Y39699D03*
Y37159D03*
Y34619D03*
Y32079D03*
X18499Y56399D03*
Y58939D03*
X21039Y56399D03*
Y58939D03*
X23579Y56399D03*
Y58939D03*
X26119Y56399D03*
Y58939D03*
X28659Y56399D03*
Y58939D03*
X31199Y56399D03*
Y58939D03*
X33739Y56399D03*
G54D108*
X49759Y11324D03*
X01499Y52849D03*
X12689Y50449D03*
X15229D03*
G54D109*
X10149Y50449D03*
G54D110*
X07099Y58524D03*
X49759Y14299D03*
X01499Y26999D03*
X49759Y36139D03*
X01499Y49859D03*
G54D111*
X05999Y25649D03*
X03899Y22999D03*
X23999Y19999D03*
X35499Y21899D03*
Y22899D03*
X35599Y254D03*
X35499Y24099D03*
X36474Y53399D03*
X35499Y26499D03*
Y27499D03*
Y28599D03*
X41899Y53399D03*
X40091D03*
X38283D03*
X26599Y25999D03*
Y24899D03*
X10899Y17899D03*
X44599Y42699D03*
X44799Y41299D03*
X28499Y24999D03*
X27999Y25999D03*
X07399Y18699D03*
X06399Y17899D03*
X05499Y16799D03*
X04999Y09099D03*
Y07699D03*
X44499Y43999D03*
X04999Y06324D03*
X26699Y22099D03*
X09699Y17899D03*
X04999Y03499D03*
X48399Y48699D03*
X43199Y48799D03*
X29999Y10399D03*
X29499Y09499D03*
X32599Y09599D03*
X32512Y13699D03*
X21374Y18874D03*
X24249Y18174D03*
X26199Y21074D03*
X32624Y04949D03*
X3142Y06249D03*
X34474Y08149D03*
X26724Y17599D03*
X23174Y22074D03*
X15374Y12924D03*
X32574Y12549D03*
X30399Y09499D03*
X34374Y13149D03*
X36324Y12649D03*
X22424Y19149D03*
X22624Y17999D03*
X39624Y10699D03*
X32174Y10374D03*
X27799Y07824D03*
X18374Y11049D03*
X19249Y12599D03*
Y13599D03*
X18999Y18824D03*
X21924Y15049D03*
X21999Y13724D03*
X22774Y09449D03*
X23674Y07774D03*
X28699Y06224D03*
X30499D03*
X29624D03*
X31349Y07874D03*
X26799Y18849D03*
X40349Y07374D03*
X24249Y06124D03*
X27599D03*
X34374Y14199D03*
X30699Y13749D03*
X31999Y01616D03*
Y00549D03*
Y02683D03*
X28874Y01566D03*
Y00499D03*
X28849Y02633D03*
Y03699D03*
X29849Y01541D03*
Y00474D03*
X29824Y02608D03*
Y03674D03*
X34274Y01691D03*
X36549Y00624D03*
X34581Y04949D03*
X35699D03*
X24399Y01641D03*
Y00574D03*
X24374Y02708D03*
Y03774D03*
X23424Y01616D03*
Y00549D03*
X23399Y02683D03*
Y03749D03*
X20149Y01791D03*
Y00724D03*
X20124Y02858D03*
Y03924D03*
X18274Y01841D03*
Y00774D03*
X18249Y02908D03*
Y03974D03*
X18324Y05941D03*
Y04874D03*
X18299Y07008D03*
Y08074D03*
X20174Y05916D03*
Y04849D03*
X20149Y06983D03*
Y08049D03*
X22399Y05966D03*
Y04899D03*
X22374Y07033D03*
Y08099D03*
X30109Y04949D03*
X28991D03*
X36549Y02758D03*
X34274D03*
Y03824D03*
X36549D03*
X34274Y00624D03*
X36549Y01691D03*
X31999Y03749D03*
X04999Y02074D03*
X05024Y00699D03*
X04999Y04949D03*
X12899Y09099D03*
X12874Y07674D03*
Y06274D03*
Y10574D03*
Y02074D03*
X04099Y15949D03*
X17424Y09174D03*
G54D112*
X25474Y13299D03*
X26674Y14499D03*
X27874D03*
X26674Y13299D03*
X25474Y14499D03*
X27974Y13299D03*
X27874Y12099D03*
X25474D03*
X26674D03*
M02*