%FSTAX23Y23*%
%MOMM*%
%SFA1B1*%

%IPPOS*%
%ADD11R,0.699999X0.899998*%
%ADD12R,0.519999X0.519999*%
%ADD13R,0.899998X0.699999*%
%ADD14R,0.649999X0.749999*%
%ADD15R,1.099998X1.099998*%
%ADD16R,0.519999X0.519999*%
%ADD17R,1.349997X0.949998*%
%ADD18R,1.299997X1.149998*%
%ADD19R,0.549999X0.449999*%
%ADD20R,0.449999X0.549999*%
%ADD21R,1.149998X1.399997*%
%ADD22R,0.999998X0.999998*%
%ADD23R,0.799998X0.299999*%
%ADD24R,0.849998X0.599999*%
%ADD25R,0.200000X0.899998*%
%ADD26R,0.899998X0.200000*%
%ADD27R,4.399991X4.399991*%
%ADD28R,1.019998X4.749991*%
%ADD29R,0.509999X1.909996*%
%ADD30R,0.999998X2.450095*%
%ADD31R,2.450095X0.999998*%
%ADD44R,1.499997X1.499997*%
%ADD45C,1.499997*%
%ADD46C,1.549997*%
%ADD47R,1.549997X1.549997*%
%ADD48R,1.499997X1.499997*%
G54D11*
X33499Y15824D03*
X34899D03*
X33474Y17124D03*
X34874D03*
G54D12*
X33499Y13149D03*
Y13949D03*
X25974Y18849D03*
Y19649D03*
X31249Y10399D03*
Y09599D03*
X34474Y07374D03*
Y06574D03*
X17424Y10949D03*
Y10149D03*
X17049Y13649D03*
Y12849D03*
X17974Y13649D03*
Y12849D03*
X23674Y09449D03*
Y08649D03*
X21924Y16724D03*
Y15924D03*
X17749Y17124D03*
Y17924D03*
X29599Y07874D03*
Y07074D03*
X30474Y07874D03*
Y07074D03*
X26374Y08424D03*
Y07624D03*
X25474Y08424D03*
Y07624D03*
X28724Y07074D03*
Y07874D03*
G54D13*
X36474Y54649D03*
Y56049D03*
X40091Y54699D03*
Y56099D03*
X38283Y54649D03*
Y56049D03*
X41899Y54624D03*
Y56024D03*
G54D14*
X24249Y22099D03*
X25349D03*
G54D15*
X34149Y09849D03*
Y11649D03*
X38849Y09199D03*
Y07399D03*
G54D16*
X31699Y11299D03*
X32499D03*
X24074Y19149D03*
X23274D03*
X24274Y17349D03*
X23474D03*
X20899Y09899D03*
X20099D03*
X19174Y10149D03*
X18374D03*
X20099Y08999D03*
X20899D03*
X20049Y11049D03*
X19249D03*
X20899Y12599D03*
X20099D03*
X20949Y13599D03*
X20149D03*
G54D17*
X32674Y05774D03*
Y07374D03*
G54D18*
X36324Y11424D03*
X38024D03*
G54D19*
X21799Y08999D03*
Y09899D03*
X127Y48049D03*
Y48949D03*
G54D20*
X17049Y11899D03*
X17949D03*
G54D21*
X19074Y17549D03*
Y15349D03*
X20674Y17549D03*
Y15349D03*
G54D22*
X38283Y57449D03*
Y59149D03*
X36474Y57449D03*
Y59149D03*
X40091Y57449D03*
Y59149D03*
X419Y57474D03*
Y59174D03*
G54D23*
X25274Y05499D03*
Y06124D03*
Y06774D03*
X26574Y05499D03*
Y06124D03*
Y06774D03*
G54D24*
X37124Y08674D03*
X35774D03*
X37124Y09774D03*
X35774D03*
G54D25*
X28924Y16249D03*
X28124D03*
X27324D03*
X26524D03*
X25724D03*
X24924D03*
X24524D03*
X25324D03*
X26124D03*
X26924D03*
X27724D03*
X28524D03*
X24524Y10349D03*
X25324D03*
X26124D03*
X26924D03*
X27724D03*
X28524D03*
X28924D03*
X28124D03*
X27324D03*
X26524D03*
X25724D03*
X24924D03*
G54D26*
X29674Y11099D03*
Y11899D03*
Y127D03*
Y13499D03*
Y14299D03*
Y15099D03*
Y15499D03*
Y14699D03*
Y13899D03*
Y13099D03*
Y12299D03*
Y11499D03*
X23774Y15099D03*
Y14299D03*
Y13499D03*
Y127D03*
Y11899D03*
Y11099D03*
Y11499D03*
Y12299D03*
Y13099D03*
Y13899D03*
Y14699D03*
Y15499D03*
G54D27*
X26724Y13299D03*
G54D28*
X22379Y02374D03*
X30879D03*
G54D29*
X26629Y00954D03*
G54D30*
X12525Y13299D03*
X13925D03*
X11124D03*
X09724D03*
X08325D03*
X06925D03*
X05525D03*
X04125D03*
G54D31*
X15325Y10499D03*
Y091D03*
Y07699D03*
Y06299D03*
Y04899D03*
Y03499D03*
X02724Y10499D03*
Y091D03*
Y07699D03*
Y06299D03*
Y04899D03*
Y021D03*
Y03499D03*
X15325Y021D03*
Y007D03*
X02724D03*
G54D44*
X44259Y58999D03*
X33739Y58939D03*
G54D45*
X46799Y58999D03*
X07099Y55984D03*
X49759Y16839D03*
Y19379D03*
Y21919D03*
Y24459D03*
Y26999D03*
Y29539D03*
Y32079D03*
X01499Y24459D03*
Y21919D03*
Y19379D03*
Y16839D03*
Y14299D03*
X49759Y41219D03*
Y58999D03*
Y56459D03*
Y53919D03*
Y51379D03*
Y48839D03*
Y46299D03*
Y43759D03*
Y38679D03*
X01499Y47319D03*
Y44779D03*
Y42239D03*
Y39699D03*
Y37159D03*
Y34619D03*
Y32079D03*
X18499Y56399D03*
Y58939D03*
X21039Y56399D03*
Y58939D03*
X23579Y56399D03*
Y58939D03*
X26119Y56399D03*
Y58939D03*
X28659Y56399D03*
Y58939D03*
X31199Y56399D03*
Y58939D03*
X33739Y56399D03*
G54D46*
X49759Y11324D03*
X01499Y52849D03*
X12689Y50449D03*
X15229D03*
G54D47*
X10149Y50449D03*
G54D48*
X07099Y58524D03*
X49759Y14299D03*
X01499Y26999D03*
X49759Y36139D03*
X01499Y49859D03*
M02*