%FSTAX23Y23*%
%MOMM*%
%SFA1B1*%

%IPPOS*%
%ADD129C,0.127000*%
G54D129*
X43809Y58999D02*
X44709D01*
X44259Y58549D02*
Y59449D01*
X46349Y58999D02*
X47249D01*
X46799Y58549D02*
Y59449D01*
X49251Y11324D02*
X50267D01*
X49759Y10816D02*
Y11832D01*
X00991Y52849D02*
X02007D01*
X01499Y52341D02*
Y53357D01*
X09639Y50449D02*
X10659D01*
X10149Y49939D02*
Y50959D01*
X12179Y50449D02*
X13199D01*
X12689Y49939D02*
Y50959D01*
X14719Y50449D02*
X15739D01*
X15229Y49939D02*
Y50959D01*
X06649Y55984D02*
X07549D01*
X07099Y55534D02*
Y56434D01*
X06649Y58524D02*
X07549D01*
X07099Y58074D02*
Y58974D01*
X49309Y14299D02*
X50209D01*
X49759Y13849D02*
Y14749D01*
X49309Y16839D02*
X50209D01*
X49759Y16389D02*
Y17289D01*
X49309Y19379D02*
X50209D01*
X49759Y18929D02*
Y19829D01*
X49309Y21919D02*
X50209D01*
X49759Y21469D02*
Y22369D01*
X49309Y24459D02*
X50209D01*
X49759Y24009D02*
Y24909D01*
X49309Y26999D02*
X50209D01*
X49759Y26549D02*
Y27449D01*
X49309Y29539D02*
X50209D01*
X49759Y29089D02*
Y29989D01*
X49309Y32079D02*
X50209D01*
X49759Y31629D02*
Y32529D01*
X01049Y26999D02*
X01949D01*
X01499Y26549D02*
Y27449D01*
X01049Y24459D02*
X01949D01*
X01499Y24009D02*
Y24909D01*
X01049Y21919D02*
X01949D01*
X01499Y21469D02*
Y22369D01*
X01049Y19379D02*
X01949D01*
X01499Y18929D02*
Y19829D01*
X01049Y16839D02*
X01949D01*
X01499Y16389D02*
Y17289D01*
X01049Y14299D02*
X01949D01*
X01499Y13849D02*
Y14749D01*
X49309Y41219D02*
X50209D01*
X49759Y40769D02*
Y41669D01*
X49309Y58999D02*
X50209D01*
X49759Y58549D02*
Y59449D01*
X49309Y56459D02*
X50209D01*
X49759Y56009D02*
Y56909D01*
X49309Y53919D02*
X50209D01*
X49759Y53469D02*
Y54369D01*
X49309Y51379D02*
X50209D01*
X49759Y50929D02*
Y51829D01*
X49309Y48839D02*
X50209D01*
X49759Y48389D02*
Y49289D01*
X49309Y46299D02*
X50209D01*
X49759Y45849D02*
Y46749D01*
X49309Y43759D02*
X50209D01*
X49759Y43309D02*
Y44209D01*
X49309Y38679D02*
X50209D01*
X49759Y38229D02*
Y39129D01*
X49309Y36139D02*
X50209D01*
X49759Y35689D02*
Y36589D01*
X01049Y49859D02*
X01949D01*
X01499Y49409D02*
Y50309D01*
X01049Y47319D02*
X01949D01*
X01499Y46869D02*
Y47769D01*
X01049Y44779D02*
X01949D01*
X01499Y44329D02*
Y45229D01*
X01049Y42239D02*
X01949D01*
X01499Y41789D02*
Y42689D01*
X01049Y39699D02*
X01949D01*
X01499Y39249D02*
Y40149D01*
X01049Y37159D02*
X01949D01*
X01499Y36709D02*
Y37609D01*
X01049Y34619D02*
X01949D01*
X01499Y34169D02*
Y35069D01*
X01049Y32079D02*
X01949D01*
X01499Y31629D02*
Y32529D01*
X18049Y56399D02*
X18949D01*
X18499Y55949D02*
Y56849D01*
X18049Y58939D02*
X18949D01*
X18499Y58489D02*
Y59389D01*
X20589Y56399D02*
X21489D01*
X21039Y55949D02*
Y56849D01*
X20589Y58939D02*
X21489D01*
X21039Y58489D02*
Y59389D01*
X23129Y56399D02*
X24029D01*
X23579Y55949D02*
Y56849D01*
X23129Y58939D02*
X24029D01*
X23579Y58489D02*
Y59389D01*
X25669Y56399D02*
X26569D01*
X26119Y55949D02*
Y56849D01*
X25669Y58939D02*
X26569D01*
X26119Y58489D02*
Y59389D01*
X28209Y56399D02*
X29109D01*
X28659Y55949D02*
Y56849D01*
X28209Y58939D02*
X29109D01*
X28659Y58489D02*
Y59389D01*
X30749Y56399D02*
X31649D01*
X31199Y55949D02*
Y56849D01*
X30749Y58939D02*
X31649D01*
X31199Y58489D02*
Y59389D01*
X33289Y56399D02*
X34189D01*
X33739Y55949D02*
Y56849D01*
X33289Y58939D02*
X34189D01*
X33739Y58489D02*
Y59389D01*
X05849Y25649D02*
X06149D01*
X05999Y25499D02*
Y25799D01*
X03749Y22999D02*
X04049D01*
X03899Y22849D02*
Y23149D01*
X23849Y19999D02*
X24149D01*
X23999Y19849D02*
Y20149D01*
X35349Y21899D02*
X35649D01*
X35499Y21749D02*
Y22049D01*
X35349Y22899D02*
X35649D01*
X35499Y22749D02*
Y23049D01*
X35449Y254D02*
X35749D01*
X35599Y25249D02*
Y25549D01*
X35349Y24099D02*
X35649D01*
X35499Y23949D02*
Y24249D01*
X36324Y53399D02*
X36624D01*
X36474Y53249D02*
Y53549D01*
X35349Y26499D02*
X35649D01*
X35499Y26349D02*
Y26649D01*
X35349Y27499D02*
X35649D01*
X35499Y27349D02*
Y27649D01*
X35349Y28599D02*
X35649D01*
X35499Y28449D02*
Y28749D01*
X41749Y53399D02*
X42049D01*
X41899Y53249D02*
Y53549D01*
X39941Y53399D02*
X40241D01*
X40091Y53249D02*
Y53549D01*
X38133Y53399D02*
X38433D01*
X38283Y53249D02*
Y53549D01*
X26449Y25999D02*
X26749D01*
X26599Y25849D02*
Y26149D01*
X26449Y24899D02*
X26749D01*
X26599Y24749D02*
Y25049D01*
X10749Y17899D02*
X11049D01*
X10899Y17749D02*
Y18049D01*
X4445Y42699D02*
X44749D01*
X44599Y42549D02*
Y42849D01*
X44649Y41299D02*
X44949D01*
X44799Y41149D02*
Y41449D01*
X28349Y24999D02*
X28649D01*
X28499Y24849D02*
Y25149D01*
X27849Y25999D02*
X28149D01*
X27999Y25849D02*
Y26149D01*
X07249Y18699D02*
X07549D01*
X07399Y18549D02*
Y18849D01*
X06249Y17899D02*
X06549D01*
X06399Y17749D02*
Y18049D01*
X05349Y16799D02*
X05649D01*
X05499Y16649D02*
Y16949D01*
X04849Y09099D02*
X05149D01*
X04999Y08949D02*
Y09249D01*
X04849Y07699D02*
X05149D01*
X04999Y07549D02*
Y07849D01*
X44349Y43999D02*
X44649D01*
X44499Y43849D02*
Y44149D01*
X04849Y06324D02*
X05149D01*
X04999Y06174D02*
Y06474D01*
X26549Y22099D02*
X26849D01*
X26699Y21949D02*
Y22249D01*
X09549Y17899D02*
X09849D01*
X09699Y17749D02*
Y18049D01*
X04849Y03499D02*
X05149D01*
X04999Y03349D02*
Y03649D01*
X48249Y48699D02*
X48549D01*
X48399Y48549D02*
Y48849D01*
X43049Y48799D02*
X43349D01*
X43199Y48649D02*
Y48949D01*
X29849Y10399D02*
X30149D01*
X29999Y10249D02*
Y10549D01*
X29349Y09499D02*
X29649D01*
X29499Y09349D02*
Y09649D01*
X32449Y09599D02*
X32749D01*
X32599Y09449D02*
Y09749D01*
X32362Y13699D02*
X32662D01*
X32512Y13549D02*
Y13849D01*
X21224Y18874D02*
X21524D01*
X21374Y18724D02*
Y19024D01*
X24099Y18174D02*
X24399D01*
X24249Y18024D02*
Y18324D01*
X26049Y21074D02*
X26349D01*
X26199Y20924D02*
Y21224D01*
X32474Y04949D02*
X32774D01*
X32624Y04799D02*
Y05099D01*
X3127Y06249D02*
X3157D01*
X3142Y06099D02*
Y06399D01*
X34324Y08149D02*
X34624D01*
X34474Y07999D02*
Y08299D01*
X26574Y17599D02*
X26874D01*
X26724Y17449D02*
Y17749D01*
X23024Y22074D02*
X23324D01*
X23174Y21924D02*
Y22225D01*
X15224Y12924D02*
X15524D01*
X15374Y12774D02*
Y13074D01*
X32424Y12549D02*
X32724D01*
X32574Y12399D02*
Y127D01*
X30249Y09499D02*
X30549D01*
X30399Y09349D02*
Y09649D01*
X34224Y13149D02*
X34524D01*
X34374Y12999D02*
Y13299D01*
X25324D02*
X25624D01*
X25474Y13149D02*
Y13449D01*
X26524Y14499D02*
X26824D01*
X26674Y14349D02*
Y14649D01*
X27724Y14499D02*
X28024D01*
X27874Y14349D02*
Y14649D01*
X26524Y13299D02*
X26824D01*
X26674Y13149D02*
Y13449D01*
X25324Y14499D02*
X25624D01*
X25474Y14349D02*
Y14649D01*
X27824Y13299D02*
X28124D01*
X27974Y13149D02*
Y13449D01*
X27724Y12099D02*
X28024D01*
X27874Y11949D02*
Y12249D01*
X36174Y12649D02*
X36474D01*
X36324Y12499D02*
Y12799D01*
X22274Y19149D02*
X22574D01*
X22424Y18999D02*
Y19299D01*
X22474Y17999D02*
X22774D01*
X22624Y17849D02*
Y18149D01*
X39474Y10699D02*
X39774D01*
X39624Y10549D02*
Y10849D01*
X32024Y10374D02*
X32324D01*
X32174Y10224D02*
Y10524D01*
X27649Y07824D02*
X27949D01*
X27799Y07674D02*
Y07974D01*
X18224Y11049D02*
X18524D01*
X18374Y10899D02*
Y11199D01*
X19099Y12599D02*
X19399D01*
X19249Y12449D02*
Y12749D01*
X19099Y13599D02*
X19399D01*
X19249Y13449D02*
Y13749D01*
X18849Y18824D02*
X19149D01*
X18999Y18674D02*
Y18974D01*
X21774Y15049D02*
X22074D01*
X21924Y14899D02*
Y15199D01*
X21849Y13724D02*
X22149D01*
X21999Y13574D02*
Y13874D01*
X22624Y09449D02*
X22924D01*
X22774Y09299D02*
Y09599D01*
X23524Y07774D02*
X23824D01*
X23674Y07624D02*
Y07924D01*
X25324Y12099D02*
X25624D01*
X25474Y11949D02*
Y12249D01*
X26524Y12099D02*
X26824D01*
X26674Y11949D02*
Y12249D01*
X28549Y06224D02*
X28849D01*
X28699Y06074D02*
Y06374D01*
X30349Y06224D02*
X30649D01*
X30499Y06074D02*
Y06374D01*
X29474Y06224D02*
X29774D01*
X29624Y06074D02*
Y06374D01*
X31199Y07874D02*
X31499D01*
X31349Y07724D02*
Y08024D01*
X26649Y18849D02*
X26949D01*
X26799Y18699D02*
Y18999D01*
X40199Y07374D02*
X40499D01*
X40349Y07224D02*
Y07524D01*
X24099Y06124D02*
X24399D01*
X24249Y05974D02*
Y06274D01*
X27449Y06124D02*
X27749D01*
X27599Y05974D02*
Y06274D01*
X34224Y14199D02*
X34524D01*
X34374Y14049D02*
Y14349D01*
X30549Y13749D02*
X30849D01*
X30699Y13599D02*
Y13899D01*
X31849Y01616D02*
X32149D01*
X31999Y01466D02*
Y01766D01*
X31849Y00549D02*
X32149D01*
X31999Y00399D02*
Y00699D01*
X31849Y02683D02*
X32149D01*
X31999Y02533D02*
Y02833D01*
X28724Y01566D02*
X29024D01*
X28874Y01416D02*
Y01716D01*
X28724Y00499D02*
X29024D01*
X28874Y00349D02*
Y00649D01*
X28699Y02633D02*
X28999D01*
X28849Y02483D02*
Y02783D01*
X28699Y03699D02*
X28999D01*
X28849Y03549D02*
Y03849D01*
X29699Y01541D02*
X29999D01*
X29849Y01391D02*
Y01691D01*
X29699Y00474D02*
X29999D01*
X29849Y00324D02*
Y00624D01*
X29674Y02608D02*
X29974D01*
X29824Y02458D02*
Y02758D01*
X29674Y03674D02*
X29974D01*
X29824Y03524D02*
Y03824D01*
X34124Y01691D02*
X34424D01*
X34274Y01541D02*
Y01841D01*
X36399Y00624D02*
X36699D01*
X36549Y00474D02*
Y00774D01*
X34431Y04949D02*
X34731D01*
X34581Y04799D02*
Y05099D01*
X35549Y04949D02*
X35849D01*
X35699Y04799D02*
Y05099D01*
X24249Y01641D02*
X24549D01*
X24399Y01491D02*
Y01791D01*
X24249Y00574D02*
X24549D01*
X24399Y00424D02*
Y00724D01*
X24224Y02708D02*
X24524D01*
X24374Y02558D02*
Y02858D01*
X24224Y03774D02*
X24524D01*
X24374Y03624D02*
Y03924D01*
X23274Y01616D02*
X23574D01*
X23424Y01466D02*
Y01766D01*
X23274Y00549D02*
X23574D01*
X23424Y00399D02*
Y00699D01*
X23249Y02683D02*
X23549D01*
X23399Y02533D02*
Y02833D01*
X23249Y03749D02*
X23549D01*
X23399Y03599D02*
Y03899D01*
X19999Y01791D02*
X20299D01*
X20149Y01641D02*
Y01941D01*
X19999Y00724D02*
X20299D01*
X20149Y00574D02*
Y00874D01*
X19974Y02858D02*
X20274D01*
X20124Y02708D02*
Y03008D01*
X19974Y03924D02*
X20274D01*
X20124Y03774D02*
Y04074D01*
X18124Y01841D02*
X18424D01*
X18274Y01691D02*
Y01991D01*
X18124Y00774D02*
X18424D01*
X18274Y00624D02*
Y00924D01*
X18099Y02908D02*
X18399D01*
X18249Y02758D02*
Y03058D01*
X18099Y03974D02*
X18399D01*
X18249Y03824D02*
Y04124D01*
X18174Y05941D02*
X18474D01*
X18324Y05791D02*
Y06091D01*
X18174Y04874D02*
X18474D01*
X18324Y04724D02*
Y05024D01*
X18149Y07008D02*
X18449D01*
X18299Y06858D02*
Y07158D01*
X18149Y08074D02*
X18449D01*
X18299Y07924D02*
Y08224D01*
X20024Y05916D02*
X20324D01*
X20174Y05766D02*
Y06066D01*
X20024Y04849D02*
X20324D01*
X20174Y04699D02*
Y04999D01*
X19999Y06983D02*
X20299D01*
X20149Y06833D02*
Y07133D01*
X19999Y08049D02*
X20299D01*
X20149Y07899D02*
Y08199D01*
X22249Y05966D02*
X22549D01*
X22399Y05816D02*
Y06116D01*
X22249Y04899D02*
X22549D01*
X22399Y04749D02*
Y05049D01*
X22225Y07033D02*
X22524D01*
X22374Y06883D02*
Y07183D01*
X22225Y08099D02*
X22524D01*
X22374Y07949D02*
Y08249D01*
X29959Y04949D02*
X30259D01*
X30109Y04799D02*
Y05099D01*
X28841Y04949D02*
X29141D01*
X28991Y04799D02*
Y05099D01*
X36399Y02758D02*
X36699D01*
X36549Y02608D02*
Y02908D01*
X34124Y02758D02*
X34424D01*
X34274Y02608D02*
Y02908D01*
X34124Y03824D02*
X34424D01*
X34274Y03674D02*
Y03974D01*
X36399Y03824D02*
X36699D01*
X36549Y03674D02*
Y03974D01*
X34124Y00624D02*
X34424D01*
X34274Y00474D02*
Y00774D01*
X36399Y01691D02*
X36699D01*
X36549Y01541D02*
Y01841D01*
X31849Y03749D02*
X32149D01*
X31999Y03599D02*
Y03899D01*
X04849Y02074D02*
X05149D01*
X04999Y01924D02*
Y02224D01*
X04874Y00699D02*
X05174D01*
X05024Y00549D02*
Y00849D01*
X04849Y04949D02*
X05149D01*
X04999Y04799D02*
Y05099D01*
X12749Y09099D02*
X13049D01*
X12899Y08949D02*
Y09249D01*
X12724Y07674D02*
X13024D01*
X12874Y07524D02*
Y07824D01*
X12724Y06274D02*
X13024D01*
X12874Y06124D02*
Y06424D01*
X12724Y10574D02*
X13024D01*
X12874Y10424D02*
Y10724D01*
X12724Y02074D02*
X13024D01*
X12874Y01924D02*
Y02224D01*
X03949Y15949D02*
X04249D01*
X04099Y15799D02*
Y16099D01*
X17274Y09174D02*
X17574D01*
X17424Y09024D02*
Y09324D01*
M02*