%FSTAX23Y23*%
%MOMM*%
%SFA1B1*%

%IPPOS*%
%ADD123C,0.899998*%
%ADD124C,1.015998*%
%ADD125C,1.019998*%
%ADD126C,0.899998*%
%ADD127C,0.299999*%
G54D123*
X44259Y58999D03*
X46799D03*
X18499Y56399D03*
Y58939D03*
X21039Y56399D03*
Y58939D03*
X23579Y56399D03*
Y58939D03*
X26119Y56399D03*
Y58939D03*
X28659Y56399D03*
Y58939D03*
X31199Y56399D03*
Y58939D03*
X33739Y56399D03*
Y58939D03*
G54D124*
X49759Y11324D03*
X01499Y52849D03*
G54D125*
X10149Y50449D03*
X12689D03*
X15229D03*
G54D126*
X07099Y55984D03*
Y58524D03*
X49759Y14299D03*
Y16839D03*
Y19379D03*
Y21919D03*
Y24459D03*
Y26999D03*
Y29539D03*
Y32079D03*
X01499Y26999D03*
Y24459D03*
Y21919D03*
Y19379D03*
Y16839D03*
Y14299D03*
X49759Y41219D03*
Y58999D03*
Y56459D03*
Y53919D03*
Y51379D03*
Y48839D03*
Y46299D03*
Y43759D03*
Y38679D03*
Y36139D03*
X01499Y49859D03*
Y47319D03*
Y44779D03*
Y42239D03*
Y39699D03*
Y37159D03*
Y34619D03*
Y32079D03*
G54D127*
X05999Y25649D03*
X03899Y22999D03*
X23999Y19999D03*
X35499Y21899D03*
Y22899D03*
X35599Y254D03*
X35499Y24099D03*
X36474Y53399D03*
X35499Y26499D03*
Y27499D03*
Y28599D03*
X41899Y53399D03*
X40091D03*
X38283D03*
X26599Y25999D03*
Y24899D03*
X10899Y17899D03*
X44599Y42699D03*
X44799Y41299D03*
X28499Y24999D03*
X27999Y25999D03*
X07399Y18699D03*
X06399Y17899D03*
X05499Y16799D03*
X04999Y09099D03*
Y07699D03*
X44499Y43999D03*
X04999Y06324D03*
X26699Y22099D03*
X09699Y17899D03*
X04999Y03499D03*
X48399Y48699D03*
X43199Y48799D03*
X29999Y10399D03*
X29499Y09499D03*
X32599Y09599D03*
X32512Y13699D03*
X21374Y18874D03*
X24249Y18174D03*
X26199Y21074D03*
X32624Y04949D03*
X3142Y06249D03*
X34474Y08149D03*
X26724Y17599D03*
X23174Y22074D03*
X15374Y12924D03*
X32574Y12549D03*
X30399Y09499D03*
X34374Y13149D03*
X25474Y13299D03*
X26674Y14499D03*
X27874D03*
X26674Y13299D03*
X25474Y14499D03*
X27974Y13299D03*
X27874Y12099D03*
X36324Y12649D03*
X22424Y19149D03*
X22624Y17999D03*
X39624Y10699D03*
X32174Y10374D03*
X27799Y07824D03*
X18374Y11049D03*
X19249Y12599D03*
Y13599D03*
X18999Y18824D03*
X21924Y15049D03*
X21999Y13724D03*
X22774Y09449D03*
X23674Y07774D03*
X25474Y12099D03*
X26674D03*
X28699Y06224D03*
X30499D03*
X29624D03*
X31349Y07874D03*
X26799Y18849D03*
X40349Y07374D03*
X24249Y06124D03*
X27599D03*
X34374Y14199D03*
X30699Y13749D03*
X31999Y01616D03*
Y00549D03*
Y02683D03*
X28874Y01566D03*
Y00499D03*
X28849Y02633D03*
Y03699D03*
X29849Y01541D03*
Y00474D03*
X29824Y02608D03*
Y03674D03*
X34274Y01691D03*
X36549Y00624D03*
X34581Y04949D03*
X35699D03*
X24399Y01641D03*
Y00574D03*
X24374Y02708D03*
Y03774D03*
X23424Y01616D03*
Y00549D03*
X23399Y02683D03*
Y03749D03*
X20149Y01791D03*
Y00724D03*
X20124Y02858D03*
Y03924D03*
X18274Y01841D03*
Y00774D03*
X18249Y02908D03*
Y03974D03*
X18324Y05941D03*
Y04874D03*
X18299Y07008D03*
Y08074D03*
X20174Y05916D03*
Y04849D03*
X20149Y06983D03*
Y08049D03*
X22399Y05966D03*
Y04899D03*
X22374Y07033D03*
Y08099D03*
X30109Y04949D03*
X28991D03*
X36549Y02758D03*
X34274D03*
Y03824D03*
X36549D03*
X34274Y00624D03*
X36549Y01691D03*
X31999Y03749D03*
X04999Y02074D03*
X05024Y00699D03*
X04999Y04949D03*
X12899Y09099D03*
X12874Y07674D03*
Y06274D03*
Y10574D03*
Y02074D03*
X04099Y15949D03*
X17424Y09174D03*
M02*