%FSTAX23Y23*%
%MOMM*%
%SFA1B1*%

%IPPOS*%
%ADD12R,0.519999X0.519999*%
%ADD16R,0.519999X0.519999*%
%ADD20R,0.449999X0.549999*%
%ADD28R,1.019998X4.749991*%
%ADD44R,1.499997X1.499997*%
%ADD45C,1.499997*%
%ADD46C,1.549997*%
%ADD47R,1.549997X1.549997*%
%ADD48R,1.499997X1.499997*%
G54D12*
X26649Y16424D03*
Y15624D03*
X29599Y07874D03*
Y07074D03*
X28724D03*
Y07874D03*
X30474D03*
Y07074D03*
G54D16*
X29749Y13499D03*
X28949D03*
G54D20*
X23599Y14499D03*
X24499D03*
G54D28*
X30879Y02374D03*
X22379D03*
G54D44*
X44259Y58999D03*
X33739Y58939D03*
G54D45*
X46799Y58999D03*
X07099Y55984D03*
X49759Y16839D03*
Y19379D03*
Y21919D03*
Y24459D03*
Y26999D03*
Y29539D03*
Y32079D03*
X01499Y24459D03*
Y21919D03*
Y19379D03*
Y16839D03*
Y14299D03*
X49759Y41219D03*
Y58999D03*
Y56459D03*
Y53919D03*
Y51379D03*
Y48839D03*
Y46299D03*
Y43759D03*
Y38679D03*
X01499Y47319D03*
Y44779D03*
Y42239D03*
Y39699D03*
Y37159D03*
Y34619D03*
Y32079D03*
X18499Y56399D03*
Y58939D03*
X21039Y56399D03*
Y58939D03*
X23579Y56399D03*
Y58939D03*
X26119Y56399D03*
Y58939D03*
X28659Y56399D03*
Y58939D03*
X31199Y56399D03*
Y58939D03*
X33739Y56399D03*
G54D46*
X49759Y11324D03*
X01499Y52849D03*
X12689Y50449D03*
X15229D03*
G54D47*
X10149Y50449D03*
G54D48*
X07099Y58524D03*
X49759Y14299D03*
X01499Y26999D03*
X49759Y36139D03*
X01499Y49859D03*
M02*