%FSTAX23Y23*%
%MOMM*%
%SFA1B1*%

%IPPOS*%
%ADD22R,0.999998X0.999998*%
%ADD58R,1.299997X1.299997*%
%ADD59R,1.299997X1.299997*%
%ADD60R,1.299997X1.299997*%
%ADD61R,1.299997X1.299997*%
%ADD62R,1.299997X1.299997*%
%ADD63R,1.299997X1.299997*%
%ADD64R,1.299997X1.299997*%
%ADD65R,1.299997X1.299997*%
%ADD66R,1.299997X1.299997*%
%ADD67R,0.799998X0.999998*%
%ADD68R,0.619999X0.619999*%
%ADD69R,0.999998X0.799998*%
%ADD70R,0.749999X0.849998*%
%ADD71R,1.199998X1.199998*%
%ADD72R,0.619999X0.619999*%
%ADD73R,1.449997X1.049998*%
%ADD74R,1.399997X1.249998*%
%ADD75R,0.649999X0.549999*%
%ADD76R,0.549999X0.649999*%
%ADD77R,1.249998X1.499997*%
%ADD78R,0.899998X0.399999*%
%ADD79R,0.949998X0.699999*%
%ADD80R,0.299999X0.999998*%
%ADD81R,0.999998X0.299999*%
%ADD82R,1.119998X4.849990*%
%ADD83R,0.609999X2.009996*%
%ADD84R,1.099998X2.550095*%
%ADD85R,2.550095X1.099998*%
G54D22*
X38283Y57449D03*
Y59149D03*
X36474Y57449D03*
Y59149D03*
X40091Y57449D03*
Y59149D03*
X419Y57474D03*
Y59174D03*
G54D58*
X26724Y11849D03*
G54D59*
X26724Y14749D03*
G54D60*
X25274Y13299D03*
G54D61*
X28174Y13299D03*
G54D62*
X28174Y14749D03*
G54D63*
X28174Y11849D03*
G54D64*
X25274Y11849D03*
G54D65*
X25274Y14749D03*
G54D66*
X26724Y13299D03*
G54D67*
X33499Y15824D03*
X34899D03*
X33474Y17124D03*
X34874D03*
G54D68*
X33499Y13149D03*
Y13949D03*
X25974Y18849D03*
Y19649D03*
X31249Y10399D03*
Y09599D03*
X34474Y07374D03*
Y06574D03*
X17424Y10949D03*
Y10149D03*
X17049Y13649D03*
Y12849D03*
X17974Y13649D03*
Y12849D03*
X23674Y09449D03*
Y08649D03*
X21924Y16724D03*
Y15924D03*
X17749Y17124D03*
Y17924D03*
X29599Y07874D03*
Y07074D03*
X30474Y07874D03*
Y07074D03*
X26374Y08424D03*
Y07624D03*
X25474Y08424D03*
Y07624D03*
X28724Y07074D03*
Y07874D03*
G54D69*
X36474Y54649D03*
Y56049D03*
X40091Y54699D03*
Y56099D03*
X38283Y54649D03*
Y56049D03*
X41899Y54624D03*
Y56024D03*
G54D70*
X24249Y22099D03*
X25349D03*
G54D71*
X34149Y09849D03*
Y11649D03*
X38849Y09199D03*
Y07399D03*
G54D72*
X31699Y11299D03*
X32499D03*
X24074Y19149D03*
X23274D03*
X24274Y17349D03*
X23474D03*
X20899Y09899D03*
X20099D03*
X19174Y10149D03*
X18374D03*
X20099Y08999D03*
X20899D03*
X20049Y11049D03*
X19249D03*
X20899Y12599D03*
X20099D03*
X20949Y13599D03*
X20149D03*
G54D73*
X32674Y05774D03*
Y07374D03*
G54D74*
X36324Y11424D03*
X38024D03*
G54D75*
X21799Y08999D03*
Y09899D03*
X127Y48049D03*
Y48949D03*
G54D76*
X17049Y11899D03*
X17949D03*
G54D77*
X19074Y17549D03*
Y15349D03*
X20674Y17549D03*
Y15349D03*
G54D78*
X25274Y05499D03*
Y06124D03*
Y06774D03*
X26574Y05499D03*
Y06124D03*
Y06774D03*
G54D79*
X37124Y08674D03*
X35774D03*
X37124Y09774D03*
X35774D03*
G54D80*
X28924Y16249D03*
X28124D03*
X27324D03*
X26524D03*
X25724D03*
X24924D03*
X24524D03*
X25324D03*
X26124D03*
X26924D03*
X27724D03*
X28524D03*
X24524Y10349D03*
X25324D03*
X26124D03*
X26924D03*
X27724D03*
X28524D03*
X28924D03*
X28124D03*
X27324D03*
X26524D03*
X25724D03*
X24924D03*
G54D81*
X29674Y11099D03*
Y11899D03*
Y127D03*
Y13499D03*
Y14299D03*
Y15099D03*
Y15499D03*
Y14699D03*
Y13899D03*
Y13099D03*
Y12299D03*
Y11499D03*
X23774Y15099D03*
Y14299D03*
Y13499D03*
Y127D03*
Y11899D03*
Y11099D03*
Y11499D03*
Y12299D03*
Y13099D03*
Y13899D03*
Y14699D03*
Y15499D03*
G54D82*
X22379Y02374D03*
X30879D03*
G54D83*
X26629Y00954D03*
G54D84*
X12525Y13299D03*
X13925D03*
X11124D03*
X09724D03*
X08325D03*
X06925D03*
X05525D03*
X04125D03*
G54D85*
X15325Y10499D03*
Y091D03*
Y07699D03*
Y06299D03*
Y04899D03*
Y03499D03*
X02724Y10499D03*
Y091D03*
Y07699D03*
Y06299D03*
Y04899D03*
Y021D03*
Y03499D03*
X15325Y021D03*
Y007D03*
X02724D03*
M02*