%FSTAX23Y23*%
%MOMM*%
%SFA1B1*%

%IPPOS*%
%ADD115C,0.100000*%
G54D115*
X51069Y11324D02*
D01*
X51066Y11413*
X51057Y11501*
X51042Y11589*
X5102Y11675*
X50993Y11759*
X5096Y11841*
X50921Y11921*
X50877Y11997*
X50827Y12071*
X50772Y12141*
X50713Y12207*
X50649Y12268*
X50581Y12325*
X5051Y12377*
X50434Y12424*
X50356Y12466*
X50275Y12502*
X50192Y12532*
X50107Y12557*
X5002Y12575*
X49932Y12588*
X49844Y12594*
X49755*
X49667Y12588*
X49579Y12575*
X49492Y12557*
X49407Y12532*
X49324Y12502*
X49243Y12466*
X49164Y12424*
X49089Y12377*
X49018Y12325*
X4895Y12268*
X48886Y12207*
X48827Y12141*
X48772Y12071*
X48722Y11997*
X48678Y11921*
X48639Y11841*
X48606Y11759*
X48579Y11675*
X48557Y11589*
X48542Y11501*
X48533Y11413*
X48529Y11324*
X48533Y11236*
X48542Y11148*
X48557Y1106*
X48579Y10974*
X48606Y1089*
X48639Y10808*
X48678Y10728*
X48722Y10651*
X48772Y10578*
X48827Y10508*
X48886Y10442*
X4895Y10381*
X49018Y10324*
X49089Y10272*
X49164Y10225*
X49243Y10183*
X49324Y10147*
X49407Y10117*
X49492Y10092*
X49579Y10074*
X49667Y10061*
X49755Y10055*
X49844*
X49932Y10061*
X5002Y10074*
X50107Y10092*
X50192Y10117*
X50275Y10147*
X50356Y10183*
X50434Y10225*
X5051Y10272*
X50581Y10324*
X50649Y10381*
X50713Y10442*
X50772Y10508*
X50827Y10578*
X50877Y10651*
X50921Y10728*
X5096Y10808*
X50993Y1089*
X5102Y10974*
X51042Y1106*
X51057Y11148*
X51066Y11236*
X51069Y11324*
X02769Y52849D02*
D01*
X02766Y52938*
X02757Y53026*
X02742Y53114*
X0272Y532*
X02693Y53284*
X0266Y53366*
X02621Y53446*
X02577Y53522*
X02527Y53596*
X02472Y53666*
X02413Y53732*
X02349Y53793*
X02281Y5385*
X0221Y53902*
X02134Y53949*
X02056Y53991*
X01975Y54027*
X01892Y54057*
X01807Y54082*
X0172Y541*
X01632Y54113*
X01544Y54119*
X01455*
X01367Y54113*
X01279Y541*
X01192Y54082*
X01107Y54057*
X01024Y54027*
X00943Y53991*
X00864Y53949*
X00789Y53902*
X00718Y5385*
X0065Y53793*
X00586Y53732*
X00527Y53666*
X00472Y53596*
X00422Y53522*
X00378Y53446*
X00339Y53366*
X00306Y53284*
X00279Y532*
X00257Y53114*
X00242Y53026*
X00233Y52938*
X00229Y52849*
X00233Y52761*
X00242Y52673*
X00257Y52585*
X00279Y52499*
X00306Y52415*
X00339Y52333*
X00378Y52253*
X00422Y52176*
X00472Y52103*
X00527Y52033*
X00586Y51967*
X0065Y51906*
X00718Y51849*
X00789Y51797*
X00864Y5175*
X00943Y51708*
X01024Y51672*
X01107Y51642*
X01192Y51617*
X01279Y51599*
X01367Y51586*
X01455Y5158*
X01544*
X01632Y51586*
X0172Y51599*
X01807Y51617*
X01892Y51642*
X01975Y51672*
X02056Y51708*
X02134Y5175*
X0221Y51797*
X02281Y51849*
X02349Y51906*
X02413Y51967*
X02472Y52033*
X02527Y52103*
X02577Y52176*
X02621Y52253*
X0266Y52333*
X02693Y52415*
X0272Y52499*
X02742Y52585*
X02757Y52673*
X02766Y52761*
X02769Y52849*
X33349Y16299D02*
X35049D01*
X33349Y15349D02*
X35049D01*
X33349D02*
Y16299D01*
X35049Y15349D02*
Y16299D01*
X33324Y17599D02*
X35024D01*
X33324Y16649D02*
X35024D01*
X33324D02*
Y17599D01*
X35024Y16649D02*
Y17599D01*
X33199Y12999D02*
X33799D01*
X33199Y14099D02*
X33799D01*
X33199Y12999D02*
Y14099D01*
X33799Y12999D02*
Y14099D01*
X35999Y54499D02*
X36949D01*
X35999Y56199D02*
X36949D01*
X35999Y54499D02*
Y56199D01*
X36949Y54499D02*
Y56199D01*
X39616Y54549D02*
X40566D01*
X39616Y56249D02*
X40566D01*
X39616Y54549D02*
Y56249D01*
X40566Y54549D02*
Y56249D01*
X37808Y54499D02*
X38758D01*
X37808Y56199D02*
X38758D01*
X37808Y54499D02*
Y56199D01*
X38758Y54499D02*
Y56199D01*
X41424Y54474D02*
X42374D01*
X41424Y56174D02*
X42374D01*
X41424Y54474D02*
Y56174D01*
X42374Y54474D02*
Y56174D01*
X24274Y22374D02*
X25324D01*
X24274Y21824D02*
X25324D01*
X24274D02*
Y22374D01*
X25324Y21824D02*
Y22374D01*
X25674Y18699D02*
X26274D01*
X25674Y19799D02*
X26274D01*
X25674Y18699D02*
Y19799D01*
X26274Y18699D02*
Y19799D01*
X33674Y09874D02*
X34624D01*
X33674Y11624D02*
X34624D01*
X33674Y09874D02*
Y11624D01*
X34624Y09874D02*
Y11624D01*
X31549Y10999D02*
Y11599D01*
X32649Y10999D02*
Y11599D01*
X31549D02*
X32649D01*
X31549Y10999D02*
X32649D01*
X31949Y05474D02*
X33399D01*
X31949Y07674D02*
X33399D01*
X31949Y05474D02*
Y07674D01*
X33399Y05474D02*
Y07674D01*
X24224Y18849D02*
Y19449D01*
X23124Y18849D02*
Y19449D01*
Y18849D02*
X24224D01*
X23124Y19449D02*
X24224D01*
X24424Y17049D02*
Y17649D01*
X23324Y17049D02*
Y17649D01*
Y17049D02*
X24424D01*
X23324Y17649D02*
X24424D01*
X26349Y16574D02*
X26949D01*
X26349Y15474D02*
X26949D01*
X26349D02*
Y16574D01*
X26949Y15474D02*
Y16574D01*
X29899Y13199D02*
Y13799D01*
X28799Y13199D02*
Y13799D01*
X29899*
X28799Y13199D02*
X29899D01*
X30949Y10549D02*
X31549D01*
X30949Y09449D02*
X31549D01*
Y10549*
X30949Y09449D02*
Y10549D01*
X34174Y07524D02*
X34774D01*
X34174Y06424D02*
X34774D01*
Y07524*
X34174Y06424D02*
Y07524D01*
X36274Y10924D02*
Y11924D01*
X38074Y10924D02*
Y11924D01*
X36274D02*
X38074D01*
X36274Y10924D02*
X38074D01*
X38374Y09174D02*
X39324D01*
X38374Y07424D02*
X39324D01*
Y09174*
X38374Y07424D02*
Y09174D01*
X21524Y08924D02*
X22074D01*
X21524Y09974D02*
X22074D01*
X21524Y08924D02*
Y09974D01*
X22074Y08924D02*
Y09974D01*
X21049Y09599D02*
Y10199D01*
X19949Y09599D02*
Y10199D01*
Y09599D02*
X21049D01*
X19949Y10199D02*
X21049D01*
X19324Y09849D02*
Y10449D01*
X18224Y09849D02*
Y10449D01*
Y09849D02*
X19324D01*
X18224Y10449D02*
X19324D01*
X19949Y08699D02*
Y09299D01*
X21049Y08699D02*
Y09299D01*
X19949D02*
X21049D01*
X19949Y08699D02*
X21049D01*
X20199Y10749D02*
Y11349D01*
X19099Y10749D02*
Y11349D01*
Y10749D02*
X20199D01*
X19099Y11349D02*
X20199D01*
X17124Y11099D02*
X17724D01*
X17124Y09999D02*
X17724D01*
Y11099*
X17124Y09999D02*
Y11099D01*
X16749Y13799D02*
X17349D01*
X16749Y127D02*
X17349D01*
Y13799*
X16749Y127D02*
Y13799D01*
X17674D02*
X18274D01*
X17674Y127D02*
X18274D01*
Y13799*
X17674Y127D02*
Y13799D01*
X16974Y11624D02*
Y12174D01*
X18024Y11624D02*
Y12174D01*
X16974D02*
X18024D01*
X16974Y11624D02*
X18024D01*
X21049Y12299D02*
Y12899D01*
X19949Y12299D02*
Y12899D01*
Y12299D02*
X21049D01*
X19949Y12899D02*
X21049D01*
X21099Y13299D02*
Y13899D01*
X19999Y13299D02*
Y13899D01*
Y13299D02*
X21099D01*
X19999Y13899D02*
X21099D01*
X23524Y14224D02*
Y14774D01*
X24574Y14224D02*
Y14774D01*
X23524Y14224D02*
X24574D01*
X23524Y14774D02*
X24574D01*
X23374Y09599D02*
X23974D01*
X23374Y08499D02*
X23974D01*
Y09599*
X23374Y08499D02*
Y09599D01*
X21624Y16874D02*
X22225D01*
X21624Y15774D02*
X22225D01*
Y16874*
X21624Y15774D02*
Y16874D01*
X17449Y16974D02*
X18049D01*
X17449Y18074D02*
X18049D01*
X17449Y16974D02*
Y18074D01*
X18049Y16974D02*
Y18074D01*
X08689Y54509D02*
X16689D01*
X08689Y51969D02*
Y54509D01*
Y51969D02*
X16689D01*
Y54509*
X29299Y08024D02*
X29899D01*
X29299Y06924D02*
X29899D01*
Y08024*
X29299Y06924D02*
Y08024D01*
X30174D02*
X30774D01*
X30174Y06924D02*
X30774D01*
Y08024*
X30174Y06924D02*
Y08024D01*
X26074Y08574D02*
X26674D01*
X26074Y07474D02*
X26674D01*
Y08574*
X26074Y07474D02*
Y08574D01*
X25174D02*
X25774D01*
X25174Y07474D02*
X25774D01*
Y08574*
X25174Y07474D02*
Y08574D01*
X28424Y06924D02*
X29024D01*
X28424Y08024D02*
X29024D01*
X28424Y06924D02*
Y08024D01*
X29024Y06924D02*
Y08024D01*
X23724Y10299D02*
Y16299D01*
X29724*
X23724Y10299D02*
X29724D01*
Y16299*
X29299Y08024D02*
X29899D01*
X29299Y06924D02*
X29899D01*
X29299D02*
Y08024D01*
X29899Y06924D02*
Y08024D01*
X28424Y06924D02*
X29024D01*
X28424Y08024D02*
X29024D01*
Y06924D02*
Y08024D01*
X28424Y06924D02*
Y08024D01*
X30174D02*
X30774D01*
X30174Y06924D02*
X30774D01*
X30174D02*
Y08024D01*
X30774Y06924D02*
Y08024D01*
X12424Y47974D02*
X12974D01*
X12424Y49024D02*
X12974D01*
X12424Y47974D02*
Y49024D01*
X12974Y47974D02*
Y49024D01*
M02*