M48
;Layer_Color=9474304
;FILE_FORMAT=4:3
METRIC,LZ
;TYPE=PLATED
T1F00S00C0.300
T2F00S00C0.900
T3F00S00C1.016
T4F00S00C1.020
%
T01
X0005025Y00007
X0005Y0002075
Y00035
Y000495
Y0006325
Y00077
Y00091
X00129
X0012875Y0007675
Y0006275
Y0002075
Y0010575
X0015375Y0012925
X001925Y00126
Y00136
X0022Y0013725
X0025475Y00133
Y00121
X0026675
X0027875
X0027975Y00133
X0026675
X00307Y001375
X0031725Y0014275
X003245Y00137
X0032575Y001255
X0034375Y001315
X0036325Y001265
X0039625Y00107
X004035Y0007375
X00339Y000785
X003135Y0007875
X00305Y0006225
X0029625
X00287
X00276Y0006125
X00278Y0007825
X00295Y0009575
X00304Y00095
X003025Y001035
X0032175Y0010375
X0032575Y000945
X0032275Y0006175
X0032346Y000495
X0032Y000375
Y0002683
Y0001617
Y000055
X002985Y0000475
X0028875Y00005
Y0001567
X002985Y0001542
X0029825Y0002608
X002885Y0002633
Y00037
X0029825Y0003675
X003011Y000495
X0028992
X0034582
X00357
X003655Y0003825
Y0002758
Y0001692
Y0000625
X0034275
Y0001692
Y0002758
Y0003825
X0024375Y0003775
X00234Y000375
Y0002683
X0024375Y0002708
X00244Y0001642
X0023425Y0001617
Y000055
X00244Y0000575
X002015Y0000725
Y0001792
X0020125Y0002858
Y0003925
X0020175Y000485
Y0005917
X002015Y0006983
Y000805
X00183Y0008075
Y0007008
X0018325Y0005942
Y0004875
X001825Y0003975
Y0002908
X0018275Y0001842
Y0000775
X00224Y00049
Y0005967
X0022375Y0007033
Y00081
X0023675Y0007775
X002425Y0006125
X0022775Y000945
X0018375Y001105
X0021925Y001505
X0022625Y0018
X0022425Y001915
X0021375Y00206
X0024125Y00219
X0023275Y0024075
X0022225Y0026075
X002545Y0025325
X0026625Y0025375
X002675Y00286
X0026125Y0020675
X00268Y001885
X0026725Y00176
X002425Y0018175
X0025475Y00145
X0026675
X0027875
X003435Y0014775
X0038275Y0024425
X0037075Y0034475
X0035925Y003895
X00333Y00379
X0034675Y005325
X003645
X00382
X0014625Y0026075
X0019Y0018825
X0012175Y0016575
X0010875Y0017675
X00092Y001775
X0007825
X00062Y0017775
X00041Y001595
X0013525Y0027025
X00138Y00286
X00137Y003
X0012475Y002995
X0033225Y005905
X0041375Y005925
X00412Y0054375
T02
X004976Y00143
Y001684
Y001938
Y002192
Y002446
Y0027
Y002954
Y003208
Y003614
Y003868
Y004122
Y004376
Y00463
Y004884
Y005138
Y005392
X00015Y004986
Y004732
Y004478
Y004224
Y00397
Y003716
Y003462
Y003208
Y0027
Y002446
Y002192
Y001938
Y001684
Y00143
X00071Y0055985
Y0058525
X004976Y0059
Y005646
T03
X004976Y0011325
X004685Y00219
X0046875Y0027
X004685Y00323
X0045875Y00361
X004585Y0041225
Y004625
X0042575Y0043775
Y004884
X00426Y0038675
X00423Y002955
X00427Y0024475
X0042275Y00194
X0004475Y00219
X0004525Y002465
Y00274
X00015Y005285
T04
X0015375Y004995
X0017915
X0012835
M30
