G04 Layer_Color=255*
%FSLAX43Y43*%
%MOMM*%
G71*
G01*
G75*
%ADD13R,1.020X4.750*%
%ADD15R,0.520X0.520*%
%ADD24R,0.520X0.520*%
%ADD25R,0.450X0.550*%
%ADD42C,1.550*%
%ADD43C,1.500*%
%ADD44R,1.500X1.500*%
%ADD45R,1.550X1.550*%
D13*
X22380Y2375D02*
D03*
X30880D02*
D03*
D15*
X30475Y7075D02*
D03*
Y7875D02*
D03*
X28725Y7875D02*
D03*
Y7075D02*
D03*
X29600Y7075D02*
D03*
Y7875D02*
D03*
X26650Y15625D02*
D03*
Y16425D02*
D03*
D24*
X28950Y13500D02*
D03*
X29750D02*
D03*
D25*
X24500Y14500D02*
D03*
X23600D02*
D03*
D42*
X45875Y36100D02*
D03*
X4525Y27400D02*
D03*
X4475Y21900D02*
D03*
X42575Y48840D02*
D03*
X45850Y46250D02*
D03*
X42575Y43775D02*
D03*
X45850Y41225D02*
D03*
X42600Y38675D02*
D03*
X17915Y49950D02*
D03*
X15375D02*
D03*
X1500Y52850D02*
D03*
X49760Y11325D02*
D03*
X4525Y24650D02*
D03*
X46875Y27000D02*
D03*
X42700Y24475D02*
D03*
X46850Y21900D02*
D03*
X42275Y19400D02*
D03*
X46850Y32300D02*
D03*
X42300Y29550D02*
D03*
D43*
X1500Y32080D02*
D03*
Y34620D02*
D03*
Y37160D02*
D03*
Y39700D02*
D03*
Y42240D02*
D03*
Y44780D02*
D03*
Y47320D02*
D03*
X49760Y38680D02*
D03*
Y43760D02*
D03*
Y46300D02*
D03*
Y48840D02*
D03*
Y51380D02*
D03*
Y53920D02*
D03*
Y56460D02*
D03*
Y59000D02*
D03*
Y41220D02*
D03*
X1500Y14300D02*
D03*
Y16840D02*
D03*
Y19380D02*
D03*
Y21920D02*
D03*
Y24460D02*
D03*
X49760Y32080D02*
D03*
Y29540D02*
D03*
Y27000D02*
D03*
Y24460D02*
D03*
Y21920D02*
D03*
Y19380D02*
D03*
Y16840D02*
D03*
X7100Y55985D02*
D03*
D44*
X1500Y49860D02*
D03*
X49760Y36140D02*
D03*
X1500Y27000D02*
D03*
X49760Y14300D02*
D03*
X7100Y58525D02*
D03*
D45*
X12835Y49950D02*
D03*
M02*
