G04 Layer_Physical_Order=4*
G04 Layer_Color=16711680*
%FSLAX43Y43*%
%MOMM*%
G71*
G01*
G75*
%ADD10C,0.254*%
%ADD13R,1.020X4.750*%
%ADD15R,0.520X0.520*%
%ADD24R,0.520X0.520*%
%ADD25R,0.450X0.550*%
%ADD31C,0.200*%
%ADD32C,0.500*%
%ADD37C,0.750*%
%ADD38C,0.150*%
%ADD39R,6.225X3.500*%
%ADD42C,1.550*%
%ADD43C,1.500*%
%ADD44R,1.500X1.500*%
%ADD45R,1.550X1.550*%
%ADD46C,0.600*%
%ADD52C,0.900*%
%ADD53R,8.750X5.575*%
%ADD54R,11.575X5.025*%
D10*
X3825Y58175D02*
G03*
X3825Y58175I-1450J0D01*
G01*
X50175Y2425D02*
G03*
X50175Y2425I-1450J0D01*
G01*
D13*
X22380Y2375D02*
D03*
X30880D02*
D03*
D15*
X30475Y7075D02*
D03*
Y7875D02*
D03*
X28725Y7875D02*
D03*
Y7075D02*
D03*
X29600Y7075D02*
D03*
Y7875D02*
D03*
X26650Y15625D02*
D03*
Y16425D02*
D03*
D24*
X28950Y13500D02*
D03*
X29750D02*
D03*
D25*
X24500Y14500D02*
D03*
X23600D02*
D03*
D31*
X4125Y27000D02*
X4525Y27400D01*
X1500Y27000D02*
X4125D01*
X10400Y4550D02*
Y14800D01*
X8950Y7450D02*
Y15750D01*
X7875Y9200D02*
Y16425D01*
X5000Y7700D02*
X6525Y9225D01*
Y16450D01*
X5525Y17100D02*
X6200Y17775D01*
X27800Y7875D02*
X28725D01*
X27975Y25375D02*
X37075Y34475D01*
X26625Y25375D02*
X27975D01*
X25450Y25325D02*
X38800Y38675D01*
X14625Y26075D02*
X22225D01*
X10400Y14800D02*
X12175Y16575D01*
X10400Y4550D02*
X12875Y2075D01*
X23750Y27025D02*
X25450Y25325D01*
X13525Y27025D02*
X23750D01*
X8950Y15750D02*
X10875Y17675D01*
X10975Y19380D02*
X18805Y11550D01*
X1500Y19380D02*
X10975D01*
X5000Y3500D02*
X8950Y7450D01*
X13800Y28600D02*
X26750D01*
X11850Y27400D02*
X22550Y16700D01*
X4525Y27400D02*
X11850D01*
X7875Y16425D02*
X9200Y17750D01*
X5000Y6325D02*
X7875Y9200D01*
X25400Y30000D02*
X33300Y37900D01*
X13700Y30000D02*
X25400D01*
X12475Y29950D02*
X21475Y38950D01*
X35925D01*
X26640Y41225D02*
X45850D01*
X17915Y49950D02*
X26640Y41225D01*
X6525Y16450D02*
X7825Y17750D01*
X5525Y9625D02*
Y17100D01*
X5000Y9100D02*
X5525Y9625D01*
X18805Y11550D02*
X30300D01*
X30500Y5678D02*
X31228Y4950D01*
X30500Y5678D02*
Y6225D01*
X29625Y5435D02*
X30110Y4950D01*
X29625Y5435D02*
Y6225D01*
X28700Y5242D02*
X28992Y4950D01*
X28700Y5242D02*
Y6225D01*
X30000Y13750D02*
X30700D01*
X31725Y13875D02*
Y14275D01*
X30450Y12600D02*
X31725Y13875D01*
X26650Y16425D02*
X28025D01*
X29750Y14700D01*
Y13500D02*
Y14700D01*
X33900Y7850D02*
X35250Y9200D01*
X36450Y10300D02*
X39750Y13600D01*
X36450Y9050D02*
Y10300D01*
X34425Y7025D02*
X36450Y9050D01*
X33475Y7025D02*
X34425D01*
X33000Y7500D02*
X33475Y7025D01*
X33000Y7500D02*
Y8100D01*
X32150Y8950D02*
X33000Y8100D01*
X30125Y8950D02*
X32150D01*
X29500Y9575D02*
X30125Y8950D01*
X35250Y9200D02*
Y14875D01*
X31275Y18850D02*
X35250Y14875D01*
X26800Y18850D02*
X31275D01*
X25825Y18150D02*
X31200D01*
X24375Y16700D02*
X25825Y18150D01*
X31200D02*
X33500Y15850D01*
X28725Y6250D02*
Y7075D01*
X28700Y6225D02*
X28725Y6250D01*
X29600Y6250D02*
Y7075D01*
Y6250D02*
X29625Y6225D01*
X30475Y6250D02*
Y7075D01*
Y6250D02*
X30500Y6225D01*
X22775Y14500D02*
X23600D01*
X22000Y13725D02*
X22775Y14500D01*
X28725Y7875D02*
X29600D01*
X29600Y7875D02*
X30475D01*
X29600Y7875D02*
X29600Y7875D01*
X30475D02*
X31350D01*
X29750Y13500D02*
X30000Y13750D01*
X26650Y14525D02*
Y15625D01*
X24500Y14500D02*
X25475D01*
X26650Y14525D02*
X26675Y14500D01*
X25268Y12600D02*
X30450D01*
X25218Y12550D02*
X25268Y12600D01*
X21375Y12550D02*
X25218D01*
X12025Y21900D02*
X21375Y12550D01*
X4475Y21900D02*
X12025D01*
X1500Y21920D02*
X4455D01*
X4475Y21900D01*
X1500Y24460D02*
X4335D01*
X4525Y24650D01*
X30300Y11550D02*
X32450Y13700D01*
X29500Y11100D02*
X30250Y10350D01*
X19900Y11100D02*
X29500D01*
X18750Y9950D02*
X19900Y11100D01*
X18025Y9950D02*
X18750D01*
X15212Y12762D02*
X15375Y12925D01*
X15212Y12762D02*
X18025Y9950D01*
X49755Y38675D02*
X49760Y38680D01*
X49755Y41225D02*
X49760Y41220D01*
X49720Y36100D02*
X49760Y36140D01*
X49745Y43775D02*
X49760Y43760D01*
X26650Y17525D02*
X26725Y17600D01*
X26650Y16425D02*
Y17525D01*
X49740Y19400D02*
X49760Y19380D01*
X49740Y21900D02*
X49760Y21920D01*
X49745Y24475D02*
X49760Y24460D01*
X49750Y29550D02*
X49760Y29540D01*
X49540Y32300D02*
X49760Y32080D01*
X49735Y46275D02*
X49760Y46300D01*
X32575Y12550D02*
X33500Y13475D01*
Y15850D01*
X22550Y16700D02*
X24375D01*
X38800Y38675D02*
X42600D01*
X46850Y32300D02*
X46975D01*
X41200Y54375D02*
X46225D01*
X46975Y32300D02*
X48725Y34050D01*
Y51875D01*
X46225Y54375D02*
X48725Y51875D01*
X42300Y29550D02*
X48300Y35550D01*
X38200Y53250D02*
X46650D01*
X48300Y51600D01*
Y35550D02*
Y51600D01*
X39750Y13600D02*
Y32500D01*
X43350Y36100D01*
X45875D01*
X36450Y53250D02*
X37100Y52600D01*
X46650D01*
X47825Y51425D01*
Y35825D02*
Y51425D01*
X42975Y30975D02*
X47825Y35825D01*
X41175Y30975D02*
X42975D01*
X40600Y30400D02*
X41175Y30975D01*
X40600Y26575D02*
Y30400D01*
Y26575D02*
X42700Y24475D01*
X34675Y53250D02*
X36175Y51750D01*
X46225D01*
X47525Y50450D01*
Y40650D02*
Y50450D01*
X43700Y36825D02*
X47525Y40650D01*
X41575Y36825D02*
X43700D01*
X38275Y33525D02*
X41575Y36825D01*
X38275Y24425D02*
Y33525D01*
D32*
X28175Y13500D02*
X28950D01*
X27975Y13300D02*
X28175Y13500D01*
D37*
X24250Y18175D02*
X25725Y19650D01*
X31650D01*
X36325Y14975D01*
Y12650D02*
Y14975D01*
D38*
X16750Y56450D02*
Y57650D01*
X17350Y57050D01*
X16550D01*
X16150Y56450D02*
Y56650D01*
X15950D01*
Y56450D01*
X16150D01*
X15151D02*
Y56650D01*
X14951D01*
Y56450D01*
X15151D01*
X14151D02*
Y56650D01*
X13951D01*
Y56450D01*
X14151D01*
X11952Y57650D02*
Y56450D01*
X11352D01*
X11152Y56650D01*
Y56850D01*
X11352Y57050D01*
X11952D01*
X11352D01*
X11152Y57250D01*
Y57450D01*
X11352Y57650D01*
X11952D01*
X10152D02*
X10552D01*
X10752Y57450D01*
Y56650D01*
X10552Y56450D01*
X10152D01*
X9952Y56650D01*
Y57450D01*
X10152Y57650D01*
X9553D02*
X8753D01*
X9153D01*
Y56450D01*
D39*
X19938Y6875D02*
D03*
D42*
X45875Y36100D02*
D03*
X4525Y27400D02*
D03*
X4475Y21900D02*
D03*
X42575Y48840D02*
D03*
X45850Y46250D02*
D03*
X42575Y43775D02*
D03*
X45850Y41225D02*
D03*
X42600Y38675D02*
D03*
X17915Y49950D02*
D03*
X15375D02*
D03*
X1500Y52850D02*
D03*
X49760Y11325D02*
D03*
X4525Y24650D02*
D03*
X46875Y27000D02*
D03*
X42700Y24475D02*
D03*
X46850Y21900D02*
D03*
X42275Y19400D02*
D03*
X46850Y32300D02*
D03*
X42300Y29550D02*
D03*
D43*
X1500Y32080D02*
D03*
Y34620D02*
D03*
Y37160D02*
D03*
Y39700D02*
D03*
Y42240D02*
D03*
Y44780D02*
D03*
Y47320D02*
D03*
X49760Y38680D02*
D03*
Y43760D02*
D03*
Y46300D02*
D03*
Y48840D02*
D03*
Y51380D02*
D03*
Y53920D02*
D03*
Y56460D02*
D03*
Y59000D02*
D03*
Y41220D02*
D03*
X1500Y14300D02*
D03*
Y16840D02*
D03*
Y19380D02*
D03*
Y21920D02*
D03*
Y24460D02*
D03*
X49760Y32080D02*
D03*
Y29540D02*
D03*
Y27000D02*
D03*
Y24460D02*
D03*
Y21920D02*
D03*
Y19380D02*
D03*
Y16840D02*
D03*
X7100Y55985D02*
D03*
D44*
X1500Y49860D02*
D03*
X49760Y36140D02*
D03*
X1500Y27000D02*
D03*
X49760Y14300D02*
D03*
X7100Y58525D02*
D03*
D45*
X12835Y49950D02*
D03*
D46*
X4100Y15950D02*
D03*
X37075Y34475D02*
D03*
X26625Y25375D02*
D03*
X22225Y26075D02*
D03*
X14625D02*
D03*
X12175Y16575D02*
D03*
X13525Y27025D02*
D03*
X10875Y17675D02*
D03*
X26750Y28600D02*
D03*
X13800D02*
D03*
X9200Y17750D02*
D03*
X33300Y37900D02*
D03*
X13700Y30000D02*
D03*
X35925Y38950D02*
D03*
X7825Y17750D02*
D03*
X12475Y29950D02*
D03*
X6200Y17775D02*
D03*
X12875Y2075D02*
D03*
X5000Y9100D02*
D03*
Y7700D02*
D03*
Y6325D02*
D03*
Y3500D02*
D03*
X12875Y10575D02*
D03*
Y6275D02*
D03*
Y7675D02*
D03*
X12900Y9100D02*
D03*
X5000Y4950D02*
D03*
X5025Y700D02*
D03*
X5000Y2075D02*
D03*
X32000Y3750D02*
D03*
X36550Y1692D02*
D03*
X34275Y625D02*
D03*
X36550Y3825D02*
D03*
X34275D02*
D03*
Y2758D02*
D03*
X36550D02*
D03*
X28992Y4950D02*
D03*
X30110D02*
D03*
X22375Y8100D02*
D03*
Y7033D02*
D03*
X22400Y4900D02*
D03*
Y5967D02*
D03*
X20150Y8050D02*
D03*
Y6983D02*
D03*
X20175Y4850D02*
D03*
Y5917D02*
D03*
X18300Y8075D02*
D03*
Y7008D02*
D03*
X18325Y4875D02*
D03*
Y5942D02*
D03*
X18250Y3975D02*
D03*
Y2908D02*
D03*
X18275Y775D02*
D03*
Y1842D02*
D03*
X20125Y3925D02*
D03*
Y2858D02*
D03*
X20150Y725D02*
D03*
Y1792D02*
D03*
X23400Y3750D02*
D03*
Y2683D02*
D03*
X23425Y550D02*
D03*
Y1617D02*
D03*
X24375Y3775D02*
D03*
Y2708D02*
D03*
X24400Y575D02*
D03*
Y1642D02*
D03*
X32346Y4950D02*
D03*
X35700D02*
D03*
X34582D02*
D03*
X36550Y625D02*
D03*
X34275Y1692D02*
D03*
X29825Y3675D02*
D03*
Y2608D02*
D03*
X29850Y475D02*
D03*
Y1542D02*
D03*
X28850Y3700D02*
D03*
Y2633D02*
D03*
X28875Y500D02*
D03*
Y1567D02*
D03*
X32000Y2683D02*
D03*
Y550D02*
D03*
Y1617D02*
D03*
X30700Y13750D02*
D03*
X31725Y14275D02*
D03*
X34350Y14775D02*
D03*
X27600Y6125D02*
D03*
X24250D02*
D03*
X40350Y7375D02*
D03*
X33900Y7850D02*
D03*
X26800Y18850D02*
D03*
X31350Y7875D02*
D03*
X29625Y6225D02*
D03*
X30500D02*
D03*
X28700D02*
D03*
X26675Y12100D02*
D03*
X25475D02*
D03*
X41375Y59250D02*
D03*
X33225Y59050D02*
D03*
X23675Y7775D02*
D03*
X22775Y9450D02*
D03*
X22000Y13725D02*
D03*
X21925Y15050D02*
D03*
X19000Y18825D02*
D03*
X19250Y13600D02*
D03*
Y12600D02*
D03*
X18375Y11050D02*
D03*
X27800Y7825D02*
D03*
X32275Y6175D02*
D03*
X30250Y10350D02*
D03*
X29500Y9575D02*
D03*
X32175Y10375D02*
D03*
X39625Y10700D02*
D03*
X32575Y9450D02*
D03*
X22625Y18000D02*
D03*
X22425Y19150D02*
D03*
X21375Y20600D02*
D03*
X24125Y21900D02*
D03*
X24250Y18175D02*
D03*
X36325Y12650D02*
D03*
X27875Y12100D02*
D03*
X27975Y13300D02*
D03*
X25475Y14500D02*
D03*
X26675Y13300D02*
D03*
X27875Y14500D02*
D03*
X26675D02*
D03*
X25475Y13300D02*
D03*
X34375Y13150D02*
D03*
X30400Y9500D02*
D03*
X32450Y13700D02*
D03*
X32575Y12550D02*
D03*
X26125Y20675D02*
D03*
X15375Y12925D02*
D03*
X23275Y24075D02*
D03*
X26725Y17600D02*
D03*
X25450Y25325D02*
D03*
X41200Y54375D02*
D03*
X38200Y53250D02*
D03*
X36450D02*
D03*
X34675D02*
D03*
X38275Y24425D02*
D03*
D52*
X1500Y42240D02*
X3350Y44090D01*
Y52235D02*
X7100Y55985D01*
X3350Y44090D02*
Y52235D01*
D53*
X32775Y2888D02*
D03*
D54*
X22612Y2612D02*
D03*
M02*
