G04 Layer_Color=255*
%FSLAX43Y43*%
%MOMM*%
G71*
G01*
G75*
%ADD11R,2.450X1.000*%
%ADD12R,1.000X2.450*%
%ADD13R,1.020X4.750*%
%ADD14R,0.510X1.910*%
%ADD15R,0.520X0.520*%
%ADD16R,0.900X0.200*%
%ADD17R,4.400X4.400*%
%ADD18R,0.200X0.900*%
%ADD19R,0.850X0.600*%
%ADD20R,0.800X0.300*%
%ADD21R,1.000X1.000*%
%ADD22R,1.150X1.400*%
%ADD23R,0.750X0.650*%
%ADD24R,0.520X0.520*%
%ADD25R,0.450X0.550*%
%ADD26R,0.550X0.450*%
%ADD27R,1.100X1.100*%
%ADD28R,1.300X1.150*%
%ADD29R,0.950X1.350*%
%ADD30R,0.650X0.750*%
%ADD42C,1.550*%
%ADD43C,1.500*%
%ADD44R,1.500X1.500*%
%ADD45R,1.550X1.550*%
D11*
X2725Y700D02*
D03*
X15325D02*
D03*
Y2100D02*
D03*
X2725Y3500D02*
D03*
Y2100D02*
D03*
Y4900D02*
D03*
Y6300D02*
D03*
Y7700D02*
D03*
Y9100D02*
D03*
Y10500D02*
D03*
X15325Y3500D02*
D03*
Y4900D02*
D03*
Y6300D02*
D03*
Y7700D02*
D03*
Y9100D02*
D03*
Y10500D02*
D03*
D12*
X4125Y13300D02*
D03*
X5525D02*
D03*
X6925D02*
D03*
X8325D02*
D03*
X9725D02*
D03*
X11125D02*
D03*
X13925D02*
D03*
X12525D02*
D03*
D13*
X30880Y2375D02*
D03*
X22380D02*
D03*
D14*
X26630Y955D02*
D03*
D15*
X33500Y13950D02*
D03*
Y13150D02*
D03*
X28725Y7875D02*
D03*
Y7075D02*
D03*
X25475Y7625D02*
D03*
Y8425D02*
D03*
X26375Y7625D02*
D03*
Y8425D02*
D03*
X30475Y7075D02*
D03*
Y7875D02*
D03*
X29600Y7075D02*
D03*
Y7875D02*
D03*
X17750Y17925D02*
D03*
Y17125D02*
D03*
X21925Y15925D02*
D03*
Y16725D02*
D03*
X23675Y8650D02*
D03*
Y9450D02*
D03*
X17200Y12950D02*
D03*
Y13750D02*
D03*
X16275Y12950D02*
D03*
Y13750D02*
D03*
X18375Y13950D02*
D03*
Y13150D02*
D03*
X32275Y7050D02*
D03*
Y7850D02*
D03*
X31250Y9600D02*
D03*
Y10400D02*
D03*
X25975Y19650D02*
D03*
Y18850D02*
D03*
D16*
X23775Y15500D02*
D03*
Y14700D02*
D03*
Y13900D02*
D03*
Y13100D02*
D03*
Y12300D02*
D03*
Y11500D02*
D03*
Y11100D02*
D03*
Y11900D02*
D03*
Y12700D02*
D03*
Y13500D02*
D03*
Y14300D02*
D03*
Y15100D02*
D03*
X29675Y11500D02*
D03*
Y12300D02*
D03*
Y13100D02*
D03*
Y13900D02*
D03*
Y14700D02*
D03*
Y15500D02*
D03*
Y15100D02*
D03*
Y14300D02*
D03*
Y13500D02*
D03*
Y12700D02*
D03*
Y11900D02*
D03*
Y11100D02*
D03*
D17*
X26725Y13300D02*
D03*
D18*
X24925Y10350D02*
D03*
X25725D02*
D03*
X26525D02*
D03*
X27325D02*
D03*
X28125D02*
D03*
X28925D02*
D03*
X28525D02*
D03*
X27725D02*
D03*
X26925D02*
D03*
X26125D02*
D03*
X25325D02*
D03*
X24525D02*
D03*
X28525Y16250D02*
D03*
X27725D02*
D03*
X26925D02*
D03*
X26125D02*
D03*
X25325D02*
D03*
X24525D02*
D03*
X24925D02*
D03*
X25725D02*
D03*
X26525D02*
D03*
X27325D02*
D03*
X28125D02*
D03*
X28925D02*
D03*
D19*
X35775Y9775D02*
D03*
X37125D02*
D03*
X35775Y8675D02*
D03*
X37125D02*
D03*
D20*
X26575Y6775D02*
D03*
Y6125D02*
D03*
Y5500D02*
D03*
X25275Y6775D02*
D03*
Y6125D02*
D03*
Y5500D02*
D03*
D21*
X40050Y58725D02*
D03*
Y57025D02*
D03*
X38225Y58700D02*
D03*
Y57000D02*
D03*
X36450Y58700D02*
D03*
Y57000D02*
D03*
X34675Y58700D02*
D03*
Y57000D02*
D03*
D22*
X20675Y15350D02*
D03*
Y17550D02*
D03*
X19075Y15350D02*
D03*
Y17550D02*
D03*
D23*
X36450Y54350D02*
D03*
Y55450D02*
D03*
X34675D02*
D03*
Y54350D02*
D03*
X40050Y55475D02*
D03*
Y54375D02*
D03*
X38225Y55450D02*
D03*
Y54350D02*
D03*
D24*
X20150Y13600D02*
D03*
X20950D02*
D03*
X20100Y12600D02*
D03*
X20900D02*
D03*
X19250Y11050D02*
D03*
X20050D02*
D03*
X20900Y9250D02*
D03*
X20100D02*
D03*
X18375Y10150D02*
D03*
X19175D02*
D03*
X20100D02*
D03*
X20900D02*
D03*
X23475Y17350D02*
D03*
X24275D02*
D03*
X23275Y19150D02*
D03*
X24075D02*
D03*
X32125Y11350D02*
D03*
X31325D02*
D03*
D25*
X17825Y11900D02*
D03*
X16925D02*
D03*
D26*
X21800Y10150D02*
D03*
Y9250D02*
D03*
X15375Y46050D02*
D03*
Y45150D02*
D03*
D27*
X38850Y7400D02*
D03*
Y9200D02*
D03*
X34150Y11650D02*
D03*
Y9850D02*
D03*
D28*
X38025Y11425D02*
D03*
X36325D02*
D03*
D29*
X24075Y20575D02*
D03*
X22475D02*
D03*
D30*
X25425Y24075D02*
D03*
X24325D02*
D03*
D42*
X45875Y36100D02*
D03*
X4525Y27400D02*
D03*
X4475Y21900D02*
D03*
X42575Y48840D02*
D03*
X45850Y46250D02*
D03*
X42575Y43775D02*
D03*
X45850Y41225D02*
D03*
X42600Y38675D02*
D03*
X17915Y49950D02*
D03*
X15375D02*
D03*
X1500Y52850D02*
D03*
X49760Y11325D02*
D03*
X4525Y24650D02*
D03*
X46875Y27000D02*
D03*
X42700Y24475D02*
D03*
X46850Y21900D02*
D03*
X42275Y19400D02*
D03*
X46850Y32300D02*
D03*
X42300Y29550D02*
D03*
D43*
X1500Y32080D02*
D03*
Y34620D02*
D03*
Y37160D02*
D03*
Y39700D02*
D03*
Y42240D02*
D03*
Y44780D02*
D03*
Y47320D02*
D03*
X49760Y38680D02*
D03*
Y43760D02*
D03*
Y46300D02*
D03*
Y48840D02*
D03*
Y51380D02*
D03*
Y53920D02*
D03*
Y56460D02*
D03*
Y59000D02*
D03*
Y41220D02*
D03*
X1500Y14300D02*
D03*
Y16840D02*
D03*
Y19380D02*
D03*
Y21920D02*
D03*
Y24460D02*
D03*
X49760Y32080D02*
D03*
Y29540D02*
D03*
Y27000D02*
D03*
Y24460D02*
D03*
Y21920D02*
D03*
Y19380D02*
D03*
Y16840D02*
D03*
X7100Y55985D02*
D03*
D44*
X1500Y49860D02*
D03*
X49760Y36140D02*
D03*
X1500Y27000D02*
D03*
X49760Y14300D02*
D03*
X7100Y58525D02*
D03*
D45*
X12835Y49950D02*
D03*
M02*
