G04 Layer_Physical_Order=3*
G04 Layer_Color=128*
%FSLAX43Y43*%
%MOMM*%
G71*
G01*
G75*
%ADD10C,0.254*%
%ADD38C,0.150*%
%ADD47C,1.016*%
%ADD48C,2.032*%
%ADD49C,1.916*%
%ADD50C,2.036*%
%ADD51C,1.316*%
D10*
X3825Y58175D02*
G03*
X3825Y58175I-1450J0D01*
G01*
X50175Y2425D02*
G03*
X50175Y2425I-1450J0D01*
G01*
D38*
X13625Y56525D02*
Y56725D01*
X13825D01*
Y56525D01*
X13625D01*
X14625D02*
Y56725D01*
X14825D01*
Y56525D01*
X14625D01*
X15624Y57525D02*
X15824Y57725D01*
X16224D01*
X16424Y57525D01*
Y57325D01*
X16224Y57125D01*
X16024D01*
X16224D01*
X16424Y56925D01*
Y56725D01*
X16224Y56525D01*
X15824D01*
X15624Y56725D01*
X16824Y56525D02*
Y56725D01*
X17024D01*
Y56525D01*
X16824D01*
D47*
X0Y0D02*
X51260D01*
Y60500D01*
X0D02*
X51260D01*
X0Y0D02*
Y60500D01*
D48*
X45875Y36100D02*
D03*
X4525Y27400D02*
D03*
X4475Y21900D02*
D03*
X42575Y48840D02*
D03*
X45850Y46250D02*
D03*
X42575Y43775D02*
D03*
X45850Y41225D02*
D03*
X42600Y38675D02*
D03*
X1500Y52850D02*
D03*
X49760Y11325D02*
D03*
X4525Y24650D02*
D03*
X46875Y27000D02*
D03*
X42700Y24475D02*
D03*
X46850Y21900D02*
D03*
X42275Y19400D02*
D03*
X46850Y32300D02*
D03*
X42300Y29550D02*
D03*
D49*
X1500Y32080D02*
D03*
Y34620D02*
D03*
Y37160D02*
D03*
Y39700D02*
D03*
Y42240D02*
D03*
Y44780D02*
D03*
Y47320D02*
D03*
Y49860D02*
D03*
X49760Y36140D02*
D03*
Y38680D02*
D03*
Y43760D02*
D03*
Y46300D02*
D03*
Y48840D02*
D03*
Y51380D02*
D03*
Y53920D02*
D03*
Y56460D02*
D03*
Y59000D02*
D03*
Y41220D02*
D03*
X1500Y14300D02*
D03*
Y16840D02*
D03*
Y19380D02*
D03*
Y21920D02*
D03*
Y24460D02*
D03*
Y27000D02*
D03*
X49760Y32080D02*
D03*
Y29540D02*
D03*
Y27000D02*
D03*
Y24460D02*
D03*
Y21920D02*
D03*
Y19380D02*
D03*
Y16840D02*
D03*
Y14300D02*
D03*
X7100Y55985D02*
D03*
D50*
X17915Y49950D02*
D03*
X15375D02*
D03*
X12835D02*
D03*
D51*
X4100Y15950D02*
D03*
X37075Y34475D02*
D03*
X26625Y25375D02*
D03*
X22225Y26075D02*
D03*
X14625D02*
D03*
X12175Y16575D02*
D03*
X13525Y27025D02*
D03*
X10875Y17675D02*
D03*
X26750Y28600D02*
D03*
X13800D02*
D03*
X9200Y17750D02*
D03*
X33300Y37900D02*
D03*
X13700Y30000D02*
D03*
X35925Y38950D02*
D03*
X7825Y17750D02*
D03*
X12475Y29950D02*
D03*
X6200Y17775D02*
D03*
X12875Y2075D02*
D03*
X5000Y9100D02*
D03*
Y7700D02*
D03*
Y6325D02*
D03*
Y3500D02*
D03*
X12875Y10575D02*
D03*
X5000Y4950D02*
D03*
X5025Y700D02*
D03*
X5000Y2075D02*
D03*
X32000Y3750D02*
D03*
X36550Y1692D02*
D03*
X34275Y625D02*
D03*
X36550Y3825D02*
D03*
X34275D02*
D03*
Y2758D02*
D03*
X36550D02*
D03*
X28992Y4950D02*
D03*
X30110D02*
D03*
X22375Y8100D02*
D03*
Y7033D02*
D03*
X22400Y4900D02*
D03*
Y5967D02*
D03*
X20150Y8050D02*
D03*
Y6983D02*
D03*
X20175Y4850D02*
D03*
Y5917D02*
D03*
X18300Y8075D02*
D03*
Y7008D02*
D03*
X18325Y4875D02*
D03*
Y5942D02*
D03*
X18250Y3975D02*
D03*
Y2908D02*
D03*
X18275Y775D02*
D03*
Y1842D02*
D03*
X20125Y3925D02*
D03*
Y2858D02*
D03*
X20150Y725D02*
D03*
Y1792D02*
D03*
X23400Y3750D02*
D03*
Y2683D02*
D03*
X23425Y550D02*
D03*
Y1617D02*
D03*
X24375Y3775D02*
D03*
Y2708D02*
D03*
X24400Y575D02*
D03*
Y1642D02*
D03*
X32346Y4950D02*
D03*
X35700D02*
D03*
X34582D02*
D03*
X36550Y625D02*
D03*
X34275Y1692D02*
D03*
X29825Y3675D02*
D03*
Y2608D02*
D03*
X29850Y475D02*
D03*
Y1542D02*
D03*
X28850Y3700D02*
D03*
Y2633D02*
D03*
X28875Y500D02*
D03*
Y1567D02*
D03*
X32000Y2683D02*
D03*
Y550D02*
D03*
Y1617D02*
D03*
X30700Y13750D02*
D03*
X31725Y14275D02*
D03*
X34350Y14775D02*
D03*
X27600Y6125D02*
D03*
X24250D02*
D03*
X33900Y7850D02*
D03*
X26800Y18850D02*
D03*
X29625Y6225D02*
D03*
X30500D02*
D03*
X28700D02*
D03*
X26675Y12100D02*
D03*
X25475D02*
D03*
X41375Y59250D02*
D03*
X33225Y59050D02*
D03*
X23675Y7775D02*
D03*
X22000Y13725D02*
D03*
X21925Y15050D02*
D03*
X19000Y18825D02*
D03*
X19250Y13600D02*
D03*
Y12600D02*
D03*
X18375Y11050D02*
D03*
X32275Y6175D02*
D03*
X30250Y10350D02*
D03*
X29500Y9575D02*
D03*
X39625Y10700D02*
D03*
X32575Y9450D02*
D03*
X22625Y18000D02*
D03*
X22425Y19150D02*
D03*
X21375Y20600D02*
D03*
X24250Y18175D02*
D03*
X36325Y12650D02*
D03*
X27875Y12100D02*
D03*
X27975Y13300D02*
D03*
X25475Y14500D02*
D03*
X26675Y13300D02*
D03*
X27875Y14500D02*
D03*
X26675D02*
D03*
X25475Y13300D02*
D03*
X30400Y9500D02*
D03*
X32450Y13700D02*
D03*
X32575Y12550D02*
D03*
X26125Y20675D02*
D03*
X15375Y12925D02*
D03*
X23275Y24075D02*
D03*
X26725Y17600D02*
D03*
X25450Y25325D02*
D03*
X41200Y54375D02*
D03*
X38200Y53250D02*
D03*
X36450D02*
D03*
X34675D02*
D03*
X38275Y24425D02*
D03*
M02*
