%FSLAX44Y44*%
%MOMM*%
%SFA1B1*%

%IPPOS*%
%ADD132C,0.127000*%
%ADD133C,0.169300*%
G54D132*
X492519Y137919D02*
Y148079D01*
X502679*
Y137919*
X492519*
Y163319D02*
Y173479D01*
X502679*
Y163319*
X492519*
Y188719D02*
Y198879D01*
X502679*
Y188719*
X492519*
Y214119D02*
Y224279D01*
X502679*
Y214119*
X492519*
Y239519D02*
Y249679D01*
X502679*
Y239519*
X492519*
Y264919D02*
Y275079D01*
X502679*
Y264919*
X492519*
Y290319D02*
Y300479D01*
X502679*
Y290319*
X492519*
Y315719D02*
Y325879D01*
X502679*
Y315719*
X492519*
X437519Y584919D02*
Y595079D01*
X447679*
Y584919*
X437519*
X462919D02*
Y595079D01*
X473079*
Y584919*
X462919*
X492519Y407119D02*
Y417279D01*
X502679*
Y407119*
X492519*
Y584919D02*
Y595079D01*
X502679*
Y584919*
X492519*
Y559519D02*
Y569679D01*
X502679*
Y559519*
X492519*
Y534119D02*
Y544279D01*
X502679*
Y534119*
X492519*
Y508719D02*
Y518879D01*
X502679*
Y508719*
X492519*
Y483319D02*
Y493479D01*
X502679*
Y483319*
X492519*
Y457919D02*
Y468079D01*
X502679*
Y457919*
X492519*
Y432519D02*
Y442679D01*
X502679*
Y432519*
X492519*
Y381719D02*
Y391879D01*
X502679*
Y381719*
X492519*
Y356319D02*
Y366479D01*
X502679*
Y356319*
X492519*
X153419Y192419D02*
Y202579D01*
X163579*
Y192419*
X153419*
Y167019D02*
Y177179D01*
X163579*
Y167019*
X153419*
X65919Y554769D02*
Y564929D01*
X76079*
Y554769*
X65919*
Y580169D02*
Y590329D01*
X76079*
Y580169*
X65919*
X9919Y264919D02*
Y275079D01*
X20079*
Y264919*
X9919*
Y239519D02*
Y249679D01*
X20079*
Y239519*
X9919*
Y214119D02*
Y224279D01*
X20079*
Y214119*
X9919*
Y188719D02*
Y198879D01*
X20079*
Y188719*
X9919*
Y163319D02*
Y173479D01*
X20079*
Y163319*
X9919*
Y137919D02*
Y148079D01*
X20079*
Y137919*
X9919*
Y493519D02*
Y503679D01*
X20079*
Y493519*
X9919*
Y468119D02*
Y478279D01*
X20079*
Y468119*
X9919*
Y442719D02*
Y452879D01*
X20079*
Y442719*
X9919*
Y417319D02*
Y427479D01*
X20079*
Y417319*
X9919*
Y391919D02*
Y402079D01*
X20079*
Y391919*
X9919*
Y366519D02*
Y376679D01*
X20079*
Y366519*
X9919*
Y341119D02*
Y351279D01*
X20079*
Y341119*
X9919*
Y315719D02*
Y325879D01*
X20079*
Y315719*
X9919*
X179919Y558919D02*
Y569079D01*
X190079*
Y558919*
X179919*
Y584319D02*
Y594479D01*
X190079*
Y584319*
X179919*
X205319Y558919D02*
Y569079D01*
X215479*
Y558919*
X205319*
Y584319D02*
Y594479D01*
X215479*
Y584319*
X205319*
X230719Y558919D02*
Y569079D01*
X240879*
Y558919*
X230719*
Y584319D02*
Y594479D01*
X240879*
Y584319*
X230719*
X256119Y558919D02*
Y569079D01*
X266279*
Y558919*
X256119*
Y584319D02*
Y594479D01*
X266279*
Y584319*
X256119*
X281519Y558919D02*
Y569079D01*
X291679*
Y558919*
X281519*
Y584319D02*
Y594479D01*
X291679*
Y584319*
X281519*
X306919Y558919D02*
Y569079D01*
X317079*
Y558919*
X306919*
Y584319D02*
Y594479D01*
X317079*
Y584319*
X306919*
X332319Y558919D02*
Y569079D01*
X342479*
Y558919*
X332319*
Y584319D02*
Y594479D01*
X342479*
Y584319*
X332319*
X101499Y499419D02*
X96419Y509579D01*
X106579*
X101499Y499419*
X126899D02*
X121819Y509579D01*
X131979*
X126899Y499419*
X152299D02*
X147219Y509579D01*
X157379*
X152299Y499419*
X59999Y251419D02*
X62539Y253959D01*
X65079*
X62539Y256499*
X65079Y259039*
X62539*
X59999Y261579*
X57459Y259039*
X54919*
X57459Y256499*
X54919Y253959*
X57459*
X59999Y251419*
X38999Y224919D02*
X41539Y227459D01*
X44079*
X41539Y229999*
X44079Y232539*
X41539*
X38999Y235079*
X36459Y232539*
X33919*
X36459Y229999*
X33919Y227459*
X36459*
X38999Y224919*
X354999Y213919D02*
X357539Y216459D01*
X360079*
X357539Y218999*
X360079Y221539*
X357539*
X354999Y224079*
X352459Y221539*
X349919*
X352459Y218999*
X349919Y216459*
X352459*
X354999Y213919*
Y223919D02*
X357539Y226459D01*
X360079*
X357539Y228999*
X360079Y231539*
X357539*
X354999Y234079*
X352459Y231539*
X349919*
X352459Y228999*
X349919Y226459*
X352459*
X354999Y223919*
X355999Y248920D02*
X358539Y251460D01*
X361079*
X358539Y254000*
X361079Y256540*
X358539*
X355999Y259080*
X353459Y256540*
X350919*
X353459Y254000*
X350919Y251460*
X353459*
X355999Y248920*
X354999Y235919D02*
X357539Y238459D01*
X360079*
X357539Y240999*
X360079Y243539*
X357539*
X354999Y246079*
X352459Y243539*
X349919*
X352459Y240999*
X349919Y238459*
X352459*
X354999Y235919*
X364749Y528919D02*
X367289Y531459D01*
X369829*
X367289Y533999*
X369829Y536539*
X367289*
X364749Y539079*
X362209Y536539*
X359669*
X362209Y533999*
X359669Y531459*
X362209*
X364749Y528919*
X354999Y259919D02*
X357539Y262459D01*
X360079*
X357539Y264999*
X360079Y267539*
X357539*
X354999Y270079*
X352459Y267539*
X349919*
X352459Y264999*
X349919Y262459*
X352459*
X354999Y259919*
Y269919D02*
X357539Y272459D01*
X360079*
X357539Y274999*
X360079Y277539*
X357539*
X354999Y280079*
X352459Y277539*
X349919*
X352459Y274999*
X349919Y272459*
X352459*
X354999Y269919*
Y280919D02*
X357539Y283459D01*
X360079*
X357539Y285999*
X360079Y288539*
X357539*
X354999Y291079*
X352459Y288539*
X349919*
X352459Y285999*
X349919Y283459*
X352459*
X354999Y280919*
X418999Y528919D02*
X421539Y531459D01*
X424079*
X421539Y533999*
X424079Y536539*
X421539*
X418999Y539079*
X416459Y536539*
X413919*
X416459Y533999*
X413919Y531459*
X416459*
X418999Y528919*
X400916D02*
X403456Y531459D01*
X405996*
X403456Y533999*
X405996Y536539*
X403456*
X400916Y539079*
X398376Y536539*
X395836*
X398376Y533999*
X395836Y531459*
X398376*
X400916Y528919*
X382832D02*
X385372Y531459D01*
X387912*
X385372Y533999*
X387912Y536539*
X385372*
X382832Y539079*
X380292Y536539*
X377752*
X380292Y533999*
X377752Y531459*
X380292*
X382832Y528919*
X265999Y254919D02*
X268539Y257459D01*
X271079*
X268539Y259999*
X271079Y262539*
X268539*
X265999Y265079*
X263459Y262539*
X260919*
X263459Y259999*
X260919Y257459*
X263459*
X265999Y254919*
Y243919D02*
X268539Y246459D01*
X271079*
X268539Y248999*
X271079Y251539*
X268539*
X265999Y254079*
X263459Y251539*
X260919*
X263459Y248999*
X260919Y246459*
X263459*
X265999Y243919*
X108999Y173919D02*
X111539Y176459D01*
X114079*
X111539Y178999*
X114079Y181539*
X111539*
X108999Y184079*
X106459Y181539*
X103919*
X106459Y178999*
X103919Y176459*
X106459*
X108999Y173919*
X445999Y421919D02*
X448539Y424459D01*
X451079*
X448539Y426999*
X451079Y429539*
X448539*
X445999Y432079*
X443459Y429539*
X440919*
X443459Y426999*
X440919Y424459*
X443459*
X445999Y421919*
X447999Y407919D02*
X450539Y410459D01*
X453079*
X450539Y412999*
X453079Y415539*
X450539*
X447999Y418079*
X445459Y415539*
X442919*
X445459Y412999*
X442919Y410459*
X445459*
X447999Y407919*
X284999Y244919D02*
X287539Y247459D01*
X290079*
X287539Y249999*
X290079Y252539*
X287539*
X284999Y255079*
X282459Y252539*
X279919*
X282459Y249999*
X279919Y247459*
X282459*
X284999Y244919*
X279999Y254919D02*
X282539Y257459D01*
X285079*
X282539Y259999*
X285079Y262539*
X282539*
X279999Y265079*
X277459Y262539*
X274919*
X277459Y259999*
X274919Y257459*
X277459*
X279999Y254919*
X73999Y181919D02*
X76539Y184459D01*
X79079*
X76539Y186999*
X79079Y189539*
X76539*
X73999Y192079*
X71459Y189539*
X68919*
X71459Y186999*
X68919Y184459*
X71459*
X73999Y181919*
X63999Y173919D02*
X66539Y176459D01*
X69079*
X66539Y178999*
X69079Y181539*
X66539*
X63999Y184079*
X61459Y181539*
X58919*
X61459Y178999*
X58919Y176459*
X61459*
X63999Y173919*
X54999Y162919D02*
X57539Y165459D01*
X60079*
X57539Y167999*
X60079Y170539*
X57539*
X54999Y173079*
X52459Y170539*
X49919*
X52459Y167999*
X49919Y165459*
X52459*
X54999Y162919*
X49999Y85919D02*
X52539Y88459D01*
X55079*
X52539Y90999*
X55079Y93539*
X52539*
X49999Y96079*
X47459Y93539*
X44919*
X47459Y90999*
X44919Y88459*
X47459*
X49999Y85919*
Y71919D02*
X52539Y74459D01*
X55079*
X52539Y76999*
X55079Y79539*
X52539*
X49999Y82079*
X47459Y79539*
X44919*
X47459Y76999*
X44919Y74459*
X47459*
X49999Y71919*
X444999Y434919D02*
X447539Y437459D01*
X450079*
X447539Y439999*
X450079Y442539*
X447539*
X444999Y445079*
X442459Y442539*
X439919*
X442459Y439999*
X439919Y437459*
X442459*
X444999Y434919*
X49999Y58169D02*
X52539Y60709D01*
X55079*
X52539Y63249*
X55079Y65789*
X52539*
X49999Y68329*
X47459Y65789*
X44919*
X47459Y63249*
X44919Y60709*
X47459*
X49999Y58169*
X266999Y215919D02*
X269539Y218459D01*
X272079*
X269539Y220999*
X272079Y223539*
X269539*
X266999Y226079*
X264459Y223539*
X261919*
X264459Y220999*
X261919Y218459*
X264459*
X266999Y215919*
X96999Y173919D02*
X99539Y176459D01*
X102079*
X99539Y178999*
X102079Y181539*
X99539*
X96999Y184079*
X94459Y181539*
X91919*
X94459Y178999*
X91919Y176459*
X94459*
X96999Y173919*
X49999Y29919D02*
X52539Y32459D01*
X55079*
X52539Y34999*
X55079Y37539*
X52539*
X49999Y40079*
X47459Y37539*
X44919*
X47459Y34999*
X44919Y32459*
X47459*
X49999Y29919*
X483999Y481919D02*
X486539Y484459D01*
X489079*
X486539Y486999*
X489079Y489539*
X486539*
X483999Y492079*
X481459Y489539*
X478919*
X481459Y486999*
X478919Y484459*
X481459*
X483999Y481919*
X431999Y482919D02*
X434539Y485459D01*
X437079*
X434539Y487999*
X437079Y490539*
X434539*
X431999Y493079*
X429459Y490539*
X426919*
X429459Y487999*
X426919Y485459*
X429459*
X431999Y482919*
X299999Y98919D02*
X302539Y101459D01*
X305079*
X302539Y103999*
X305079Y106539*
X302539*
X299999Y109079*
X297459Y106539*
X294919*
X297459Y103999*
X294919Y101459*
X297459*
X299999Y98919*
X325124Y131919D02*
X327664Y134459D01*
X330204*
X327664Y136999*
X330204Y139539*
X327664*
X325124Y142079*
X322584Y139539*
X320044*
X322584Y136999*
X320044Y134459*
X322584*
X325124Y131919*
X261999Y205669D02*
X264539Y208209D01*
X267079*
X264539Y210749*
X267079Y213289*
X264539*
X261999Y215829*
X259459Y213289*
X256919*
X259459Y210749*
X256919Y208209*
X259459*
X261999Y205669*
X326249Y44419D02*
X328789Y46959D01*
X331329*
X328789Y49499*
X331329Y52039*
X328789*
X326249Y54579*
X323709Y52039*
X321169*
X323709Y49499*
X321169Y46959*
X323709*
X326249Y44419*
X341329Y57419D02*
X343869Y59959D01*
X346409*
X343869Y62499*
X346409Y65039*
X343869*
X341329Y67579*
X338789Y65039*
X336249*
X338789Y62499*
X336249Y59959*
X338789*
X341329Y57419*
X267249Y170919D02*
X269789Y173459D01*
X272329*
X269789Y175999*
X272329Y178539*
X269789*
X267249Y181079*
X264709Y178539*
X262169*
X264709Y175999*
X262169Y173459*
X264709*
X267249Y170919*
X231749Y215669D02*
X234289Y218209D01*
X236829*
X234289Y220749*
X236829Y223289*
X234289*
X231749Y225829*
X229209Y223289*
X226669*
X229209Y220749*
X226669Y218209*
X229209*
X231749Y215669*
X325749Y120419D02*
X328289Y122959D01*
X330829*
X328289Y125499*
X330829Y128039*
X328289*
X325749Y130579*
X323209Y128039*
X320669*
X323209Y125499*
X320669Y122959*
X323209*
X325749Y120419*
X344499Y126669D02*
X347039Y129209D01*
X349579*
X347039Y131749*
X349579Y134289*
X347039*
X344499Y136829*
X341959Y134289*
X339419*
X341959Y131749*
X339419Y129209*
X341959*
X344499Y126669*
X381749Y121419D02*
X384289Y123959D01*
X386829*
X384289Y126499*
X386829Y129039*
X384289*
X381749Y131579*
X379209Y129039*
X376669*
X379209Y126499*
X376669Y123959*
X379209*
X381749Y121419*
X213360Y195580D02*
X215900Y198120D01*
X218440*
X215900Y200660*
X218440Y203200*
X215900*
X213360Y205740*
X210820Y203200*
X208280*
X210820Y200660*
X208280Y198120*
X210820*
X213360Y195580*
X414749Y101919D02*
X417289Y104459D01*
X419829*
X417289Y106999*
X419829Y109539*
X417289*
X414749Y112079*
X412209Y109539*
X409669*
X412209Y106999*
X409669Y104459*
X412209*
X414749Y101919*
X194310Y105410D02*
X196850Y107950D01*
X199390*
X196850Y110490*
X199390Y113030*
X196850*
X194310Y115570*
X191770Y113030*
X189230*
X191770Y110490*
X189230Y107950*
X191770*
X194310Y105410*
X192499Y120919D02*
X195039Y123459D01*
X197579*
X195039Y125999*
X197579Y128539*
X195039*
X192499Y131079*
X189959Y128539*
X187419*
X189959Y125999*
X187419Y123459*
X189959*
X192499Y120919*
Y130919D02*
X195039Y133459D01*
X197579*
X195039Y135999*
X197579Y138539*
X195039*
X192499Y141079*
X189959Y138539*
X187419*
X189959Y135999*
X187419Y133459*
X189959*
X192499Y130919*
X219249Y145419D02*
X221789Y147959D01*
X224329*
X221789Y150499*
X224329Y153039*
X221789*
X219249Y155579*
X216709Y153039*
X214169*
X216709Y150499*
X214169Y147959*
X216709*
X219249Y145419*
X219999Y132169D02*
X222539Y134709D01*
X225079*
X222539Y137249*
X225079Y139789*
X222539*
X219999Y142329*
X217459Y139789*
X214919*
X217459Y137249*
X214919Y134709*
X217459*
X219999Y132169*
X227749Y89419D02*
X230289Y91959D01*
X232829*
X230289Y94499*
X232829Y97039*
X230289*
X227749Y99579*
X225209Y97039*
X222669*
X225209Y94499*
X222669Y91959*
X225209*
X227749Y89419*
X236749Y72669D02*
X239289Y75209D01*
X241829*
X239289Y77749*
X241829Y80289*
X239289*
X236749Y82829*
X234209Y80289*
X231669*
X234209Y77749*
X231669Y75209*
X234209*
X236749Y72669*
X286999Y57169D02*
X289539Y59709D01*
X292079*
X289539Y62249*
X292079Y64789*
X289539*
X286999Y67329*
X284459Y64789*
X281919*
X284459Y62249*
X281919Y59709*
X284459*
X286999Y57169*
X304999D02*
X307539Y59709D01*
X310079*
X307539Y62249*
X310079Y64789*
X307539*
X304999Y67329*
X302459Y64789*
X299919*
X302459Y62249*
X299919Y59709*
X302459*
X304999Y57169*
X296249D02*
X298789Y59709D01*
X301329*
X298789Y62249*
X301329Y64789*
X298789*
X296249Y67329*
X293709Y64789*
X291169*
X293709Y62249*
X291169Y59709*
X293709*
X296249Y57169*
X267999Y183419D02*
X270539Y185959D01*
X273079*
X270539Y188499*
X273079Y191039*
X270539*
X267999Y193579*
X265459Y191039*
X262919*
X265459Y188499*
X262919Y185959*
X265459*
X267999Y183419*
X242499Y56169D02*
X245039Y58709D01*
X247579*
X245039Y61249*
X247579Y63789*
X245039*
X242499Y66329*
X239959Y63789*
X237419*
X239959Y61249*
X237419Y58709*
X239959*
X242499Y56169*
X275999D02*
X278539Y58709D01*
X281079*
X278539Y61249*
X281079Y63789*
X278539*
X275999Y66329*
X273459Y63789*
X270919*
X273459Y61249*
X270919Y58709*
X273459*
X275999Y56169*
X306999Y132419D02*
X309539Y134959D01*
X312079*
X309539Y137499*
X312079Y140039*
X309539*
X306999Y142579*
X304459Y140039*
X301919*
X304459Y137499*
X301919Y134959*
X304459*
X306999Y132419*
X319999Y11086D02*
X322539Y13626D01*
X325079*
X322539Y16166*
X325079Y18706*
X322539*
X319999Y21246*
X317459Y18706*
X314919*
X317459Y16166*
X314919Y13626*
X317459*
X319999Y11086*
Y419D02*
X322539Y2959D01*
X325079*
X322539Y5499*
X325079Y8039*
X322539*
X319999Y10579*
X317459Y8039*
X314919*
X317459Y5499*
X314919Y2959*
X317459*
X319999Y419*
Y21752D02*
X322539Y24292D01*
X325079*
X322539Y26832*
X325079Y29372*
X322539*
X319999Y31912*
X317459Y29372*
X314919*
X317459Y26832*
X314919Y24292*
X317459*
X319999Y21752*
X342749Y11836D02*
X345289Y14376D01*
X347829*
X345289Y16916*
X347829Y19456*
X345289*
X342749Y21996*
X340209Y19456*
X337669*
X340209Y16916*
X337669Y14376*
X340209*
X342749Y11836*
X365499Y1169D02*
X368039Y3709D01*
X370579*
X368039Y6249*
X370579Y8789*
X368039*
X365499Y11329*
X362959Y8789*
X360419*
X362959Y6249*
X360419Y3709*
X362959*
X365499Y1169*
X345819Y44419D02*
X348359Y46959D01*
X350899*
X348359Y49499*
X350899Y52039*
X348359*
X345819Y54579*
X343279Y52039*
X340739*
X343279Y49499*
X340739Y46959*
X343279*
X345819Y44419*
X356999D02*
X359539Y46959D01*
X362079*
X359539Y49499*
X362079Y52039*
X359539*
X356999Y54579*
X354459Y52039*
X351919*
X354459Y49499*
X351919Y46959*
X354459*
X356999Y44419*
X201499Y12836D02*
X204039Y15376D01*
X206579*
X204039Y17916*
X206579Y20456*
X204039*
X201499Y22996*
X198959Y20456*
X196419*
X198959Y17916*
X196419Y15376*
X198959*
X201499Y12836*
Y2169D02*
X204039Y4709D01*
X206579*
X204039Y7249*
X206579Y9789*
X204039*
X201499Y12329*
X198959Y9789*
X196419*
X198959Y7249*
X196419Y4709*
X198959*
X201499Y2169*
X201249Y23502D02*
X203789Y26042D01*
X206329*
X203789Y28582*
X206329Y31122*
X203789*
X201249Y33662*
X198709Y31122*
X196169*
X198709Y28582*
X196169Y26042*
X198709*
X201249Y23502*
Y34169D02*
X203789Y36709D01*
X206329*
X203789Y39249*
X206329Y41789*
X203789*
X201249Y44329*
X198709Y41789*
X196169*
X198709Y39249*
X196169Y36709*
X198709*
X201249Y34169*
X182749Y13336D02*
X185289Y15876D01*
X187829*
X185289Y18416*
X187829Y20956*
X185289*
X182749Y23496*
X180209Y20956*
X177669*
X180209Y18416*
X177669Y15876*
X180209*
X182749Y13336*
Y2669D02*
X185289Y5209D01*
X187829*
X185289Y7749*
X187829Y10289*
X185289*
X182749Y12829*
X180209Y10289*
X177669*
X180209Y7749*
X177669Y5209*
X180209*
X182749Y2669*
X182499Y24003D02*
X185039Y26543D01*
X187579*
X185039Y29083*
X187579Y31623*
X185039*
X182499Y34163*
X179959Y31623*
X177419*
X179959Y29083*
X177419Y26543*
X179959*
X182499Y24003*
Y34669D02*
X185039Y37209D01*
X187579*
X185039Y39749*
X187579Y42289*
X185039*
X182499Y44829*
X179959Y42289*
X177419*
X179959Y39749*
X177419Y37209*
X179959*
X182499Y34669*
X183249Y54336D02*
X185789Y56876D01*
X188329*
X185789Y59416*
X188329Y61956*
X185789*
X183249Y64496*
X180709Y61956*
X178169*
X180709Y59416*
X178169Y56876*
X180709*
X183249Y54336*
Y43669D02*
X185789Y46209D01*
X188329*
X185789Y48749*
X188329Y51289*
X185789*
X183249Y53829*
X180709Y51289*
X178169*
X180709Y48749*
X178169Y46209*
X180709*
X183249Y43669*
X182999Y65002D02*
X185539Y67542D01*
X188079*
X185539Y70082*
X188079Y72622*
X185539*
X182999Y75162*
X180459Y72622*
X177919*
X180459Y70082*
X177919Y67542*
X180459*
X182999Y65002*
Y75669D02*
X185539Y78209D01*
X188079*
X185539Y80749*
X188079Y83289*
X185539*
X182999Y85829*
X180459Y83289*
X177919*
X180459Y80749*
X177919Y78209*
X180459*
X182999Y75669*
X201749Y54086D02*
X204289Y56626D01*
X206829*
X204289Y59166*
X206829Y61706*
X204289*
X201749Y64246*
X199209Y61706*
X196669*
X199209Y59166*
X196669Y56626*
X199209*
X201749Y54086*
Y43419D02*
X204289Y45959D01*
X206829*
X204289Y48499*
X206829Y51039*
X204289*
X201749Y53579*
X199209Y51039*
X196669*
X199209Y48499*
X196669Y45959*
X199209*
X201749Y43419*
X201499Y64752D02*
X204039Y67292D01*
X206579*
X204039Y69832*
X206579Y72372*
X204039*
X201499Y74912*
X198959Y72372*
X196419*
X198959Y69832*
X196419Y67292*
X198959*
X201499Y64752*
Y75419D02*
X204039Y77959D01*
X206579*
X204039Y80499*
X206579Y83039*
X204039*
X201499Y85579*
X198959Y83039*
X196419*
X198959Y80499*
X196419Y77959*
X198959*
X201499Y75419*
X223999Y54586D02*
X226539Y57126D01*
X229079*
X226539Y59666*
X229079Y62206*
X226539*
X223999Y64746*
X221459Y62206*
X218919*
X221459Y59666*
X218919Y57126*
X221459*
X223999Y54586*
Y43919D02*
X226539Y46459D01*
X229079*
X226539Y48999*
X229079Y51539*
X226539*
X223999Y54079*
X221459Y51539*
X218919*
X221459Y48999*
X218919Y46459*
X221459*
X223999Y43919*
X223749Y65252D02*
X226289Y67792D01*
X228829*
X226289Y70332*
X228829Y72872*
X226289*
X223749Y75412*
X221209Y72872*
X218669*
X221209Y70332*
X218669Y67792*
X221209*
X223749Y65252*
Y75919D02*
X226289Y78459D01*
X228829*
X226289Y80999*
X228829Y83539*
X226289*
X223749Y86079*
X221209Y83539*
X218669*
X221209Y80999*
X218669Y78459*
X221209*
X223749Y75919*
X365499Y22502D02*
X368039Y25042D01*
X370579*
X368039Y27582*
X370579Y30122*
X368039*
X365499Y32662*
X362959Y30122*
X360419*
X362959Y27582*
X360419Y25042*
X362959*
X365499Y22502*
X342749D02*
X345289Y25042D01*
X347829*
X345289Y27582*
X347829Y30122*
X345289*
X342749Y32662*
X340209Y30122*
X337669*
X340209Y27582*
X337669Y25042*
X340209*
X342749Y22502*
Y33169D02*
X345289Y35709D01*
X347829*
X345289Y38249*
X347829Y40789*
X345289*
X342749Y43329*
X340209Y40789*
X337669*
X340209Y38249*
X337669Y35709*
X340209*
X342749Y33169*
X365499D02*
X368039Y35709D01*
X370579*
X368039Y38249*
X370579Y40789*
X368039*
X365499Y43329*
X362959Y40789*
X360419*
X362959Y38249*
X360419Y35709*
X362959*
X365499Y33169*
X342749Y1169D02*
X345289Y3709D01*
X347829*
X345289Y6249*
X347829Y8789*
X345289*
X342749Y11329*
X340209Y8789*
X337669*
X340209Y6249*
X337669Y3709*
X340209*
X342749Y1169*
X365499Y11836D02*
X368039Y14376D01*
X370579*
X368039Y16916*
X370579Y19456*
X368039*
X365499Y21996*
X362959Y19456*
X360419*
X362959Y16916*
X360419Y14376*
X362959*
X365499Y11836*
X319999Y32419D02*
X322539Y34959D01*
X325079*
X322539Y37499*
X325079Y40039*
X322539*
X319999Y42579*
X317459Y40039*
X314919*
X317459Y37499*
X314919Y34959*
X317459*
X319999Y32419*
X49999Y15669D02*
X52539Y18209D01*
X55079*
X52539Y20749*
X55079Y23289*
X52539*
X49999Y25829*
X47459Y23289*
X44919*
X47459Y20749*
X44919Y18209*
X47459*
X49999Y15669*
X50249Y1919D02*
X52789Y4459D01*
X55329*
X52789Y6999*
X55329Y9539*
X52789*
X50249Y12079*
X47709Y9539*
X45169*
X47709Y6999*
X45169Y4459*
X47709*
X50249Y1919*
X49999Y44419D02*
X52539Y46959D01*
X55079*
X52539Y49499*
X55079Y52039*
X52539*
X49999Y54579*
X47459Y52039*
X44919*
X47459Y49499*
X44919Y46959*
X47459*
X49999Y44419*
X128749Y15669D02*
X131289Y18209D01*
X133829*
X131289Y20749*
X133829Y23289*
X131289*
X128749Y25829*
X126209Y23289*
X123669*
X126209Y20749*
X123669Y18209*
X126209*
X128749Y15669*
X40999Y154419D02*
X43539Y156959D01*
X46079*
X43539Y159499*
X46079Y162039*
X43539*
X40999Y164579*
X38459Y162039*
X35919*
X38459Y159499*
X35919Y156959*
X38459*
X40999Y154419*
X214630Y185420D02*
X217170Y187960D01*
X219710*
X217170Y190500*
X219710Y193040*
X217170*
X214630Y195580*
X212090Y193040*
X209550*
X212090Y190500*
X209550Y187960*
X212090*
X214630Y185420*
X247650Y205740D02*
X250190Y208280D01*
X252730*
X250190Y210820*
X252730Y213360*
X250190*
X247650Y215900*
X245110Y213360*
X242570*
X245110Y210820*
X242570Y208280*
X245110*
X247650Y205740*
X350329Y57169D02*
X352869Y59709D01*
X355409*
X352869Y62249*
X355409Y64789*
X352869*
X350329Y67329*
X347789Y64789*
X345249*
X347789Y62249*
X345249Y59709*
X347789*
X350329Y57169*
X359079Y56919D02*
X361619Y59459D01*
X364159*
X361619Y61999*
X364159Y64539*
X361619*
X359079Y67079*
X356539Y64539*
X353999*
X356539Y61999*
X353999Y59459*
X356539*
X359079Y56919*
X354999Y86169D02*
X357539Y88709D01*
X360079*
X357539Y91249*
X360079Y93789*
X357539*
X354999Y96329*
X352459Y93789*
X349919*
X352459Y91249*
X349919Y88709*
X352459*
X354999Y86169*
X312249Y98169D02*
X314789Y100709D01*
X317329*
X314789Y103249*
X317329Y105789*
X314789*
X312249Y108329*
X309709Y105789*
X307169*
X309709Y103249*
X307169Y100709*
X309709*
X312249Y98169*
X350759Y101059D02*
X353299Y103599D01*
X355839*
X353299Y106139*
X355839Y108679*
X353299*
X350759Y111219*
X348219Y108679*
X345679*
X348219Y106139*
X345679Y103599*
X348219*
X350759Y101059*
X334249Y92919D02*
X336789Y95459D01*
X339329*
X336789Y97999*
X339329Y100539*
X336789*
X334249Y103079*
X331709Y100539*
X329169*
X331709Y97999*
X329169Y95459*
X331709*
X334249Y92919*
X421999Y68669D02*
X424539Y71209D01*
X427079*
X424539Y73749*
X427079Y76289*
X424539*
X421999Y78829*
X419459Y76289*
X416919*
X419459Y73749*
X416919Y71209*
X419459*
X421999Y68669*
X331999Y61919D02*
X334539Y64459D01*
X337079*
X334539Y66999*
X337079Y69539*
X334539*
X331999Y72079*
X329459Y69539*
X326919*
X329459Y66999*
X326919Y64459*
X329459*
X331999Y61919*
X287999Y37169D02*
X290539Y39709D01*
X293079*
X290539Y42249*
X293079Y44789*
X290539*
X287999Y47329*
X285459Y44789*
X282919*
X285459Y42249*
X282919Y39709*
X285459*
X287999Y37169*
Y27919D02*
X290539Y30459D01*
X293079*
X290539Y32999*
X293079Y35539*
X290539*
X287999Y38079*
X285459Y35539*
X282919*
X285459Y32999*
X282919Y30459*
X285459*
X287999Y27919*
Y9169D02*
X290539Y11709D01*
X293079*
X290539Y14249*
X293079Y16789*
X290539*
X287999Y19329*
X285459Y16789*
X282919*
X285459Y14249*
X282919Y11709*
X285459*
X287999Y9169*
Y-79D02*
X290539Y2459D01*
X293079*
X290539Y4999*
X293079Y7539*
X290539*
X287999Y10079*
X285459Y7539*
X282919*
X285459Y4999*
X282919Y2459*
X285459*
X287999Y-79*
Y18419D02*
X290539Y20959D01*
X293079*
X290539Y23499*
X293079Y26039*
X290539*
X287999Y28579*
X285459Y26039*
X282919*
X285459Y23499*
X282919Y20959*
X285459*
X287999Y18419*
X297249Y-329D02*
X299789Y2209D01*
X302329*
X299789Y4749*
X302329Y7289*
X299789*
X297249Y9829*
X294709Y7289*
X292169*
X294709Y4749*
X292169Y2209*
X294709*
X297249Y-329*
Y10919D02*
X299789Y13459D01*
X302329*
X299789Y15999*
X302329Y18539*
X299789*
X297249Y21079*
X294709Y18539*
X292169*
X294709Y15999*
X292169Y13459*
X294709*
X297249Y10919*
Y21919D02*
X299789Y24459D01*
X302329*
X299789Y26999*
X302329Y29539*
X299789*
X297249Y32079*
X294709Y29539*
X292169*
X294709Y26999*
X292169Y24459*
X294709*
X297249Y21919*
Y33169D02*
X299789Y35709D01*
X302329*
X299789Y38249*
X302329Y40789*
X299789*
X297249Y43329*
X294709Y40789*
X292169*
X294709Y38249*
X292169Y35709*
X294709*
X297249Y33169*
Y44419D02*
X299789Y46959D01*
X302329*
X299789Y49499*
X302329Y52039*
X299789*
X297249Y54579*
X294709Y52039*
X292169*
X294709Y49499*
X292169Y46959*
X294709*
X297249Y44419*
X233499Y32419D02*
X236039Y34959D01*
X238579*
X236039Y37499*
X238579Y40039*
X236039*
X233499Y42579*
X230959Y40039*
X228419*
X230959Y37499*
X228419Y34959*
X230959*
X233499Y32419*
X243249Y32669D02*
X245789Y35209D01*
X248329*
X245789Y37749*
X248329Y40289*
X245789*
X243249Y42829*
X240709Y40289*
X238169*
X240709Y37749*
X238169Y35209*
X240709*
X243249Y32669*
Y21919D02*
X245789Y24459D01*
X248329*
X245789Y26999*
X248329Y29539*
X245789*
X243249Y32079*
X240709Y29539*
X238169*
X240709Y26999*
X238169Y24459*
X240709*
X243249Y21919*
X233499Y21669D02*
X236039Y24209D01*
X238579*
X236039Y26749*
X238579Y29289*
X236039*
X233499Y31829*
X230959Y29289*
X228419*
X230959Y26749*
X228419Y24209*
X230959*
X233499Y21669*
X233749Y11169D02*
X236289Y13709D01*
X238829*
X236289Y16249*
X238829Y18789*
X236289*
X233749Y21329*
X231209Y18789*
X228669*
X231209Y16249*
X228669Y13709*
X231209*
X233749Y11169*
X243499Y11419D02*
X246039Y13959D01*
X248579*
X246039Y16499*
X248579Y19039*
X246039*
X243499Y21579*
X240959Y19039*
X238419*
X240959Y16499*
X238419Y13959*
X240959*
X243499Y11419*
X233749Y419D02*
X236289Y2959D01*
X238829*
X236289Y5499*
X238829Y8039*
X236289*
X233749Y10579*
X231209Y8039*
X228669*
X231209Y5499*
X228669Y2959*
X231209*
X233749Y419*
X243499Y669D02*
X246039Y3209D01*
X248579*
X246039Y5749*
X248579Y8289*
X246039*
X243499Y10829*
X240959Y8289*
X238419*
X240959Y5749*
X238419Y3209*
X240959*
X243499Y669*
X214789Y207169D02*
X217329Y209709D01*
X219869*
X217329Y212249*
X219869Y214789*
X217329*
X214789Y217329*
X212249Y214789*
X209709*
X212249Y212249*
X209709Y209709*
X212249*
X214789Y207169*
X131749Y86169D02*
X134289Y88709D01*
X136829*
X134289Y91249*
X136829Y93789*
X134289*
X131749Y96329*
X129209Y93789*
X126669*
X129209Y91249*
X126669Y88709*
X129209*
X131749Y86169*
Y57919D02*
X134289Y60459D01*
X136829*
X134289Y62999*
X136829Y65539*
X134289*
X131749Y68079*
X129209Y65539*
X126669*
X129209Y62999*
X126669Y60459*
X129209*
X131749Y57919*
X162749Y138669D02*
X165289Y141209D01*
X167829*
X165289Y143749*
X167829Y146289*
X165289*
X162749Y148829*
X160209Y146289*
X157669*
X160209Y143749*
X157669Y141209*
X160209*
X162749Y138669*
X136750Y99918D02*
X139290Y102458D01*
X141830*
X139290Y104998*
X141830Y107538*
X139290*
X136750Y110078*
X134210Y107538*
X131670*
X134210Y104998*
X131670Y102458*
X134210*
X136750Y99918*
X344249Y136919D02*
X346789Y139459D01*
X349329*
X346789Y141999*
X349329Y144539*
X346789*
X344249Y147079*
X341709Y144539*
X339169*
X341709Y141999*
X339169Y139459*
X341709*
X344249Y136919*
X351749Y109919D02*
X354289Y112459D01*
X356829*
X354289Y114999*
X356829Y117539*
X354289*
X351749Y120079*
X349209Y117539*
X346669*
X349209Y114999*
X346669Y112459*
X349209*
X351749Y109919*
X238999Y196919D02*
X241539Y199459D01*
X244079*
X241539Y201999*
X244079Y204539*
X241539*
X238999Y207079*
X236459Y204539*
X233919*
X236459Y201999*
X233919Y199459*
X236459*
X238999Y196919*
X190749Y184419D02*
X193289Y186959D01*
X195829*
X193289Y189499*
X195829Y192039*
X193289*
X190749Y194579*
X188209Y192039*
X185669*
X188209Y189499*
X185669Y186959*
X188209*
X190749Y184419*
X362999Y94419D02*
X365539Y96959D01*
X368079*
X365539Y99499*
X368079Y102039*
X365539*
X362999Y104579*
X360459Y102039*
X357919*
X360459Y99499*
X357919Y96959*
X360459*
X362999Y94419*
X254749Y127919D02*
X257289Y130459D01*
X259829*
X257289Y132999*
X259829Y135539*
X257289*
X254749Y138079*
X252209Y135539*
X249669*
X252209Y132999*
X249669Y130459*
X252209*
X254749Y127919*
X266749Y139919D02*
X269289Y142459D01*
X271829*
X269289Y144999*
X271829Y147539*
X269289*
X266749Y150079*
X264209Y147539*
X261669*
X264209Y144999*
X261669Y142459*
X264209*
X266749Y139919*
X278749D02*
X281289Y142459D01*
X283829*
X281289Y144999*
X283829Y147539*
X281289*
X278749Y150079*
X276209Y147539*
X273669*
X276209Y144999*
X273669Y142459*
X276209*
X278749Y139919*
X266749Y127919D02*
X269289Y130459D01*
X271829*
X269289Y132999*
X271829Y135539*
X269289*
X266749Y138079*
X264209Y135539*
X261669*
X264209Y132999*
X261669Y130459*
X264209*
X266749Y127919*
X254749Y139919D02*
X257289Y142459D01*
X259829*
X257289Y144999*
X259829Y147539*
X257289*
X254749Y150079*
X252209Y147539*
X249669*
X252209Y144999*
X249669Y142459*
X252209*
X254749Y139919*
X279749Y127919D02*
X282289Y130459D01*
X284829*
X282289Y132999*
X284829Y135539*
X282289*
X279749Y138079*
X277209Y135539*
X274669*
X277209Y132999*
X274669Y130459*
X277209*
X279749Y127919*
X278749Y115919D02*
X281289Y118459D01*
X283829*
X281289Y120999*
X283829Y123539*
X281289*
X278749Y126079*
X276209Y123539*
X273669*
X276209Y120999*
X273669Y118459*
X276209*
X278749Y115919*
X254749D02*
X257289Y118459D01*
X259829*
X257289Y120999*
X259829Y123539*
X257289*
X254749Y126079*
X252209Y123539*
X249669*
X252209Y120999*
X249669Y118459*
X252209*
X254749Y115919*
X266749D02*
X269289Y118459D01*
X271829*
X269289Y120999*
X271829Y123539*
X269289*
X266749Y126079*
X264209Y123539*
X261669*
X264209Y120999*
X261669Y118459*
X264209*
X266749Y115919*
G54D133*
X502679Y113249D02*
D01*
X502667Y113604*
X502630Y113956*
X502568Y114306*
X502483Y114650*
X502373Y114987*
X502240Y115316*
X502085Y115634*
X501908Y115941*
X501709Y116235*
X501491Y116515*
X501254Y116778*
X500998Y117025*
X500727Y117253*
X500440Y117461*
X500139Y117649*
X499826Y117815*
X499502Y117959*
X499169Y118081*
X498828Y118179*
X498482Y118252*
X498130Y118302*
X497777Y118326*
X497422*
X497068Y118302*
X496717Y118252*
X496370Y118179*
X496029Y118081*
X495696Y117959*
X495372Y117815*
X495059Y117649*
X494759Y117461*
X494472Y117253*
X494200Y117025*
X493945Y116778*
X493708Y116515*
X493489Y116235*
X493291Y115941*
X493114Y115634*
X492959Y115316*
X492826Y114987*
X492716Y114650*
X492630Y114306*
X492569Y113956*
X492532Y113604*
X492519Y113249*
X492532Y112895*
X492569Y112542*
X492630Y112193*
X492716Y111849*
X492826Y111512*
X492959Y111183*
X493114Y110864*
X493291Y110557*
X493489Y110263*
X493708Y109984*
X493945Y109720*
X494200Y109474*
X494472Y109246*
X494759Y109038*
X495059Y108850*
X495372Y108684*
X495696Y108539*
X496029Y108418*
X496370Y108320*
X496717Y108246*
X497068Y108197*
X497422Y108173*
X497777*
X498130Y108197*
X498482Y108246*
X498828Y108320*
X499169Y108418*
X499502Y108539*
X499826Y108684*
X500139Y108850*
X500440Y109038*
X500727Y109246*
X500998Y109474*
X501254Y109720*
X501491Y109984*
X501709Y110263*
X501908Y110557*
X502085Y110864*
X502240Y111183*
X502373Y111512*
X502483Y111849*
X502568Y112193*
X502630Y112542*
X502667Y112895*
X502679Y113249*
X20079Y528499D02*
D01*
X20067Y528854*
X20030Y529206*
X19968Y529555*
X19883Y529900*
X19773Y530237*
X19640Y530566*
X19485Y530884*
X19308Y531191*
X19109Y531485*
X18891Y531765*
X18654Y532028*
X18398Y532275*
X18127Y532502*
X17840Y532711*
X17539Y532899*
X17226Y533065*
X16902Y533210*
X16569Y533331*
X16228Y533428*
X15882Y533502*
X15530Y533552*
X15177Y533576*
X14822*
X14468Y533552*
X14117Y533502*
X13770Y533428*
X13429Y533331*
X13096Y533210*
X12772Y533065*
X12459Y532899*
X12159Y532711*
X11872Y532502*
X11600Y532275*
X11345Y532028*
X11108Y531765*
X10889Y531485*
X10691Y531191*
X10514Y530884*
X10359Y530566*
X10226Y530237*
X10116Y529900*
X10030Y529555*
X9969Y529206*
X9932Y528854*
X9919Y528499*
X9932Y528145*
X9969Y527792*
X10030Y527443*
X10116Y527099*
X10226Y526762*
X10359Y526433*
X10514Y526115*
X10691Y525807*
X10889Y525513*
X11108Y525234*
X11345Y524971*
X11600Y524724*
X11872Y524496*
X12159Y524288*
X12459Y524100*
X12772Y523933*
X13096Y523789*
X13429Y523668*
X13770Y523570*
X14117Y523497*
X14468Y523447*
X14822Y523422*
X15177*
X15530Y523447*
X15882Y523497*
X16228Y523570*
X16569Y523668*
X16902Y523789*
X17226Y523933*
X17539Y524100*
X17840Y524288*
X18127Y524496*
X18398Y524724*
X18654Y524971*
X18891Y525234*
X19109Y525513*
X19308Y525807*
X19485Y526115*
X19640Y526433*
X19773Y526762*
X19883Y527099*
X19968Y527443*
X20030Y527792*
X20067Y528145*
X20079Y528499*
M02*