G04 Layer_Color=128*
%FSLAX43Y43*%
%MOMM*%
G71*
G01*
G75*
%ADD106C,0.051*%
D106*
X45367Y36100D02*
X46383D01*
X45875Y35592D02*
Y36608D01*
X4017Y27400D02*
X5033D01*
X4525Y26892D02*
Y27908D01*
X3967Y21900D02*
X4983D01*
X4475Y21392D02*
Y22408D01*
X42067Y48840D02*
X43083D01*
X42575Y48332D02*
Y49348D01*
X45342Y46250D02*
X46358D01*
X45850Y45742D02*
Y46758D01*
X42067Y43775D02*
X43083D01*
X42575Y43267D02*
Y44283D01*
X45342Y41225D02*
X46358D01*
X45850Y40717D02*
Y41733D01*
X42092Y38675D02*
X43108D01*
X42600Y38167D02*
Y39183D01*
X1050Y32080D02*
X1950D01*
X1500Y31630D02*
Y32530D01*
X1050Y34620D02*
X1950D01*
X1500Y34170D02*
Y35070D01*
X1050Y37160D02*
X1950D01*
X1500Y36710D02*
Y37610D01*
X1050Y39700D02*
X1950D01*
X1500Y39250D02*
Y40150D01*
X1050Y42240D02*
X1950D01*
X1500Y41790D02*
Y42690D01*
X1050Y44780D02*
X1950D01*
X1500Y44330D02*
Y45230D01*
X1050Y47320D02*
X1950D01*
X1500Y46870D02*
Y47770D01*
X1050Y49860D02*
X1950D01*
X1500Y49410D02*
Y50310D01*
X49310Y36140D02*
X50210D01*
X49760Y35690D02*
Y36590D01*
X49310Y38680D02*
X50210D01*
X49760Y38230D02*
Y39130D01*
X49310Y43760D02*
X50210D01*
X49760Y43310D02*
Y44210D01*
X49310Y46300D02*
X50210D01*
X49760Y45850D02*
Y46750D01*
X49310Y48840D02*
X50210D01*
X49760Y48390D02*
Y49290D01*
X49310Y51380D02*
X50210D01*
X49760Y50930D02*
Y51830D01*
X49310Y53920D02*
X50210D01*
X49760Y53470D02*
Y54370D01*
X49310Y56460D02*
X50210D01*
X49760Y56010D02*
Y56910D01*
X49310Y59000D02*
X50210D01*
X49760Y58550D02*
Y59450D01*
X49310Y41220D02*
X50210D01*
X49760Y40770D02*
Y41670D01*
X1050Y14300D02*
X1950D01*
X1500Y13850D02*
Y14750D01*
X1050Y16840D02*
X1950D01*
X1500Y16390D02*
Y17290D01*
X1050Y19380D02*
X1950D01*
X1500Y18930D02*
Y19830D01*
X1050Y21920D02*
X1950D01*
X1500Y21470D02*
Y22370D01*
X1050Y24460D02*
X1950D01*
X1500Y24010D02*
Y24910D01*
X1050Y27000D02*
X1950D01*
X1500Y26550D02*
Y27450D01*
X49310Y32080D02*
X50210D01*
X49760Y31630D02*
Y32530D01*
X49310Y29540D02*
X50210D01*
X49760Y29090D02*
Y29990D01*
X49310Y27000D02*
X50210D01*
X49760Y26550D02*
Y27450D01*
X49310Y24460D02*
X50210D01*
X49760Y24010D02*
Y24910D01*
X49310Y21920D02*
X50210D01*
X49760Y21470D02*
Y22370D01*
X49310Y19380D02*
X50210D01*
X49760Y18930D02*
Y19830D01*
X49310Y16840D02*
X50210D01*
X49760Y16390D02*
Y17290D01*
X49310Y14300D02*
X50210D01*
X49760Y13850D02*
Y14750D01*
X6650Y58525D02*
X7550D01*
X7100Y58075D02*
Y58975D01*
X6650Y55985D02*
X7550D01*
X7100Y55535D02*
Y56435D01*
X17405Y49950D02*
X18425D01*
X17915Y49440D02*
Y50460D01*
X14865Y49950D02*
X15885D01*
X15375Y49440D02*
Y50460D01*
X12325Y49950D02*
X13345D01*
X12835Y49440D02*
Y50460D01*
X992Y52850D02*
X2008D01*
X1500Y52342D02*
Y53358D01*
X49252Y11325D02*
X50268D01*
X49760Y10817D02*
Y11833D01*
X4017Y24650D02*
X5033D01*
X4525Y24142D02*
Y25158D01*
X46367Y27000D02*
X47383D01*
X46875Y26492D02*
Y27508D01*
X42192Y24475D02*
X43208D01*
X42700Y23967D02*
Y24983D01*
X46342Y21900D02*
X47358D01*
X46850Y21392D02*
Y22408D01*
X41767Y19400D02*
X42783D01*
X42275Y18892D02*
Y19908D01*
X46342Y32300D02*
X47358D01*
X46850Y31792D02*
Y32808D01*
X41792Y29550D02*
X42808D01*
X42300Y29042D02*
Y30058D01*
X3950Y15950D02*
X4250D01*
X4100Y15800D02*
Y16100D01*
X36925Y34475D02*
X37225D01*
X37075Y34325D02*
Y34625D01*
X26475Y25375D02*
X26775D01*
X26625Y25225D02*
Y25525D01*
X22075Y26075D02*
X22375D01*
X22225Y25925D02*
Y26225D01*
X14475Y26075D02*
X14775D01*
X14625Y25925D02*
Y26225D01*
X12025Y16575D02*
X12325D01*
X12175Y16425D02*
Y16725D01*
X13375Y27025D02*
X13675D01*
X13525Y26875D02*
Y27175D01*
X10725Y17675D02*
X11025D01*
X10875Y17525D02*
Y17825D01*
X26600Y28600D02*
X26900D01*
X26750Y28450D02*
Y28750D01*
X13650Y28600D02*
X13950D01*
X13800Y28450D02*
Y28750D01*
X9050Y17750D02*
X9350D01*
X9200Y17600D02*
Y17900D01*
X33150Y37900D02*
X33450D01*
X33300Y37750D02*
Y38050D01*
X13550Y30000D02*
X13850D01*
X13700Y29850D02*
Y30150D01*
X35775Y38950D02*
X36075D01*
X35925Y38800D02*
Y39100D01*
X7675Y17750D02*
X7975D01*
X7825Y17600D02*
Y17900D01*
X12325Y29950D02*
X12625D01*
X12475Y29800D02*
Y30100D01*
X6050Y17775D02*
X6350D01*
X6200Y17625D02*
Y17925D01*
X12725Y2075D02*
X13025D01*
X12875Y1925D02*
Y2225D01*
X4850Y9100D02*
X5150D01*
X5000Y8950D02*
Y9250D01*
X4850Y7700D02*
X5150D01*
X5000Y7550D02*
Y7850D01*
X4850Y6325D02*
X5150D01*
X5000Y6175D02*
Y6475D01*
X4850Y3500D02*
X5150D01*
X5000Y3350D02*
Y3650D01*
X12725Y10575D02*
X13025D01*
X12875Y10425D02*
Y10725D01*
X12725Y6275D02*
X13025D01*
X12875Y6125D02*
Y6425D01*
X12725Y7675D02*
X13025D01*
X12875Y7525D02*
Y7825D01*
X12750Y9100D02*
X13050D01*
X12900Y8950D02*
Y9250D01*
X4850Y4950D02*
X5150D01*
X5000Y4800D02*
Y5100D01*
X4875Y700D02*
X5175D01*
X5025Y550D02*
Y850D01*
X4850Y2075D02*
X5150D01*
X5000Y1925D02*
Y2225D01*
X31850Y3750D02*
X32150D01*
X32000Y3600D02*
Y3900D01*
X36400Y1692D02*
X36700D01*
X36550Y1542D02*
Y1842D01*
X34125Y625D02*
X34425D01*
X34275Y475D02*
Y775D01*
X36400Y3825D02*
X36700D01*
X36550Y3675D02*
Y3975D01*
X34125Y3825D02*
X34425D01*
X34275Y3675D02*
Y3975D01*
X34125Y2758D02*
X34425D01*
X34275Y2608D02*
Y2908D01*
X36400Y2758D02*
X36700D01*
X36550Y2608D02*
Y2908D01*
X28842Y4950D02*
X29142D01*
X28992Y4800D02*
Y5100D01*
X29960Y4950D02*
X30260D01*
X30110Y4800D02*
Y5100D01*
X22225Y8100D02*
X22525D01*
X22375Y7950D02*
Y8250D01*
X22225Y7033D02*
X22525D01*
X22375Y6883D02*
Y7183D01*
X22250Y4900D02*
X22550D01*
X22400Y4750D02*
Y5050D01*
X22250Y5967D02*
X22550D01*
X22400Y5817D02*
Y6117D01*
X20000Y8050D02*
X20300D01*
X20150Y7900D02*
Y8200D01*
X20000Y6983D02*
X20300D01*
X20150Y6833D02*
Y7133D01*
X20025Y4850D02*
X20325D01*
X20175Y4700D02*
Y5000D01*
X20025Y5917D02*
X20325D01*
X20175Y5767D02*
Y6067D01*
X18150Y8075D02*
X18450D01*
X18300Y7925D02*
Y8225D01*
X18150Y7008D02*
X18450D01*
X18300Y6858D02*
Y7158D01*
X18175Y4875D02*
X18475D01*
X18325Y4725D02*
Y5025D01*
X18175Y5942D02*
X18475D01*
X18325Y5792D02*
Y6092D01*
X18100Y3975D02*
X18400D01*
X18250Y3825D02*
Y4125D01*
X18100Y2908D02*
X18400D01*
X18250Y2758D02*
Y3058D01*
X18125Y775D02*
X18425D01*
X18275Y625D02*
Y925D01*
X18125Y1842D02*
X18425D01*
X18275Y1692D02*
Y1992D01*
X19975Y3925D02*
X20275D01*
X20125Y3775D02*
Y4075D01*
X19975Y2858D02*
X20275D01*
X20125Y2708D02*
Y3008D01*
X20000Y725D02*
X20300D01*
X20150Y575D02*
Y875D01*
X20000Y1792D02*
X20300D01*
X20150Y1642D02*
Y1942D01*
X23250Y3750D02*
X23550D01*
X23400Y3600D02*
Y3900D01*
X23250Y2683D02*
X23550D01*
X23400Y2533D02*
Y2833D01*
X23275Y550D02*
X23575D01*
X23425Y400D02*
Y700D01*
X23275Y1617D02*
X23575D01*
X23425Y1467D02*
Y1767D01*
X24225Y3775D02*
X24525D01*
X24375Y3625D02*
Y3925D01*
X24225Y2708D02*
X24525D01*
X24375Y2558D02*
Y2858D01*
X24250Y575D02*
X24550D01*
X24400Y425D02*
Y725D01*
X24250Y1642D02*
X24550D01*
X24400Y1492D02*
Y1792D01*
X32196Y4950D02*
X32496D01*
X32346Y4800D02*
Y5100D01*
X35550Y4950D02*
X35850D01*
X35700Y4800D02*
Y5100D01*
X34432Y4950D02*
X34732D01*
X34582Y4800D02*
Y5100D01*
X36400Y625D02*
X36700D01*
X36550Y475D02*
Y775D01*
X34125Y1692D02*
X34425D01*
X34275Y1542D02*
Y1842D01*
X29675Y3675D02*
X29975D01*
X29825Y3525D02*
Y3825D01*
X29675Y2608D02*
X29975D01*
X29825Y2458D02*
Y2758D01*
X29700Y475D02*
X30000D01*
X29850Y325D02*
Y625D01*
X29700Y1542D02*
X30000D01*
X29850Y1392D02*
Y1692D01*
X28700Y3700D02*
X29000D01*
X28850Y3550D02*
Y3850D01*
X28700Y2633D02*
X29000D01*
X28850Y2483D02*
Y2783D01*
X28725Y500D02*
X29025D01*
X28875Y350D02*
Y650D01*
X28725Y1567D02*
X29025D01*
X28875Y1417D02*
Y1717D01*
X31850Y2683D02*
X32150D01*
X32000Y2533D02*
Y2833D01*
X31850Y550D02*
X32150D01*
X32000Y400D02*
Y700D01*
X31850Y1617D02*
X32150D01*
X32000Y1467D02*
Y1767D01*
X30550Y13750D02*
X30850D01*
X30700Y13600D02*
Y13900D01*
X31575Y14275D02*
X31875D01*
X31725Y14125D02*
Y14425D01*
X34200Y14775D02*
X34500D01*
X34350Y14625D02*
Y14925D01*
X27450Y6125D02*
X27750D01*
X27600Y5975D02*
Y6275D01*
X24100Y6125D02*
X24400D01*
X24250Y5975D02*
Y6275D01*
X40200Y7375D02*
X40500D01*
X40350Y7225D02*
Y7525D01*
X33750Y7850D02*
X34050D01*
X33900Y7700D02*
Y8000D01*
X26650Y18850D02*
X26950D01*
X26800Y18700D02*
Y19000D01*
X31200Y7875D02*
X31500D01*
X31350Y7725D02*
Y8025D01*
X29475Y6225D02*
X29775D01*
X29625Y6075D02*
Y6375D01*
X30350Y6225D02*
X30650D01*
X30500Y6075D02*
Y6375D01*
X28550Y6225D02*
X28850D01*
X28700Y6075D02*
Y6375D01*
X26525Y12100D02*
X26825D01*
X26675Y11950D02*
Y12250D01*
X25325Y12100D02*
X25625D01*
X25475Y11950D02*
Y12250D01*
X41225Y59250D02*
X41525D01*
X41375Y59100D02*
Y59400D01*
X33075Y59050D02*
X33375D01*
X33225Y58900D02*
Y59200D01*
X23525Y7775D02*
X23825D01*
X23675Y7625D02*
Y7925D01*
X22625Y9450D02*
X22925D01*
X22775Y9300D02*
Y9600D01*
X21850Y13725D02*
X22150D01*
X22000Y13575D02*
Y13875D01*
X21775Y15050D02*
X22075D01*
X21925Y14900D02*
Y15200D01*
X18850Y18825D02*
X19150D01*
X19000Y18675D02*
Y18975D01*
X19100Y13600D02*
X19400D01*
X19250Y13450D02*
Y13750D01*
X19100Y12600D02*
X19400D01*
X19250Y12450D02*
Y12750D01*
X18225Y11050D02*
X18525D01*
X18375Y10900D02*
Y11200D01*
X27650Y7825D02*
X27950D01*
X27800Y7675D02*
Y7975D01*
X32125Y6175D02*
X32425D01*
X32275Y6025D02*
Y6325D01*
X30100Y10350D02*
X30400D01*
X30250Y10200D02*
Y10500D01*
X29350Y9575D02*
X29650D01*
X29500Y9425D02*
Y9725D01*
X32025Y10375D02*
X32325D01*
X32175Y10225D02*
Y10525D01*
X39475Y10700D02*
X39775D01*
X39625Y10550D02*
Y10850D01*
X32425Y9450D02*
X32725D01*
X32575Y9300D02*
Y9600D01*
X22475Y18000D02*
X22775D01*
X22625Y17850D02*
Y18150D01*
X22275Y19150D02*
X22575D01*
X22425Y19000D02*
Y19300D01*
X21225Y20600D02*
X21525D01*
X21375Y20450D02*
Y20750D01*
X23975Y21900D02*
X24275D01*
X24125Y21750D02*
Y22050D01*
X24100Y18175D02*
X24400D01*
X24250Y18025D02*
Y18325D01*
X36175Y12650D02*
X36475D01*
X36325Y12500D02*
Y12800D01*
X27725Y12100D02*
X28025D01*
X27875Y11950D02*
Y12250D01*
X27825Y13300D02*
X28125D01*
X27975Y13150D02*
Y13450D01*
X25325Y14500D02*
X25625D01*
X25475Y14350D02*
Y14650D01*
X26525Y13300D02*
X26825D01*
X26675Y13150D02*
Y13450D01*
X27725Y14500D02*
X28025D01*
X27875Y14350D02*
Y14650D01*
X26525Y14500D02*
X26825D01*
X26675Y14350D02*
Y14650D01*
X25325Y13300D02*
X25625D01*
X25475Y13150D02*
Y13450D01*
X34225Y13150D02*
X34525D01*
X34375Y13000D02*
Y13300D01*
X30250Y9500D02*
X30550D01*
X30400Y9350D02*
Y9650D01*
X32300Y13700D02*
X32600D01*
X32450Y13550D02*
Y13850D01*
X32425Y12550D02*
X32725D01*
X32575Y12400D02*
Y12700D01*
X25975Y20675D02*
X26275D01*
X26125Y20525D02*
Y20825D01*
X15225Y12925D02*
X15525D01*
X15375Y12775D02*
Y13075D01*
X23125Y24075D02*
X23425D01*
X23275Y23925D02*
Y24225D01*
X26575Y17600D02*
X26875D01*
X26725Y17450D02*
Y17750D01*
X25300Y25325D02*
X25600D01*
X25450Y25175D02*
Y25475D01*
X41050Y54375D02*
X41350D01*
X41200Y54225D02*
Y54525D01*
X38050Y53250D02*
X38350D01*
X38200Y53100D02*
Y53400D01*
X36300Y53250D02*
X36600D01*
X36450Y53100D02*
Y53400D01*
X34525Y53250D02*
X34825D01*
X34675Y53100D02*
Y53400D01*
X38125Y24425D02*
X38425D01*
X38275Y24275D02*
Y24575D01*
M02*
