G04 Layer_Color=32768*
%FSLAX43Y43*%
%MOMM*%
G71*
G01*
G75*
%ADD55C,0.100*%
%ADD105C,0.050*%
D55*
X45375Y36100D02*
X46375D01*
X45875Y35600D02*
Y36600D01*
X4025Y27400D02*
X5025D01*
X4525Y26900D02*
Y27900D01*
X3975Y21900D02*
X4975D01*
X4475Y21400D02*
Y22400D01*
X42075Y48825D02*
X43075D01*
X42575Y48325D02*
Y49325D01*
X45350Y46250D02*
X46350D01*
X45850Y45750D02*
Y46750D01*
X42075Y43775D02*
X43075D01*
X42575Y43275D02*
Y44275D01*
X45850Y40725D02*
Y41725D01*
X45350Y41225D02*
X46350D01*
X42600Y38175D02*
Y39175D01*
X42100Y38675D02*
X43100D01*
X1000Y52850D02*
X2000D01*
X1500Y52350D02*
Y53350D01*
X49300Y11325D02*
X50300D01*
X49800Y10825D02*
Y11825D01*
X4025Y24650D02*
X5025D01*
X4525Y24150D02*
Y25150D01*
X46875Y26500D02*
Y27500D01*
X46375Y27000D02*
X47375D01*
X42700Y23975D02*
Y24975D01*
X42200Y24475D02*
X43200D01*
X46850Y21400D02*
Y22400D01*
X46350Y21900D02*
X47350D01*
X42275Y18900D02*
Y19900D01*
X41775Y19400D02*
X42775D01*
X37175Y10925D02*
Y11925D01*
X36675Y11425D02*
X37675D01*
X23275Y20075D02*
Y21075D01*
X22775Y20575D02*
X23775D01*
X46850Y31800D02*
Y32800D01*
X46350Y32300D02*
X47350D01*
X42300Y29050D02*
Y30050D01*
X41800Y29550D02*
X42800D01*
D105*
X47245Y36100D02*
G03*
X47245Y36100I-1370J0D01*
G01*
X5895Y27400D02*
G03*
X5895Y27400I-1370J0D01*
G01*
X5845Y21900D02*
G03*
X5845Y21900I-1370J0D01*
G01*
X43945Y48825D02*
G03*
X43945Y48825I-1370J0D01*
G01*
X47220Y46250D02*
G03*
X47220Y46250I-1370J0D01*
G01*
X43945Y43775D02*
G03*
X43945Y43775I-1370J0D01*
G01*
X47220Y41225D02*
G03*
X47220Y41225I-1370J0D01*
G01*
X43970Y38675D02*
G03*
X43970Y38675I-1370J0D01*
G01*
X2870Y52850D02*
G03*
X2870Y52850I-1370J0D01*
G01*
X51170Y11325D02*
G03*
X51170Y11325I-1370J0D01*
G01*
X5895Y24650D02*
G03*
X5895Y24650I-1370J0D01*
G01*
X48245Y27000D02*
G03*
X48245Y27000I-1370J0D01*
G01*
X44070Y24475D02*
G03*
X44070Y24475I-1370J0D01*
G01*
X48220Y21900D02*
G03*
X48220Y21900I-1370J0D01*
G01*
X43645Y19400D02*
G03*
X43645Y19400I-1370J0D01*
G01*
X48220Y32300D02*
G03*
X48220Y32300I-1370J0D01*
G01*
X43670Y29550D02*
G03*
X43670Y29550I-1370J0D01*
G01*
X30175Y7475D02*
X30775D01*
X30475Y7175D02*
Y7775D01*
X30875Y6675D02*
Y8275D01*
X30075Y6675D02*
Y8275D01*
Y6675D02*
X30875D01*
X30075Y8275D02*
X30875D01*
X33200Y13550D02*
X33800D01*
X33500Y13250D02*
Y13850D01*
X33900Y12750D02*
Y14350D01*
X33100Y12750D02*
Y14350D01*
X33900D01*
X33100Y12750D02*
X33900D01*
X28425Y7475D02*
X29025D01*
X28725Y7175D02*
Y7775D01*
X28325Y6675D02*
Y8275D01*
X29125Y6675D02*
Y8275D01*
X28325D02*
X29125D01*
X28325Y6675D02*
X29125D01*
X29300Y7475D02*
X29900D01*
X29600Y7175D02*
Y7775D01*
X30000Y6675D02*
Y8275D01*
X29200Y6675D02*
Y8275D01*
Y6675D02*
X30000D01*
X29200Y8275D02*
X30000D01*
X28425Y7475D02*
X29025D01*
X28725Y7175D02*
Y7775D01*
X29125Y6675D02*
Y8275D01*
X28325Y6675D02*
Y8275D01*
X29125D01*
X28325Y6675D02*
X29125D01*
X25175Y8025D02*
X25775D01*
X25475Y7725D02*
Y8325D01*
X25075Y7225D02*
Y8825D01*
X25875Y7225D02*
Y8825D01*
X25075Y7225D02*
X25875D01*
X25075Y8825D02*
X25875D01*
X26075Y8025D02*
X26675D01*
X26375Y7725D02*
Y8325D01*
X25975Y7225D02*
Y8825D01*
X26775Y7225D02*
Y8825D01*
X25975Y7225D02*
X26775D01*
X25975Y8825D02*
X26775D01*
X30175Y7475D02*
X30775D01*
X30475Y7175D02*
Y7775D01*
X30075Y6675D02*
Y8275D01*
X30875Y6675D02*
Y8275D01*
X30075Y6675D02*
X30875D01*
X30075Y8275D02*
X30875D01*
X29300Y7475D02*
X29900D01*
X29600Y7175D02*
Y7775D01*
X29200Y6675D02*
Y8275D01*
X30000Y6675D02*
Y8275D01*
X29200Y6675D02*
X30000D01*
X29200Y8275D02*
X30000D01*
X11150Y59952D02*
X19600D01*
X11150Y49050D02*
Y59952D01*
Y49050D02*
X19600D01*
Y59952D01*
X17450Y17525D02*
X18050D01*
X17750Y17225D02*
Y17825D01*
X18150Y16725D02*
Y18325D01*
X17350Y16725D02*
Y18325D01*
X18150D01*
X17350Y16725D02*
X18150D01*
X21625Y16325D02*
X22225D01*
X21925Y16025D02*
Y16625D01*
X21525Y15525D02*
Y17125D01*
X22325Y15525D02*
Y17125D01*
X21525Y15525D02*
X22325D01*
X21525Y17125D02*
X22325D01*
X35850Y53800D02*
X37050D01*
X35850Y56000D02*
X37050D01*
X35850Y53800D02*
Y56000D01*
X37050Y53800D02*
Y56000D01*
X36450Y54625D02*
Y55175D01*
X36175Y54900D02*
X36725D01*
X34075Y56000D02*
X35275D01*
X34075Y53800D02*
X35275D01*
Y56000D01*
X34075Y53800D02*
Y56000D01*
X34675Y54625D02*
Y55175D01*
X34400Y54900D02*
X34950D01*
X39450Y56025D02*
X40650D01*
X39450Y53825D02*
X40650D01*
Y56025D01*
X39450Y53825D02*
Y56025D01*
X40050Y54650D02*
Y55200D01*
X39775Y54925D02*
X40325D01*
X37625Y56000D02*
X38825D01*
X37625Y53800D02*
X38825D01*
Y56000D01*
X37625Y53800D02*
Y56000D01*
X38225Y54625D02*
Y55175D01*
X37950Y54900D02*
X38500D01*
X23375Y9050D02*
X23975D01*
X23675Y8750D02*
Y9350D01*
X23275Y8250D02*
Y9850D01*
X24075Y8250D02*
Y9850D01*
X23275Y8250D02*
X24075D01*
X23275Y9850D02*
X24075D01*
X24050Y14225D02*
Y14775D01*
X23775Y14500D02*
X24325D01*
X23250Y14900D02*
X24850D01*
X23250Y14100D02*
X24850D01*
Y14900D01*
X23250Y14100D02*
Y14900D01*
X20550Y13300D02*
Y13900D01*
X20250Y13600D02*
X20850D01*
X19750Y14000D02*
X21350D01*
X19750Y13200D02*
X21350D01*
X19750D02*
Y14000D01*
X21350Y13200D02*
Y14000D01*
X20500Y12300D02*
Y12900D01*
X20200Y12600D02*
X20800D01*
X19700Y13000D02*
X21300D01*
X19700Y12200D02*
X21300D01*
X19700D02*
Y13000D01*
X21300Y12200D02*
Y13000D01*
X17375Y11625D02*
Y12175D01*
X17100Y11900D02*
X17650D01*
X16575Y11500D02*
X18175D01*
X16575Y12300D02*
X18175D01*
Y11500D02*
Y12300D01*
X16575Y11500D02*
Y12300D01*
X16900Y13350D02*
X17500D01*
X17200Y13050D02*
Y13650D01*
X16800Y12550D02*
Y14150D01*
X17600Y12550D02*
Y14150D01*
X16800Y12550D02*
X17600D01*
X16800Y14150D02*
X17600D01*
X15975Y13350D02*
X16575D01*
X16275Y13050D02*
Y13650D01*
X15875Y12550D02*
Y14150D01*
X16675Y12550D02*
Y14150D01*
X15875Y12550D02*
X16675D01*
X15875Y14150D02*
X16675D01*
X18075Y13550D02*
X18675D01*
X18375Y13250D02*
Y13850D01*
X18775Y12750D02*
Y14350D01*
X17975Y12750D02*
Y14350D01*
X18775D01*
X17975Y12750D02*
X18775D01*
X19650Y10750D02*
Y11350D01*
X19350Y11050D02*
X19950D01*
X18850Y11450D02*
X20450D01*
X18850Y10650D02*
X20450D01*
X18850D02*
Y11450D01*
X20450Y10650D02*
Y11450D01*
X20500Y8950D02*
Y9550D01*
X20200Y9250D02*
X20800D01*
X19700Y8850D02*
X21300D01*
X19700Y9650D02*
X21300D01*
Y8850D02*
Y9650D01*
X19700Y8850D02*
Y9650D01*
X18775Y9850D02*
Y10450D01*
X18475Y10150D02*
X19075D01*
X17975Y10550D02*
X19575D01*
X17975Y9750D02*
X19575D01*
X17975D02*
Y10550D01*
X19575Y9750D02*
Y10550D01*
X20500Y9850D02*
Y10450D01*
X20200Y10150D02*
X20800D01*
X19700Y10550D02*
X21300D01*
X19700Y9750D02*
X21300D01*
X19700D02*
Y10550D01*
X21300Y9750D02*
Y10550D01*
X21525Y9700D02*
X22075D01*
X21800Y9425D02*
Y9975D01*
X22200Y8900D02*
Y10500D01*
X21400Y8900D02*
Y10500D01*
X22200D01*
X21400Y8900D02*
X22200D01*
X38375Y8300D02*
X39325D01*
X38850Y7825D02*
Y8775D01*
X37800Y6350D02*
Y10250D01*
X39900Y6350D02*
Y10250D01*
X37800Y6350D02*
X39900D01*
X37800Y10250D02*
X39900D01*
X35175Y10325D02*
X39175D01*
X35175Y12525D02*
X39175D01*
Y10325D02*
Y12525D01*
X35175Y10325D02*
Y12525D01*
X31975Y7450D02*
X32575D01*
X32275Y7150D02*
Y7750D01*
X31875Y6650D02*
Y8250D01*
X32675Y6650D02*
Y8250D01*
X31875Y6650D02*
X32675D01*
X31875Y8250D02*
X32675D01*
X15100Y45600D02*
X15650D01*
X15375Y45325D02*
Y45875D01*
X15775Y44800D02*
Y46400D01*
X14975Y44800D02*
Y46400D01*
X15775D01*
X14975Y44800D02*
X15775D01*
X30950Y10000D02*
X31550D01*
X31250Y9700D02*
Y10300D01*
X30850Y9200D02*
Y10800D01*
X31650Y9200D02*
Y10800D01*
X30850Y9200D02*
X31650D01*
X30850Y10800D02*
X31650D01*
X29350Y13200D02*
Y13800D01*
X29050Y13500D02*
X29650D01*
X28550Y13100D02*
X30150D01*
X28550Y13900D02*
X30150D01*
X28550Y13100D02*
Y13900D01*
X30150Y13100D02*
Y13900D01*
X26350Y16025D02*
X26950D01*
X26650Y15725D02*
Y16325D01*
X27050Y15225D02*
Y16825D01*
X26250Y15225D02*
Y16825D01*
Y15225D02*
X27050D01*
X26250Y16825D02*
X27050D01*
X23875Y17050D02*
Y17650D01*
X23575Y17350D02*
X24175D01*
X23075Y17750D02*
X24675D01*
X23075Y16950D02*
X24675D01*
X23075D02*
Y17750D01*
X24675Y16950D02*
Y17750D01*
X23675Y18850D02*
Y19450D01*
X23375Y19150D02*
X23975D01*
X22875Y19550D02*
X24475D01*
X22875Y18750D02*
X24475D01*
X22875D02*
Y19550D01*
X24475Y18750D02*
Y19550D01*
X21875Y19775D02*
X24675D01*
X21875Y21375D02*
X24675D01*
Y19775D02*
Y21375D01*
X21875Y19775D02*
Y21375D01*
X31725Y11050D02*
Y11650D01*
X31425Y11350D02*
X32025D01*
X30925Y10950D02*
X32525D01*
X30925Y11750D02*
X32525D01*
Y10950D02*
Y11750D01*
X30925Y10950D02*
Y11750D01*
X33675Y10750D02*
X34625D01*
X34150Y10275D02*
Y11225D01*
X35200Y8800D02*
Y12700D01*
X33100Y8800D02*
Y12700D01*
X35200D01*
X33100Y8800D02*
X35200D01*
X25675Y19250D02*
X26275D01*
X25975Y18950D02*
Y19550D01*
X26375Y18450D02*
Y20050D01*
X25575Y18450D02*
Y20050D01*
X26375D01*
X25575Y18450D02*
X26375D01*
X25975Y23475D02*
Y24675D01*
X23775Y23475D02*
Y24675D01*
Y23475D02*
X25975D01*
X23775Y24675D02*
X25975D01*
X24600Y24075D02*
X25150D01*
X24875Y23800D02*
Y24350D01*
M02*
