%FSLAX44Y44*%
%MOMM*%
%SFA1B1*%

%IPPOS*%
%ADD117C,0.100000*%
%ADD124C,0.050000*%
G54D117*
X318999Y63999D02*
Y73999D01*
X313999Y68999D02*
X323999D01*
X385249Y114249D02*
X395249D01*
X390249Y109249D02*
Y119249D01*
X497999Y108249D02*
Y118249D01*
X492999Y113249D02*
X502999D01*
X14999Y523499D02*
Y533499D01*
X9999Y528499D02*
X19999D01*
G54D124*
X511699Y113249D02*
D01*
X511666Y114205*
X511566Y115156*
X511400Y116098*
X511169Y117026*
X510873Y117935*
X510515Y118822*
X510096Y119681*
X509618Y120509*
X509083Y121302*
X508494Y122056*
X507854Y122766*
X507166Y123431*
X506434Y124045*
X505660Y124607*
X504849Y125114*
X504005Y125563*
X503132Y125952*
X502233Y126279*
X501314Y126542*
X500378Y126741*
X499431Y126874*
X498478Y126941*
X497521*
X496567Y126874*
X495620Y126741*
X494685Y126542*
X493766Y126279*
X492867Y125952*
X491994Y125563*
X491149Y125114*
X490338Y124607*
X489565Y124045*
X488832Y123431*
X488144Y122766*
X487504Y122056*
X486916Y121302*
X486381Y120509*
X485903Y119681*
X485484Y118822*
X485126Y117935*
X484830Y117026*
X484599Y116098*
X484433Y115156*
X484333Y114205*
X484299Y113249*
X484333Y112294*
X484433Y111343*
X484599Y110401*
X484830Y109473*
X485126Y108564*
X485484Y107677*
X485903Y106818*
X486381Y105989*
X486916Y105197*
X487504Y104443*
X488144Y103733*
X488832Y103068*
X489565Y102454*
X490338Y101892*
X491149Y101385*
X491994Y100936*
X492867Y100547*
X493766Y100220*
X494685Y99956*
X495620Y99757*
X496567Y99624*
X497521Y99558*
X498478*
X499431Y99624*
X500378Y99757*
X501314Y99956*
X502233Y100220*
X503132Y100547*
X504005Y100936*
X504849Y101385*
X505660Y101892*
X506434Y102454*
X507166Y103068*
X507854Y103733*
X508494Y104443*
X509083Y105197*
X509618Y105989*
X510096Y106818*
X510515Y107677*
X510873Y108564*
X511169Y109473*
X511400Y110401*
X511566Y111343*
X511666Y112294*
X511699Y113249*
X28699Y528499D02*
D01*
X28666Y529455*
X28566Y530406*
X28400Y531348*
X28169Y532276*
X27873Y533185*
X27515Y534072*
X27096Y534931*
X26618Y535759*
X26083Y536552*
X25494Y537306*
X24854Y538016*
X24167Y538680*
X23434Y539295*
X22660Y539857*
X21849Y540364*
X21005Y540813*
X20132Y541202*
X19233Y541529*
X18314Y541792*
X17378Y541991*
X16432Y542124*
X15477Y542191*
X14521*
X13567Y542124*
X12621Y541991*
X11685Y541792*
X10766Y541529*
X9867Y541202*
X8994Y540813*
X8149Y540364*
X7338Y539857*
X6565Y539295*
X5832Y538680*
X5145Y538016*
X4504Y537306*
X3916Y536552*
X3381Y535759*
X2903Y534931*
X2484Y534072*
X2125Y533185*
X1830Y532276*
X1599Y531348*
X1433Y530406*
X1333Y529455*
X1299Y528499*
X1333Y527544*
X1433Y526593*
X1599Y525651*
X1830Y524723*
X2125Y523814*
X2484Y522927*
X2903Y522068*
X3381Y521240*
X3916Y520447*
X4504Y519693*
X5145Y518982*
X5832Y518318*
X6565Y517704*
X7338Y517141*
X8149Y516635*
X8994Y516186*
X9867Y515797*
X10766Y515470*
X11685Y515206*
X12621Y515008*
X13567Y514875*
X14521Y514808*
X15477*
X16432Y514875*
X17378Y515008*
X18314Y515206*
X19233Y515470*
X20132Y515797*
X21005Y516186*
X21849Y516635*
X22660Y517141*
X23434Y517704*
X24167Y518318*
X24854Y518982*
X25494Y519693*
X26083Y520447*
X26618Y521240*
X27096Y522068*
X27515Y522927*
X27873Y523814*
X28169Y524723*
X28400Y525651*
X28566Y526593*
X28666Y527544*
X28699Y528499*
X341749Y166499D02*
Y175999D01*
X336999Y171249D02*
X346499D01*
X330249Y176749D02*
X353249D01*
X330249Y165749D02*
X353249D01*
X330249D02*
Y176749D01*
X353249Y165749D02*
Y176749D01*
X396499Y102499D02*
X417499D01*
X396499Y63500D02*
X417499D01*
Y102499*
X396499Y63500D02*
Y102499D01*
X406999Y78249D02*
Y87749D01*
X402249Y82999D02*
X411749D01*
X173499Y167249D02*
X181499D01*
X173499Y183249D02*
X181499D01*
X173499Y167249D02*
Y183249D01*
X181499Y167249D02*
Y183249D01*
X177499Y172249D02*
Y178249D01*
X174499Y175249D02*
X180499D01*
X181989Y114109D02*
Y122109D01*
X165989Y114109D02*
Y122109D01*
Y114109D02*
X181989D01*
X165989Y122109D02*
X181989D01*
X170989Y118110D02*
X176989D01*
X173990Y115109D02*
Y121109D01*
X164909Y138809D02*
X172909D01*
X164909Y122809D02*
X172909D01*
Y138809*
X164909Y122809D02*
Y138809D01*
X168910Y127809D02*
Y133809D01*
X165909Y130810D02*
X171909D01*
X196999Y85999D02*
Y93999D01*
X212999Y85999D02*
Y93999D01*
X196999D02*
X212999D01*
X196999Y85999D02*
X212999D01*
X201999Y89999D02*
X207999D01*
X204999Y86999D02*
Y92999D01*
X212999Y94999D02*
Y102999D01*
X196999Y94999D02*
Y102999D01*
Y94999D02*
X212999D01*
X196999Y102999D02*
X212999D01*
X201999Y98999D02*
X207999D01*
X204999Y95999D02*
Y101999D01*
X259749Y88249D02*
X267749D01*
X259749Y72249D02*
X267749D01*
Y88249*
X259749Y72249D02*
Y88249D01*
X263749Y77249D02*
Y83249D01*
X260749Y80249D02*
X266749D01*
X250749Y88249D02*
X258749D01*
X250749Y72249D02*
X258749D01*
Y88249*
X250749Y72249D02*
Y88249D01*
X254749Y77249D02*
Y83249D01*
X251749Y80249D02*
X257749D01*
X358999Y104499D02*
X366999D01*
X358999Y120499D02*
X366999D01*
X358999Y104499D02*
Y120499D01*
X366999Y104499D02*
Y120499D01*
X362999Y109499D02*
Y115499D01*
X359999Y112499D02*
X365999D01*
X255749Y184499D02*
X263749D01*
X255749Y200499D02*
X263749D01*
X255749Y184499D02*
Y200499D01*
X263749Y184499D02*
Y200499D01*
X259749Y189499D02*
Y195499D01*
X256749Y192499D02*
X262749D01*
X178879Y112139D02*
X186879D01*
X178879Y96139D02*
X186879D01*
Y112139*
X178879Y96139D02*
Y112139D01*
X182880Y101139D02*
Y107139D01*
X179879Y104140D02*
X185879D01*
X213499Y131999D02*
Y139999D01*
X197499Y131999D02*
Y139999D01*
Y131999D02*
X213499D01*
X197499Y139999D02*
X213499D01*
X202499Y135999D02*
X208499D01*
X205499Y132999D02*
Y138999D01*
X212999Y121999D02*
Y129999D01*
X196999Y121999D02*
Y129999D01*
Y121999D02*
X212999D01*
X196999Y129999D02*
X212999D01*
X201999Y125999D02*
X207999D01*
X204999Y122999D02*
Y128999D01*
X262499Y168249D02*
X270499D01*
X262499Y152249D02*
X270499D01*
X262499D02*
Y168249D01*
X270499Y152249D02*
Y168249D01*
X266499Y157249D02*
Y163249D01*
X263499Y160249D02*
X269499D01*
X216279Y106489D02*
Y114489D01*
X200279Y106489D02*
Y114489D01*
Y106489D02*
X216279D01*
X200279Y114489D02*
X216279D01*
X205279Y110490D02*
X211279D01*
X208280Y107489D02*
Y113489D01*
X329749Y110999D02*
Y118999D01*
X345749Y110999D02*
Y118999D01*
X329749D02*
X345749D01*
X329749Y110999D02*
X345749D01*
X334749Y114999D02*
X340749D01*
X337749Y111999D02*
Y117999D01*
X187769Y103249D02*
X195769D01*
X187769Y87249D02*
X195769D01*
Y103249*
X187769Y87249D02*
Y103249D01*
X191770Y92249D02*
Y98249D01*
X188769Y95250D02*
X194769D01*
X243649Y185039D02*
X251649D01*
X243649Y201039D02*
X251649D01*
X243649Y185039D02*
Y201039D01*
X251649Y185039D02*
Y201039D01*
X247650Y190039D02*
Y196039D01*
X244649Y193040D02*
X250649D01*
X232749Y98499D02*
X240749D01*
X232749Y82499D02*
X240749D01*
Y98499*
X232749Y82499D02*
Y98499D01*
X236749Y87499D02*
Y93499D01*
X233749Y90499D02*
X239749D01*
X238569Y168529D02*
X246569D01*
X238569Y184529D02*
X246569D01*
X238569Y168529D02*
Y184529D01*
X246569Y168529D02*
Y184529D01*
X242570Y173529D02*
Y179529D01*
X239569Y176530D02*
X245569D01*
X329749Y102249D02*
Y110249D01*
X345749Y102249D02*
Y110249D01*
X329749D02*
X345749D01*
X329749Y102249D02*
X345749D01*
X334749Y106249D02*
X340749D01*
X337749Y103249D02*
Y109249D01*
X337499Y82749D02*
X345499D01*
X337499Y66749D02*
X345499D01*
Y82749*
X337499Y66749D02*
Y82749D01*
X341499Y71749D02*
Y77749D01*
X338499Y74749D02*
X344499D01*
X355749Y66749D02*
X363749D01*
X355749Y82749D02*
X363749D01*
X355749Y66749D02*
Y82749D01*
X363749Y66749D02*
Y82749D01*
X359749Y71749D02*
Y77749D01*
X356749Y74749D02*
X362749D01*
X346749Y82749D02*
X354749D01*
X346749Y66749D02*
X354749D01*
Y82749*
X346749Y66749D02*
Y82749D01*
X350749Y71749D02*
Y77749D01*
X347749Y74749D02*
X353749D01*
X300799Y82929D02*
X308799D01*
X300799Y66929D02*
X308799D01*
Y82929*
X300799Y66929D02*
Y82929D01*
X304800Y71929D02*
Y77929D01*
X301799Y74930D02*
X307799D01*
X283019Y66929D02*
X291019D01*
X283019Y82929D02*
X291019D01*
X283019Y66929D02*
Y82929D01*
X291019Y66929D02*
Y82929D01*
X287020Y71929D02*
Y77929D01*
X284019Y74930D02*
X290019D01*
X291909Y82929D02*
X299909D01*
X291909Y66929D02*
X299909D01*
Y82929*
X291909Y66929D02*
Y82929D01*
X295910Y71929D02*
Y77929D01*
X292909Y74930D02*
X298909D01*
X301499Y130999D02*
Y138999D01*
X285499Y130999D02*
Y138999D01*
X301499*
X285499Y130999D02*
X301499D01*
X290499Y134999D02*
X296499D01*
X293499Y131999D02*
Y137999D01*
X232499Y140999D02*
Y148999D01*
X248499Y140999D02*
Y148999D01*
X232499Y140999D02*
X248499D01*
X232499Y148999D02*
X248499D01*
X237749Y144999D02*
X243249D01*
X240499Y142249D02*
Y147749D01*
X173799Y138809D02*
X181799D01*
X173799Y122809D02*
X181799D01*
Y138809*
X173799Y122809D02*
Y138809D01*
X177800Y128059D02*
Y133559D01*
X175049Y130810D02*
X180549D01*
X213999Y86499D02*
X221999D01*
X213999Y102499D02*
X221999D01*
X213999Y86499D02*
Y102499D01*
X221999Y86499D02*
Y102499D01*
X217999Y91749D02*
Y97249D01*
X215249Y94499D02*
X220749D01*
X413499Y540249D02*
X424499D01*
X413499Y563249D02*
X424499D01*
X413499Y540249D02*
Y563249D01*
X424499Y540249D02*
Y563249D01*
X418999Y546999D02*
Y556499D01*
X414249Y551749D02*
X423749D01*
X377332Y540499D02*
X388332D01*
X377332Y563499D02*
X388332D01*
X377332Y540499D02*
Y563499D01*
X388332Y540499D02*
Y563499D01*
X382832Y547249D02*
Y556749D01*
X378082Y551999D02*
X387582D01*
X395416Y540999D02*
X406416D01*
X395416Y563999D02*
X406416D01*
X395416Y540999D02*
Y563999D01*
X406416Y540999D02*
Y563999D01*
X400916Y547749D02*
Y557249D01*
X396166Y552499D02*
X405666D01*
X359249Y540499D02*
X370249D01*
X359249Y563499D02*
X370249D01*
X359249Y540499D02*
Y563499D01*
X370249Y540499D02*
Y563499D01*
X364749Y547249D02*
Y556749D01*
X359999Y551999D02*
X369499D01*
X330499Y127499D02*
X338499D01*
X330499Y143499D02*
X338499D01*
X330499Y127499D02*
Y143499D01*
X338499Y127499D02*
Y143499D01*
X334499Y132499D02*
Y138499D01*
X331499Y135499D02*
X337499D01*
X215249Y171249D02*
X223249D01*
X215249Y155249D02*
X223249D01*
Y171249*
X215249Y155249D02*
Y171249D01*
X219249Y160249D02*
Y166249D01*
X216249Y163249D02*
X222250D01*
X216829Y211159D02*
X237829D01*
X216829Y172159D02*
X237829D01*
Y211159*
X216829Y172159D02*
Y211159D01*
X227330Y186909D02*
Y196409D01*
X222579Y191659D02*
X232079D01*
X310999Y54999D02*
X326999D01*
X310999Y82999D02*
X326999D01*
X310999Y54999D02*
Y82999D01*
X326999Y54999D02*
Y82999D01*
X370249Y103249D02*
Y125249D01*
X410249Y103249D02*
Y125249D01*
X370249D02*
X410249D01*
X370249Y103249D02*
X410249D01*
X122999Y476999D02*
X130999D01*
X122999Y492999D02*
X130999D01*
X122999Y476999D02*
Y492999D01*
X130999Y476999D02*
Y492999D01*
X127000Y482249D02*
Y487749D01*
X124249Y484999D02*
X129749D01*
X247999Y218249D02*
Y223749D01*
X245249Y220999D02*
X250749D01*
X236999Y226999D02*
X258999D01*
X236999Y214999D02*
X258999D01*
X236999D02*
Y226999D01*
X258999Y214999D02*
Y226999D01*
X341999Y153499D02*
Y162999D01*
X337249Y158249D02*
X346749D01*
X330499Y163749D02*
X353499D01*
X330499Y152749D02*
X353499D01*
X330499D02*
Y163749D01*
X353499Y152749D02*
Y163749D01*
X169149Y495499D02*
Y604520D01*
X84649Y495499D02*
X169149D01*
X84649D02*
Y604520D01*
X169149D01*
M02*