%FSLAX44Y44*%
%MOMM*%
%SFA1B1*%

%IPPOS*%
%ADD117C,0.100000*%
G54D117*
X510699Y113249D02*
D01*
X510669Y114135*
X510576Y115017*
X510422Y115890*
X510208Y116750*
X509933Y117593*
X509601Y118415*
X509213Y119212*
X508770Y119979*
X508274Y120714*
X507728Y121413*
X507135Y122072*
X506497Y122687*
X505818Y123257*
X505101Y123778*
X504349Y124248*
X503567Y124664*
X502757Y125025*
X501924Y125328*
X501072Y125572*
X500205Y125756*
X499327Y125880*
X498442Y125942*
X497556*
X496672Y125880*
X495794Y125756*
X494927Y125572*
X494075Y125328*
X493242Y125025*
X492432Y124664*
X491649Y124248*
X490898Y123778*
X490180Y123257*
X489501Y122687*
X488864Y122072*
X488271Y121413*
X487725Y120714*
X487229Y119979*
X486786Y119212*
X486397Y118415*
X486065Y117593*
X485791Y116750*
X485577Y115890*
X485423Y115017*
X485330Y114135*
X485299Y113249*
X485330Y112364*
X485423Y111482*
X485577Y110609*
X485791Y109749*
X486065Y108906*
X486397Y108084*
X486786Y107287*
X487229Y106519*
X487725Y105784*
X488271Y105086*
X488864Y104427*
X489501Y103811*
X490180Y103242*
X490898Y102721*
X491649Y102251*
X492432Y101835*
X493242Y101474*
X494075Y101171*
X494927Y100927*
X495794Y100742*
X496672Y100619*
X497556Y100557*
X498442*
X499327Y100619*
X500205Y100742*
X501072Y100927*
X501924Y101171*
X502757Y101474*
X503567Y101835*
X504349Y102251*
X505101Y102721*
X505818Y103242*
X506497Y103811*
X507135Y104427*
X507728Y105086*
X508274Y105784*
X508770Y106519*
X509213Y107287*
X509601Y108084*
X509933Y108906*
X510208Y109749*
X510422Y110609*
X510576Y111482*
X510669Y112364*
X510699Y113249*
X27699Y528499D02*
D01*
X27668Y529385*
X27576Y530267*
X27422Y531140*
X27207Y532000*
X26933Y532843*
X26601Y533665*
X26213Y534462*
X25770Y535229*
X25274Y535964*
X24728Y536663*
X24135Y537322*
X23497Y537937*
X22818Y538507*
X22101Y539028*
X21349Y539498*
X20567Y539914*
X19757Y540275*
X18924Y540578*
X18072Y540822*
X17205Y541007*
X16327Y541130*
X15443Y541192*
X14556*
X13672Y541130*
X12794Y541007*
X11927Y540822*
X11075Y540578*
X10242Y540275*
X9432Y539914*
X8649Y539498*
X7898Y539028*
X7181Y538507*
X6501Y537937*
X5864Y537322*
X5271Y536663*
X4725Y535964*
X4229Y535229*
X3786Y534462*
X3397Y533665*
X3065Y532843*
X2791Y532000*
X2577Y531140*
X2423Y530267*
X2330Y529385*
X2299Y528499*
X2330Y527613*
X2423Y526732*
X2577Y525859*
X2791Y524999*
X3065Y524156*
X3397Y523334*
X3786Y522537*
X4229Y521769*
X4725Y521035*
X5271Y520336*
X5864Y519677*
X6501Y519061*
X7181Y518492*
X7898Y517971*
X8649Y517501*
X9432Y517085*
X10242Y516724*
X11075Y516421*
X11927Y516177*
X12794Y515992*
X13672Y515869*
X14556Y515807*
X15443*
X16327Y515869*
X17205Y515992*
X18072Y516177*
X18924Y516421*
X19757Y516724*
X20567Y517085*
X21349Y517501*
X22101Y517971*
X22818Y518492*
X23497Y519061*
X24135Y519677*
X24728Y520336*
X25274Y521035*
X25770Y521769*
X26213Y522537*
X26601Y523334*
X26933Y524156*
X27207Y524999*
X27422Y525859*
X27576Y526732*
X27668Y527613*
X27699Y528499*
X333249Y175999D02*
X350249D01*
X333249Y166499D02*
X350249D01*
X333249D02*
Y175999D01*
X350249Y166499D02*
Y175999D01*
X402249Y91749D02*
X411749D01*
X402249Y74249D02*
X411749D01*
Y91749*
X402249Y74249D02*
Y91749D01*
X174499Y169749D02*
X180499D01*
X174499Y180749D02*
X180499D01*
X174499Y169749D02*
Y180749D01*
X180499Y169749D02*
Y180749D01*
X179489Y115109D02*
Y121109D01*
X168489Y115109D02*
Y121109D01*
Y115109D02*
X179489D01*
X168489Y121109D02*
X179489D01*
X165909Y136309D02*
X171909D01*
X165909Y125309D02*
X171909D01*
Y136309*
X165909Y125309D02*
Y136309D01*
X199499Y86999D02*
Y92999D01*
X210499Y86999D02*
Y92999D01*
X199499D02*
X210499D01*
X199499Y86999D02*
X210499D01*
Y95999D02*
Y101999D01*
X199499Y95999D02*
Y101999D01*
Y95999D02*
X210499D01*
X199499Y101999D02*
X210499D01*
X260749Y85749D02*
X266749D01*
X260749Y74749D02*
X266749D01*
Y85749*
X260749Y74749D02*
Y85749D01*
X251749D02*
X257749D01*
X251749Y74749D02*
X257749D01*
Y85749*
X251749Y74749D02*
Y85749D01*
X359999Y106999D02*
X365999D01*
X359999Y117999D02*
X365999D01*
X359999Y106999D02*
Y117999D01*
X365999Y106999D02*
Y117999D01*
X256749Y186999D02*
X262749D01*
X256749Y197999D02*
X262749D01*
X256749Y186999D02*
Y197999D01*
X262749Y186999D02*
Y197999D01*
X179879Y109639D02*
X185879D01*
X179879Y98639D02*
X185879D01*
Y109639*
X179879Y98639D02*
Y109639D01*
X210999Y132999D02*
Y138999D01*
X199999Y132999D02*
Y138999D01*
Y132999D02*
X210999D01*
X199999Y138999D02*
X210999D01*
X210499Y122999D02*
Y128999D01*
X199499Y122999D02*
Y128999D01*
Y122999D02*
X210499D01*
X199499Y128999D02*
X210499D01*
X263499Y165749D02*
X269499D01*
X263499Y154749D02*
X269499D01*
X263499D02*
Y165749D01*
X269499Y154749D02*
Y165749D01*
X213779Y107489D02*
Y113489D01*
X202779Y107489D02*
Y113489D01*
Y107489D02*
X213779D01*
X202779Y113489D02*
X213779D01*
X332249Y111999D02*
Y117999D01*
X343249Y111999D02*
Y117999D01*
X332249D02*
X343249D01*
X332249Y111999D02*
X343249D01*
X188769Y100749D02*
X194769D01*
X188769Y89749D02*
X194769D01*
Y100749*
X188769Y89749D02*
Y100749D01*
X244649Y187539D02*
X250649D01*
X244649Y198539D02*
X250649D01*
X244649Y187539D02*
Y198539D01*
X250649Y187539D02*
Y198539D01*
X233749Y95999D02*
X239749D01*
X233749Y84999D02*
X239749D01*
Y95999*
X233749Y84999D02*
Y95999D01*
X239569Y171029D02*
X245569D01*
X239569Y182029D02*
X245569D01*
X239569Y171029D02*
Y182029D01*
X245569Y171029D02*
Y182029D01*
X332249Y103249D02*
Y109249D01*
X343249Y103249D02*
Y109249D01*
X332249D02*
X343249D01*
X332249Y103249D02*
X343249D01*
X338499Y80249D02*
X344499D01*
X338499Y69249D02*
X344499D01*
Y80249*
X338499Y69249D02*
Y80249D01*
X356749Y69249D02*
X362749D01*
X356749Y80249D02*
X362749D01*
X356749Y69249D02*
Y80249D01*
X362749Y69249D02*
Y80249D01*
X347749D02*
X353749D01*
X347749Y69249D02*
X353749D01*
Y80249*
X347749Y69249D02*
Y80249D01*
X301799Y80429D02*
X307799D01*
X301799Y69429D02*
X307799D01*
Y80429*
X301799Y69429D02*
Y80429D01*
X284019Y69429D02*
X290019D01*
X284019Y80429D02*
X290019D01*
X284019Y69429D02*
Y80429D01*
X290019Y69429D02*
Y80429D01*
X292909D02*
X298909D01*
X292909Y69429D02*
X298909D01*
Y80429*
X292909Y69429D02*
Y80429D01*
X298999Y131999D02*
Y137999D01*
X287999Y131999D02*
Y137999D01*
X298999*
X287999Y131999D02*
X298999D01*
X235249Y142249D02*
Y147749D01*
X245749Y142249D02*
Y147749D01*
X235249Y142249D02*
X245749D01*
X235249Y147749D02*
X245749D01*
X175049Y136059D02*
X180549D01*
X175049Y125559D02*
X180549D01*
Y136059*
X175049Y125559D02*
Y136059D01*
X215249Y89249D02*
X220749D01*
X215249Y99749D02*
X220749D01*
X215249Y89249D02*
Y99749D01*
X220749Y89249D02*
Y99749D01*
X414249Y543249D02*
X423749D01*
X414249Y560249D02*
X423749D01*
X414249Y543249D02*
Y560249D01*
X423749Y543249D02*
Y560249D01*
X378082Y543499D02*
X387582D01*
X378082Y560499D02*
X387582D01*
X378082Y543499D02*
Y560499D01*
X387582Y543499D02*
Y560499D01*
X396166Y543999D02*
X405666D01*
X396166Y560999D02*
X405666D01*
X396166Y543999D02*
Y560999D01*
X405666Y543999D02*
Y560999D01*
X359999Y543499D02*
X369499D01*
X359999Y560499D02*
X369499D01*
X359999Y543499D02*
Y560499D01*
X369499Y543499D02*
Y560499D01*
X331499Y129999D02*
X337499D01*
X331499Y140999D02*
X337499D01*
X331499Y129999D02*
Y140999D01*
X337499Y129999D02*
Y140999D01*
X216249Y168749D02*
X222250D01*
X216249Y157749D02*
X222250D01*
Y168749*
X216249Y157749D02*
Y168749D01*
X222579Y200409D02*
X232079D01*
X222579Y182909D02*
X232079D01*
Y200409*
X222579Y182909D02*
Y200409D01*
X311749Y57999D02*
X326249D01*
X311749Y79999D02*
X326249D01*
X311749Y57999D02*
Y79999D01*
X326249Y57999D02*
Y79999D01*
X381249Y109249D02*
Y119249D01*
X399249Y109249D02*
Y119249D01*
X381249D02*
X399249D01*
X381249Y109249D02*
X399249D01*
X237249Y102999D02*
Y162999D01*
X297249*
X237249Y102999D02*
X297249D01*
Y162999*
X124249Y479749D02*
X129749D01*
X124249Y490249D02*
X129749D01*
X124249Y479749D02*
Y490249D01*
X129749Y479749D02*
Y490249D01*
X242749Y223749D02*
X253249D01*
X242749Y218249D02*
X253249D01*
X242749D02*
Y223749D01*
X253249Y218249D02*
Y223749D01*
X333499Y162999D02*
X350499D01*
X333499Y153499D02*
X350499D01*
X333499D02*
Y162999D01*
X350499Y153499D02*
Y162999D01*
X86899Y545099D02*
X166899D01*
X86899Y519699D02*
Y545099D01*
Y519699D02*
X166899D01*
Y545099*
M02*