G04 Layer_Color=2752767*
%FSLAX43Y43*%
%MOMM*%
G71*
G01*
G75*
%ADD106C,0.051*%
%ADD107C,0.068*%
D106*
X45672Y35897D02*
Y36303D01*
X46078D01*
Y35897D01*
X45672D01*
X4322Y27197D02*
Y27603D01*
X4728D01*
Y27197D01*
X4322D01*
X4272Y21697D02*
Y22103D01*
X4678D01*
Y21697D01*
X4272D01*
X42372Y48637D02*
Y49043D01*
X42778D01*
Y48637D01*
X42372D01*
X45647Y46047D02*
Y46453D01*
X46053D01*
Y46047D01*
X45647D01*
X42372Y43572D02*
Y43978D01*
X42778D01*
Y43572D01*
X42372D01*
X45647Y41022D02*
Y41428D01*
X46053D01*
Y41022D01*
X45647D01*
X42397Y38472D02*
Y38878D01*
X42803D01*
Y38472D01*
X42397D01*
X17915Y49747D02*
X17712Y50153D01*
X18118D01*
X17915Y49747D01*
X15375D02*
X15172Y50153D01*
X15578D01*
X15375Y49747D01*
X12835D02*
X12632Y50153D01*
X13038D01*
X12835Y49747D01*
X1297Y52647D02*
Y53053D01*
X1703D01*
Y52647D01*
X1297D01*
X49557Y11122D02*
Y11528D01*
X49963D01*
Y11122D01*
X49557D01*
X4322Y24447D02*
Y24853D01*
X4728D01*
Y24447D01*
X4322D01*
X46672Y26797D02*
Y27203D01*
X47078D01*
Y26797D01*
X46672D01*
X42497Y24272D02*
Y24678D01*
X42903D01*
Y24272D01*
X42497D01*
X46647Y21697D02*
Y22103D01*
X47053D01*
Y21697D01*
X46647D01*
X42072Y19197D02*
Y19603D01*
X42478D01*
Y19197D01*
X42072D01*
X46647Y32097D02*
Y32503D01*
X47053D01*
Y32097D01*
X46647D01*
X42097Y29347D02*
Y29753D01*
X42503D01*
Y29347D01*
X42097D01*
X4100Y15747D02*
X4202Y15848D01*
X4303D01*
X4202Y15950D01*
X4303Y16052D01*
X4202D01*
X4100Y16153D01*
X3998Y16052D01*
X3897D01*
X3998Y15950D01*
X3897Y15848D01*
X3998D01*
X4100Y15747D01*
X37075Y34272D02*
X37177Y34373D01*
X37278D01*
X37177Y34475D01*
X37278Y34577D01*
X37177D01*
X37075Y34678D01*
X36973Y34577D01*
X36872D01*
X36973Y34475D01*
X36872Y34373D01*
X36973D01*
X37075Y34272D01*
X26625Y25172D02*
X26727Y25273D01*
X26828D01*
X26727Y25375D01*
X26828Y25477D01*
X26727D01*
X26625Y25578D01*
X26523Y25477D01*
X26422D01*
X26523Y25375D01*
X26422Y25273D01*
X26523D01*
X26625Y25172D01*
X22225Y25872D02*
X22327Y25973D01*
X22428D01*
X22327Y26075D01*
X22428Y26177D01*
X22327D01*
X22225Y26278D01*
X22123Y26177D01*
X22022D01*
X22123Y26075D01*
X22022Y25973D01*
X22123D01*
X22225Y25872D01*
X14625D02*
X14727Y25973D01*
X14828D01*
X14727Y26075D01*
X14828Y26177D01*
X14727D01*
X14625Y26278D01*
X14523Y26177D01*
X14422D01*
X14523Y26075D01*
X14422Y25973D01*
X14523D01*
X14625Y25872D01*
X12175Y16372D02*
X12277Y16473D01*
X12378D01*
X12277Y16575D01*
X12378Y16677D01*
X12277D01*
X12175Y16778D01*
X12073Y16677D01*
X11972D01*
X12073Y16575D01*
X11972Y16473D01*
X12073D01*
X12175Y16372D01*
X13525Y26822D02*
X13627Y26923D01*
X13728D01*
X13627Y27025D01*
X13728Y27127D01*
X13627D01*
X13525Y27228D01*
X13423Y27127D01*
X13322D01*
X13423Y27025D01*
X13322Y26923D01*
X13423D01*
X13525Y26822D01*
X10875Y17472D02*
X10977Y17573D01*
X11078D01*
X10977Y17675D01*
X11078Y17777D01*
X10977D01*
X10875Y17878D01*
X10773Y17777D01*
X10672D01*
X10773Y17675D01*
X10672Y17573D01*
X10773D01*
X10875Y17472D01*
X26750Y28397D02*
X26852Y28498D01*
X26953D01*
X26852Y28600D01*
X26953Y28702D01*
X26852D01*
X26750Y28803D01*
X26648Y28702D01*
X26547D01*
X26648Y28600D01*
X26547Y28498D01*
X26648D01*
X26750Y28397D01*
X13800D02*
X13902Y28498D01*
X14003D01*
X13902Y28600D01*
X14003Y28702D01*
X13902D01*
X13800Y28803D01*
X13698Y28702D01*
X13597D01*
X13698Y28600D01*
X13597Y28498D01*
X13698D01*
X13800Y28397D01*
X9200Y17547D02*
X9302Y17648D01*
X9403D01*
X9302Y17750D01*
X9403Y17852D01*
X9302D01*
X9200Y17953D01*
X9098Y17852D01*
X8997D01*
X9098Y17750D01*
X8997Y17648D01*
X9098D01*
X9200Y17547D01*
X33300Y37697D02*
X33402Y37798D01*
X33503D01*
X33402Y37900D01*
X33503Y38002D01*
X33402D01*
X33300Y38103D01*
X33198Y38002D01*
X33097D01*
X33198Y37900D01*
X33097Y37798D01*
X33198D01*
X33300Y37697D01*
X13700Y29797D02*
X13802Y29898D01*
X13903D01*
X13802Y30000D01*
X13903Y30102D01*
X13802D01*
X13700Y30203D01*
X13598Y30102D01*
X13497D01*
X13598Y30000D01*
X13497Y29898D01*
X13598D01*
X13700Y29797D01*
X35925Y38747D02*
X36027Y38848D01*
X36128D01*
X36027Y38950D01*
X36128Y39052D01*
X36027D01*
X35925Y39153D01*
X35823Y39052D01*
X35722D01*
X35823Y38950D01*
X35722Y38848D01*
X35823D01*
X35925Y38747D01*
X7825Y17547D02*
X7927Y17648D01*
X8028D01*
X7927Y17750D01*
X8028Y17852D01*
X7927D01*
X7825Y17953D01*
X7723Y17852D01*
X7622D01*
X7723Y17750D01*
X7622Y17648D01*
X7723D01*
X7825Y17547D01*
X12475Y29747D02*
X12577Y29848D01*
X12678D01*
X12577Y29950D01*
X12678Y30052D01*
X12577D01*
X12475Y30153D01*
X12373Y30052D01*
X12272D01*
X12373Y29950D01*
X12272Y29848D01*
X12373D01*
X12475Y29747D01*
X6200Y17572D02*
X6302Y17673D01*
X6403D01*
X6302Y17775D01*
X6403Y17877D01*
X6302D01*
X6200Y17978D01*
X6098Y17877D01*
X5997D01*
X6098Y17775D01*
X5997Y17673D01*
X6098D01*
X6200Y17572D01*
X12875Y1872D02*
X12977Y1973D01*
X13078D01*
X12977Y2075D01*
X13078Y2177D01*
X12977D01*
X12875Y2278D01*
X12773Y2177D01*
X12672D01*
X12773Y2075D01*
X12672Y1973D01*
X12773D01*
X12875Y1872D01*
X5000Y8897D02*
X5102Y8998D01*
X5203D01*
X5102Y9100D01*
X5203Y9202D01*
X5102D01*
X5000Y9303D01*
X4898Y9202D01*
X4797D01*
X4898Y9100D01*
X4797Y8998D01*
X4898D01*
X5000Y8897D01*
Y7497D02*
X5102Y7598D01*
X5203D01*
X5102Y7700D01*
X5203Y7802D01*
X5102D01*
X5000Y7903D01*
X4898Y7802D01*
X4797D01*
X4898Y7700D01*
X4797Y7598D01*
X4898D01*
X5000Y7497D01*
Y6122D02*
X5102Y6223D01*
X5203D01*
X5102Y6325D01*
X5203Y6427D01*
X5102D01*
X5000Y6528D01*
X4898Y6427D01*
X4797D01*
X4898Y6325D01*
X4797Y6223D01*
X4898D01*
X5000Y6122D01*
Y3297D02*
X5102Y3398D01*
X5203D01*
X5102Y3500D01*
X5203Y3602D01*
X5102D01*
X5000Y3703D01*
X4898Y3602D01*
X4797D01*
X4898Y3500D01*
X4797Y3398D01*
X4898D01*
X5000Y3297D01*
X12875Y10372D02*
X12977Y10473D01*
X13078D01*
X12977Y10575D01*
X13078Y10677D01*
X12977D01*
X12875Y10778D01*
X12773Y10677D01*
X12672D01*
X12773Y10575D01*
X12672Y10473D01*
X12773D01*
X12875Y10372D01*
Y6072D02*
X12977Y6173D01*
X13078D01*
X12977Y6275D01*
X13078Y6377D01*
X12977D01*
X12875Y6478D01*
X12773Y6377D01*
X12672D01*
X12773Y6275D01*
X12672Y6173D01*
X12773D01*
X12875Y6072D01*
Y7472D02*
X12977Y7573D01*
X13078D01*
X12977Y7675D01*
X13078Y7777D01*
X12977D01*
X12875Y7878D01*
X12773Y7777D01*
X12672D01*
X12773Y7675D01*
X12672Y7573D01*
X12773D01*
X12875Y7472D01*
X12900Y8897D02*
X13002Y8998D01*
X13103D01*
X13002Y9100D01*
X13103Y9202D01*
X13002D01*
X12900Y9303D01*
X12798Y9202D01*
X12697D01*
X12798Y9100D01*
X12697Y8998D01*
X12798D01*
X12900Y8897D01*
X5000Y4747D02*
X5102Y4848D01*
X5203D01*
X5102Y4950D01*
X5203Y5052D01*
X5102D01*
X5000Y5153D01*
X4898Y5052D01*
X4797D01*
X4898Y4950D01*
X4797Y4848D01*
X4898D01*
X5000Y4747D01*
X5025Y497D02*
X5127Y598D01*
X5228D01*
X5127Y700D01*
X5228Y802D01*
X5127D01*
X5025Y903D01*
X4923Y802D01*
X4822D01*
X4923Y700D01*
X4822Y598D01*
X4923D01*
X5025Y497D01*
X5000Y1872D02*
X5102Y1973D01*
X5203D01*
X5102Y2075D01*
X5203Y2177D01*
X5102D01*
X5000Y2278D01*
X4898Y2177D01*
X4797D01*
X4898Y2075D01*
X4797Y1973D01*
X4898D01*
X5000Y1872D01*
X32000Y3547D02*
X32102Y3648D01*
X32203D01*
X32102Y3750D01*
X32203Y3852D01*
X32102D01*
X32000Y3953D01*
X31898Y3852D01*
X31797D01*
X31898Y3750D01*
X31797Y3648D01*
X31898D01*
X32000Y3547D01*
X36550Y1488D02*
X36652Y1590D01*
X36753D01*
X36652Y1692D01*
X36753Y1793D01*
X36652D01*
X36550Y1895D01*
X36448Y1793D01*
X36347D01*
X36448Y1692D01*
X36347Y1590D01*
X36448D01*
X36550Y1488D01*
X34275Y422D02*
X34377Y523D01*
X34478D01*
X34377Y625D01*
X34478Y727D01*
X34377D01*
X34275Y828D01*
X34173Y727D01*
X34072D01*
X34173Y625D01*
X34072Y523D01*
X34173D01*
X34275Y422D01*
X36550Y3622D02*
X36652Y3723D01*
X36753D01*
X36652Y3825D01*
X36753Y3927D01*
X36652D01*
X36550Y4028D01*
X36448Y3927D01*
X36347D01*
X36448Y3825D01*
X36347Y3723D01*
X36448D01*
X36550Y3622D01*
X34275D02*
X34377Y3723D01*
X34478D01*
X34377Y3825D01*
X34478Y3927D01*
X34377D01*
X34275Y4028D01*
X34173Y3927D01*
X34072D01*
X34173Y3825D01*
X34072Y3723D01*
X34173D01*
X34275Y3622D01*
Y2555D02*
X34377Y2657D01*
X34478D01*
X34377Y2758D01*
X34478Y2860D01*
X34377D01*
X34275Y2962D01*
X34173Y2860D01*
X34072D01*
X34173Y2758D01*
X34072Y2657D01*
X34173D01*
X34275Y2555D01*
X36550D02*
X36652Y2657D01*
X36753D01*
X36652Y2758D01*
X36753Y2860D01*
X36652D01*
X36550Y2962D01*
X36448Y2860D01*
X36347D01*
X36448Y2758D01*
X36347Y2657D01*
X36448D01*
X36550Y2555D01*
X28992Y4747D02*
X29093Y4848D01*
X29195D01*
X29093Y4950D01*
X29195Y5052D01*
X29093D01*
X28992Y5153D01*
X28890Y5052D01*
X28788D01*
X28890Y4950D01*
X28788Y4848D01*
X28890D01*
X28992Y4747D01*
X30110D02*
X30211Y4848D01*
X30313D01*
X30211Y4950D01*
X30313Y5052D01*
X30211D01*
X30110Y5153D01*
X30008Y5052D01*
X29907D01*
X30008Y4950D01*
X29907Y4848D01*
X30008D01*
X30110Y4747D01*
X22375Y7897D02*
X22477Y7998D01*
X22578D01*
X22477Y8100D01*
X22578Y8202D01*
X22477D01*
X22375Y8303D01*
X22273Y8202D01*
X22172D01*
X22273Y8100D01*
X22172Y7998D01*
X22273D01*
X22375Y7897D01*
Y6830D02*
X22477Y6932D01*
X22578D01*
X22477Y7033D01*
X22578Y7135D01*
X22477D01*
X22375Y7237D01*
X22273Y7135D01*
X22172D01*
X22273Y7033D01*
X22172Y6932D01*
X22273D01*
X22375Y6830D01*
X22400Y4697D02*
X22502Y4798D01*
X22603D01*
X22502Y4900D01*
X22603Y5002D01*
X22502D01*
X22400Y5103D01*
X22298Y5002D01*
X22197D01*
X22298Y4900D01*
X22197Y4798D01*
X22298D01*
X22400Y4697D01*
Y5763D02*
X22502Y5865D01*
X22603D01*
X22502Y5967D01*
X22603Y6068D01*
X22502D01*
X22400Y6170D01*
X22298Y6068D01*
X22197D01*
X22298Y5967D01*
X22197Y5865D01*
X22298D01*
X22400Y5763D01*
X20150Y7847D02*
X20252Y7948D01*
X20353D01*
X20252Y8050D01*
X20353Y8152D01*
X20252D01*
X20150Y8253D01*
X20048Y8152D01*
X19947D01*
X20048Y8050D01*
X19947Y7948D01*
X20048D01*
X20150Y7847D01*
Y6780D02*
X20252Y6882D01*
X20353D01*
X20252Y6983D01*
X20353Y7085D01*
X20252D01*
X20150Y7187D01*
X20048Y7085D01*
X19947D01*
X20048Y6983D01*
X19947Y6882D01*
X20048D01*
X20150Y6780D01*
X20175Y4647D02*
X20277Y4748D01*
X20378D01*
X20277Y4850D01*
X20378Y4952D01*
X20277D01*
X20175Y5053D01*
X20073Y4952D01*
X19972D01*
X20073Y4850D01*
X19972Y4748D01*
X20073D01*
X20175Y4647D01*
Y5713D02*
X20277Y5815D01*
X20378D01*
X20277Y5917D01*
X20378Y6018D01*
X20277D01*
X20175Y6120D01*
X20073Y6018D01*
X19972D01*
X20073Y5917D01*
X19972Y5815D01*
X20073D01*
X20175Y5713D01*
X18300Y7872D02*
X18402Y7973D01*
X18503D01*
X18402Y8075D01*
X18503Y8177D01*
X18402D01*
X18300Y8278D01*
X18198Y8177D01*
X18097D01*
X18198Y8075D01*
X18097Y7973D01*
X18198D01*
X18300Y7872D01*
Y6805D02*
X18402Y6907D01*
X18503D01*
X18402Y7008D01*
X18503Y7110D01*
X18402D01*
X18300Y7212D01*
X18198Y7110D01*
X18097D01*
X18198Y7008D01*
X18097Y6907D01*
X18198D01*
X18300Y6805D01*
X18325Y4672D02*
X18427Y4773D01*
X18528D01*
X18427Y4875D01*
X18528Y4977D01*
X18427D01*
X18325Y5078D01*
X18223Y4977D01*
X18122D01*
X18223Y4875D01*
X18122Y4773D01*
X18223D01*
X18325Y4672D01*
Y5738D02*
X18427Y5840D01*
X18528D01*
X18427Y5942D01*
X18528Y6043D01*
X18427D01*
X18325Y6145D01*
X18223Y6043D01*
X18122D01*
X18223Y5942D01*
X18122Y5840D01*
X18223D01*
X18325Y5738D01*
X18250Y3772D02*
X18352Y3873D01*
X18453D01*
X18352Y3975D01*
X18453Y4077D01*
X18352D01*
X18250Y4178D01*
X18148Y4077D01*
X18047D01*
X18148Y3975D01*
X18047Y3873D01*
X18148D01*
X18250Y3772D01*
Y2705D02*
X18352Y2807D01*
X18453D01*
X18352Y2908D01*
X18453Y3010D01*
X18352D01*
X18250Y3112D01*
X18148Y3010D01*
X18047D01*
X18148Y2908D01*
X18047Y2807D01*
X18148D01*
X18250Y2705D01*
X18275Y572D02*
X18377Y673D01*
X18478D01*
X18377Y775D01*
X18478Y877D01*
X18377D01*
X18275Y978D01*
X18173Y877D01*
X18072D01*
X18173Y775D01*
X18072Y673D01*
X18173D01*
X18275Y572D01*
Y1638D02*
X18377Y1740D01*
X18478D01*
X18377Y1842D01*
X18478Y1943D01*
X18377D01*
X18275Y2045D01*
X18173Y1943D01*
X18072D01*
X18173Y1842D01*
X18072Y1740D01*
X18173D01*
X18275Y1638D01*
X20125Y3722D02*
X20227Y3823D01*
X20328D01*
X20227Y3925D01*
X20328Y4027D01*
X20227D01*
X20125Y4128D01*
X20023Y4027D01*
X19922D01*
X20023Y3925D01*
X19922Y3823D01*
X20023D01*
X20125Y3722D01*
Y2655D02*
X20227Y2757D01*
X20328D01*
X20227Y2858D01*
X20328Y2960D01*
X20227D01*
X20125Y3062D01*
X20023Y2960D01*
X19922D01*
X20023Y2858D01*
X19922Y2757D01*
X20023D01*
X20125Y2655D01*
X20150Y522D02*
X20252Y623D01*
X20353D01*
X20252Y725D01*
X20353Y827D01*
X20252D01*
X20150Y928D01*
X20048Y827D01*
X19947D01*
X20048Y725D01*
X19947Y623D01*
X20048D01*
X20150Y522D01*
Y1588D02*
X20252Y1690D01*
X20353D01*
X20252Y1792D01*
X20353Y1893D01*
X20252D01*
X20150Y1995D01*
X20048Y1893D01*
X19947D01*
X20048Y1792D01*
X19947Y1690D01*
X20048D01*
X20150Y1588D01*
X23400Y3547D02*
X23502Y3648D01*
X23603D01*
X23502Y3750D01*
X23603Y3852D01*
X23502D01*
X23400Y3953D01*
X23298Y3852D01*
X23197D01*
X23298Y3750D01*
X23197Y3648D01*
X23298D01*
X23400Y3547D01*
Y2480D02*
X23502Y2582D01*
X23603D01*
X23502Y2683D01*
X23603Y2785D01*
X23502D01*
X23400Y2887D01*
X23298Y2785D01*
X23197D01*
X23298Y2683D01*
X23197Y2582D01*
X23298D01*
X23400Y2480D01*
X23425Y347D02*
X23527Y448D01*
X23628D01*
X23527Y550D01*
X23628Y652D01*
X23527D01*
X23425Y753D01*
X23323Y652D01*
X23222D01*
X23323Y550D01*
X23222Y448D01*
X23323D01*
X23425Y347D01*
Y1413D02*
X23527Y1515D01*
X23628D01*
X23527Y1617D01*
X23628Y1718D01*
X23527D01*
X23425Y1820D01*
X23323Y1718D01*
X23222D01*
X23323Y1617D01*
X23222Y1515D01*
X23323D01*
X23425Y1413D01*
X24375Y3572D02*
X24477Y3673D01*
X24578D01*
X24477Y3775D01*
X24578Y3877D01*
X24477D01*
X24375Y3978D01*
X24273Y3877D01*
X24172D01*
X24273Y3775D01*
X24172Y3673D01*
X24273D01*
X24375Y3572D01*
Y2505D02*
X24477Y2607D01*
X24578D01*
X24477Y2708D01*
X24578Y2810D01*
X24477D01*
X24375Y2912D01*
X24273Y2810D01*
X24172D01*
X24273Y2708D01*
X24172Y2607D01*
X24273D01*
X24375Y2505D01*
X24400Y372D02*
X24502Y473D01*
X24603D01*
X24502Y575D01*
X24603Y677D01*
X24502D01*
X24400Y778D01*
X24298Y677D01*
X24197D01*
X24298Y575D01*
X24197Y473D01*
X24298D01*
X24400Y372D01*
Y1438D02*
X24502Y1540D01*
X24603D01*
X24502Y1642D01*
X24603Y1743D01*
X24502D01*
X24400Y1845D01*
X24298Y1743D01*
X24197D01*
X24298Y1642D01*
X24197Y1540D01*
X24298D01*
X24400Y1438D01*
X32346Y4747D02*
X32447Y4848D01*
X32549D01*
X32447Y4950D01*
X32549Y5052D01*
X32447D01*
X32346Y5153D01*
X32244Y5052D01*
X32143D01*
X32244Y4950D01*
X32143Y4848D01*
X32244D01*
X32346Y4747D01*
X35700D02*
X35802Y4848D01*
X35903D01*
X35802Y4950D01*
X35903Y5052D01*
X35802D01*
X35700Y5153D01*
X35598Y5052D01*
X35497D01*
X35598Y4950D01*
X35497Y4848D01*
X35598D01*
X35700Y4747D01*
X34582D02*
X34684Y4848D01*
X34785D01*
X34684Y4950D01*
X34785Y5052D01*
X34684D01*
X34582Y5153D01*
X34480Y5052D01*
X34379D01*
X34480Y4950D01*
X34379Y4848D01*
X34480D01*
X34582Y4747D01*
X36550Y422D02*
X36652Y523D01*
X36753D01*
X36652Y625D01*
X36753Y727D01*
X36652D01*
X36550Y828D01*
X36448Y727D01*
X36347D01*
X36448Y625D01*
X36347Y523D01*
X36448D01*
X36550Y422D01*
X34275Y1488D02*
X34377Y1590D01*
X34478D01*
X34377Y1692D01*
X34478Y1793D01*
X34377D01*
X34275Y1895D01*
X34173Y1793D01*
X34072D01*
X34173Y1692D01*
X34072Y1590D01*
X34173D01*
X34275Y1488D01*
X29825Y3472D02*
X29927Y3573D01*
X30028D01*
X29927Y3675D01*
X30028Y3777D01*
X29927D01*
X29825Y3878D01*
X29723Y3777D01*
X29622D01*
X29723Y3675D01*
X29622Y3573D01*
X29723D01*
X29825Y3472D01*
Y2405D02*
X29927Y2507D01*
X30028D01*
X29927Y2608D01*
X30028Y2710D01*
X29927D01*
X29825Y2812D01*
X29723Y2710D01*
X29622D01*
X29723Y2608D01*
X29622Y2507D01*
X29723D01*
X29825Y2405D01*
X29850Y272D02*
X29952Y373D01*
X30053D01*
X29952Y475D01*
X30053Y577D01*
X29952D01*
X29850Y678D01*
X29748Y577D01*
X29647D01*
X29748Y475D01*
X29647Y373D01*
X29748D01*
X29850Y272D01*
Y1338D02*
X29952Y1440D01*
X30053D01*
X29952Y1542D01*
X30053Y1643D01*
X29952D01*
X29850Y1745D01*
X29748Y1643D01*
X29647D01*
X29748Y1542D01*
X29647Y1440D01*
X29748D01*
X29850Y1338D01*
X28850Y3497D02*
X28952Y3598D01*
X29053D01*
X28952Y3700D01*
X29053Y3802D01*
X28952D01*
X28850Y3903D01*
X28748Y3802D01*
X28647D01*
X28748Y3700D01*
X28647Y3598D01*
X28748D01*
X28850Y3497D01*
Y2430D02*
X28952Y2532D01*
X29053D01*
X28952Y2633D01*
X29053Y2735D01*
X28952D01*
X28850Y2837D01*
X28748Y2735D01*
X28647D01*
X28748Y2633D01*
X28647Y2532D01*
X28748D01*
X28850Y2430D01*
X28875Y297D02*
X28977Y398D01*
X29078D01*
X28977Y500D01*
X29078Y602D01*
X28977D01*
X28875Y703D01*
X28773Y602D01*
X28672D01*
X28773Y500D01*
X28672Y398D01*
X28773D01*
X28875Y297D01*
Y1363D02*
X28977Y1465D01*
X29078D01*
X28977Y1567D01*
X29078Y1668D01*
X28977D01*
X28875Y1770D01*
X28773Y1668D01*
X28672D01*
X28773Y1567D01*
X28672Y1465D01*
X28773D01*
X28875Y1363D01*
X32000Y2480D02*
X32102Y2582D01*
X32203D01*
X32102Y2683D01*
X32203Y2785D01*
X32102D01*
X32000Y2887D01*
X31898Y2785D01*
X31797D01*
X31898Y2683D01*
X31797Y2582D01*
X31898D01*
X32000Y2480D01*
Y347D02*
X32102Y448D01*
X32203D01*
X32102Y550D01*
X32203Y652D01*
X32102D01*
X32000Y753D01*
X31898Y652D01*
X31797D01*
X31898Y550D01*
X31797Y448D01*
X31898D01*
X32000Y347D01*
Y1413D02*
X32102Y1515D01*
X32203D01*
X32102Y1617D01*
X32203Y1718D01*
X32102D01*
X32000Y1820D01*
X31898Y1718D01*
X31797D01*
X31898Y1617D01*
X31797Y1515D01*
X31898D01*
X32000Y1413D01*
X30700Y13547D02*
X30802Y13648D01*
X30903D01*
X30802Y13750D01*
X30903Y13852D01*
X30802D01*
X30700Y13953D01*
X30598Y13852D01*
X30497D01*
X30598Y13750D01*
X30497Y13648D01*
X30598D01*
X30700Y13547D01*
X31725Y14072D02*
X31827Y14173D01*
X31928D01*
X31827Y14275D01*
X31928Y14377D01*
X31827D01*
X31725Y14478D01*
X31623Y14377D01*
X31522D01*
X31623Y14275D01*
X31522Y14173D01*
X31623D01*
X31725Y14072D01*
X34350Y14572D02*
X34452Y14673D01*
X34553D01*
X34452Y14775D01*
X34553Y14877D01*
X34452D01*
X34350Y14978D01*
X34248Y14877D01*
X34147D01*
X34248Y14775D01*
X34147Y14673D01*
X34248D01*
X34350Y14572D01*
X27600Y5922D02*
X27702Y6023D01*
X27803D01*
X27702Y6125D01*
X27803Y6227D01*
X27702D01*
X27600Y6328D01*
X27498Y6227D01*
X27397D01*
X27498Y6125D01*
X27397Y6023D01*
X27498D01*
X27600Y5922D01*
X24250D02*
X24352Y6023D01*
X24453D01*
X24352Y6125D01*
X24453Y6227D01*
X24352D01*
X24250Y6328D01*
X24148Y6227D01*
X24047D01*
X24148Y6125D01*
X24047Y6023D01*
X24148D01*
X24250Y5922D01*
X40350Y7172D02*
X40452Y7273D01*
X40553D01*
X40452Y7375D01*
X40553Y7477D01*
X40452D01*
X40350Y7578D01*
X40248Y7477D01*
X40147D01*
X40248Y7375D01*
X40147Y7273D01*
X40248D01*
X40350Y7172D01*
X33900Y7647D02*
X34002Y7748D01*
X34103D01*
X34002Y7850D01*
X34103Y7952D01*
X34002D01*
X33900Y8053D01*
X33798Y7952D01*
X33697D01*
X33798Y7850D01*
X33697Y7748D01*
X33798D01*
X33900Y7647D01*
X26800Y18647D02*
X26902Y18748D01*
X27003D01*
X26902Y18850D01*
X27003Y18952D01*
X26902D01*
X26800Y19053D01*
X26698Y18952D01*
X26597D01*
X26698Y18850D01*
X26597Y18748D01*
X26698D01*
X26800Y18647D01*
X31350Y7672D02*
X31452Y7773D01*
X31553D01*
X31452Y7875D01*
X31553Y7977D01*
X31452D01*
X31350Y8078D01*
X31248Y7977D01*
X31147D01*
X31248Y7875D01*
X31147Y7773D01*
X31248D01*
X31350Y7672D01*
X29625Y6022D02*
X29727Y6123D01*
X29828D01*
X29727Y6225D01*
X29828Y6327D01*
X29727D01*
X29625Y6428D01*
X29523Y6327D01*
X29422D01*
X29523Y6225D01*
X29422Y6123D01*
X29523D01*
X29625Y6022D01*
X30500D02*
X30602Y6123D01*
X30703D01*
X30602Y6225D01*
X30703Y6327D01*
X30602D01*
X30500Y6428D01*
X30398Y6327D01*
X30297D01*
X30398Y6225D01*
X30297Y6123D01*
X30398D01*
X30500Y6022D01*
X28700D02*
X28802Y6123D01*
X28903D01*
X28802Y6225D01*
X28903Y6327D01*
X28802D01*
X28700Y6428D01*
X28598Y6327D01*
X28497D01*
X28598Y6225D01*
X28497Y6123D01*
X28598D01*
X28700Y6022D01*
X26675Y11897D02*
X26777Y11998D01*
X26878D01*
X26777Y12100D01*
X26878Y12202D01*
X26777D01*
X26675Y12303D01*
X26573Y12202D01*
X26472D01*
X26573Y12100D01*
X26472Y11998D01*
X26573D01*
X26675Y11897D01*
X25475D02*
X25577Y11998D01*
X25678D01*
X25577Y12100D01*
X25678Y12202D01*
X25577D01*
X25475Y12303D01*
X25373Y12202D01*
X25272D01*
X25373Y12100D01*
X25272Y11998D01*
X25373D01*
X25475Y11897D01*
X41375Y59047D02*
X41477Y59148D01*
X41578D01*
X41477Y59250D01*
X41578Y59352D01*
X41477D01*
X41375Y59453D01*
X41273Y59352D01*
X41172D01*
X41273Y59250D01*
X41172Y59148D01*
X41273D01*
X41375Y59047D01*
X33225Y58847D02*
X33327Y58948D01*
X33428D01*
X33327Y59050D01*
X33428Y59152D01*
X33327D01*
X33225Y59253D01*
X33123Y59152D01*
X33022D01*
X33123Y59050D01*
X33022Y58948D01*
X33123D01*
X33225Y58847D01*
X23675Y7572D02*
X23777Y7673D01*
X23878D01*
X23777Y7775D01*
X23878Y7877D01*
X23777D01*
X23675Y7978D01*
X23573Y7877D01*
X23472D01*
X23573Y7775D01*
X23472Y7673D01*
X23573D01*
X23675Y7572D01*
X22775Y9247D02*
X22877Y9348D01*
X22978D01*
X22877Y9450D01*
X22978Y9552D01*
X22877D01*
X22775Y9653D01*
X22673Y9552D01*
X22572D01*
X22673Y9450D01*
X22572Y9348D01*
X22673D01*
X22775Y9247D01*
X22000Y13522D02*
X22102Y13623D01*
X22203D01*
X22102Y13725D01*
X22203Y13827D01*
X22102D01*
X22000Y13928D01*
X21898Y13827D01*
X21797D01*
X21898Y13725D01*
X21797Y13623D01*
X21898D01*
X22000Y13522D01*
X21925Y14847D02*
X22027Y14948D01*
X22128D01*
X22027Y15050D01*
X22128Y15152D01*
X22027D01*
X21925Y15253D01*
X21823Y15152D01*
X21722D01*
X21823Y15050D01*
X21722Y14948D01*
X21823D01*
X21925Y14847D01*
X19000Y18622D02*
X19102Y18723D01*
X19203D01*
X19102Y18825D01*
X19203Y18927D01*
X19102D01*
X19000Y19028D01*
X18898Y18927D01*
X18797D01*
X18898Y18825D01*
X18797Y18723D01*
X18898D01*
X19000Y18622D01*
X19250Y13397D02*
X19352Y13498D01*
X19453D01*
X19352Y13600D01*
X19453Y13702D01*
X19352D01*
X19250Y13803D01*
X19148Y13702D01*
X19047D01*
X19148Y13600D01*
X19047Y13498D01*
X19148D01*
X19250Y13397D01*
Y12397D02*
X19352Y12498D01*
X19453D01*
X19352Y12600D01*
X19453Y12702D01*
X19352D01*
X19250Y12803D01*
X19148Y12702D01*
X19047D01*
X19148Y12600D01*
X19047Y12498D01*
X19148D01*
X19250Y12397D01*
X18375Y10847D02*
X18477Y10948D01*
X18578D01*
X18477Y11050D01*
X18578Y11152D01*
X18477D01*
X18375Y11253D01*
X18273Y11152D01*
X18172D01*
X18273Y11050D01*
X18172Y10948D01*
X18273D01*
X18375Y10847D01*
X27800Y7622D02*
X27902Y7723D01*
X28003D01*
X27902Y7825D01*
X28003Y7927D01*
X27902D01*
X27800Y8028D01*
X27698Y7927D01*
X27597D01*
X27698Y7825D01*
X27597Y7723D01*
X27698D01*
X27800Y7622D01*
X32275Y5972D02*
X32377Y6073D01*
X32478D01*
X32377Y6175D01*
X32478Y6277D01*
X32377D01*
X32275Y6378D01*
X32173Y6277D01*
X32072D01*
X32173Y6175D01*
X32072Y6073D01*
X32173D01*
X32275Y5972D01*
X30250Y10147D02*
X30352Y10248D01*
X30453D01*
X30352Y10350D01*
X30453Y10452D01*
X30352D01*
X30250Y10553D01*
X30148Y10452D01*
X30047D01*
X30148Y10350D01*
X30047Y10248D01*
X30148D01*
X30250Y10147D01*
X29500Y9372D02*
X29602Y9473D01*
X29703D01*
X29602Y9575D01*
X29703Y9677D01*
X29602D01*
X29500Y9778D01*
X29398Y9677D01*
X29297D01*
X29398Y9575D01*
X29297Y9473D01*
X29398D01*
X29500Y9372D01*
X32175Y10172D02*
X32277Y10273D01*
X32378D01*
X32277Y10375D01*
X32378Y10477D01*
X32277D01*
X32175Y10578D01*
X32073Y10477D01*
X31972D01*
X32073Y10375D01*
X31972Y10273D01*
X32073D01*
X32175Y10172D01*
X39625Y10497D02*
X39727Y10598D01*
X39828D01*
X39727Y10700D01*
X39828Y10802D01*
X39727D01*
X39625Y10903D01*
X39523Y10802D01*
X39422D01*
X39523Y10700D01*
X39422Y10598D01*
X39523D01*
X39625Y10497D01*
X32575Y9247D02*
X32677Y9348D01*
X32778D01*
X32677Y9450D01*
X32778Y9552D01*
X32677D01*
X32575Y9653D01*
X32473Y9552D01*
X32372D01*
X32473Y9450D01*
X32372Y9348D01*
X32473D01*
X32575Y9247D01*
X22625Y17797D02*
X22727Y17898D01*
X22828D01*
X22727Y18000D01*
X22828Y18102D01*
X22727D01*
X22625Y18203D01*
X22523Y18102D01*
X22422D01*
X22523Y18000D01*
X22422Y17898D01*
X22523D01*
X22625Y17797D01*
X22425Y18947D02*
X22527Y19048D01*
X22628D01*
X22527Y19150D01*
X22628Y19252D01*
X22527D01*
X22425Y19353D01*
X22323Y19252D01*
X22222D01*
X22323Y19150D01*
X22222Y19048D01*
X22323D01*
X22425Y18947D01*
X21375Y20397D02*
X21477Y20498D01*
X21578D01*
X21477Y20600D01*
X21578Y20702D01*
X21477D01*
X21375Y20803D01*
X21273Y20702D01*
X21172D01*
X21273Y20600D01*
X21172Y20498D01*
X21273D01*
X21375Y20397D01*
X24125Y21697D02*
X24227Y21798D01*
X24328D01*
X24227Y21900D01*
X24328Y22002D01*
X24227D01*
X24125Y22103D01*
X24023Y22002D01*
X23922D01*
X24023Y21900D01*
X23922Y21798D01*
X24023D01*
X24125Y21697D01*
X24250Y17972D02*
X24352Y18073D01*
X24453D01*
X24352Y18175D01*
X24453Y18277D01*
X24352D01*
X24250Y18378D01*
X24148Y18277D01*
X24047D01*
X24148Y18175D01*
X24047Y18073D01*
X24148D01*
X24250Y17972D01*
X36325Y12447D02*
X36427Y12548D01*
X36528D01*
X36427Y12650D01*
X36528Y12752D01*
X36427D01*
X36325Y12853D01*
X36223Y12752D01*
X36122D01*
X36223Y12650D01*
X36122Y12548D01*
X36223D01*
X36325Y12447D01*
X27875Y11897D02*
X27977Y11998D01*
X28078D01*
X27977Y12100D01*
X28078Y12202D01*
X27977D01*
X27875Y12303D01*
X27773Y12202D01*
X27672D01*
X27773Y12100D01*
X27672Y11998D01*
X27773D01*
X27875Y11897D01*
X27975Y13097D02*
X28077Y13198D01*
X28178D01*
X28077Y13300D01*
X28178Y13402D01*
X28077D01*
X27975Y13503D01*
X27873Y13402D01*
X27772D01*
X27873Y13300D01*
X27772Y13198D01*
X27873D01*
X27975Y13097D01*
X25475Y14297D02*
X25577Y14398D01*
X25678D01*
X25577Y14500D01*
X25678Y14602D01*
X25577D01*
X25475Y14703D01*
X25373Y14602D01*
X25272D01*
X25373Y14500D01*
X25272Y14398D01*
X25373D01*
X25475Y14297D01*
X26675Y13097D02*
X26777Y13198D01*
X26878D01*
X26777Y13300D01*
X26878Y13402D01*
X26777D01*
X26675Y13503D01*
X26573Y13402D01*
X26472D01*
X26573Y13300D01*
X26472Y13198D01*
X26573D01*
X26675Y13097D01*
X27875Y14297D02*
X27977Y14398D01*
X28078D01*
X27977Y14500D01*
X28078Y14602D01*
X27977D01*
X27875Y14703D01*
X27773Y14602D01*
X27672D01*
X27773Y14500D01*
X27672Y14398D01*
X27773D01*
X27875Y14297D01*
X26675D02*
X26777Y14398D01*
X26878D01*
X26777Y14500D01*
X26878Y14602D01*
X26777D01*
X26675Y14703D01*
X26573Y14602D01*
X26472D01*
X26573Y14500D01*
X26472Y14398D01*
X26573D01*
X26675Y14297D01*
X25475Y13097D02*
X25577Y13198D01*
X25678D01*
X25577Y13300D01*
X25678Y13402D01*
X25577D01*
X25475Y13503D01*
X25373Y13402D01*
X25272D01*
X25373Y13300D01*
X25272Y13198D01*
X25373D01*
X25475Y13097D01*
X34375Y12947D02*
X34477Y13048D01*
X34578D01*
X34477Y13150D01*
X34578Y13252D01*
X34477D01*
X34375Y13353D01*
X34273Y13252D01*
X34172D01*
X34273Y13150D01*
X34172Y13048D01*
X34273D01*
X34375Y12947D01*
X30400Y9297D02*
X30502Y9398D01*
X30603D01*
X30502Y9500D01*
X30603Y9602D01*
X30502D01*
X30400Y9703D01*
X30298Y9602D01*
X30197D01*
X30298Y9500D01*
X30197Y9398D01*
X30298D01*
X30400Y9297D01*
X32450Y13497D02*
X32552Y13598D01*
X32653D01*
X32552Y13700D01*
X32653Y13802D01*
X32552D01*
X32450Y13903D01*
X32348Y13802D01*
X32247D01*
X32348Y13700D01*
X32247Y13598D01*
X32348D01*
X32450Y13497D01*
X32575Y12347D02*
X32677Y12448D01*
X32778D01*
X32677Y12550D01*
X32778Y12652D01*
X32677D01*
X32575Y12753D01*
X32473Y12652D01*
X32372D01*
X32473Y12550D01*
X32372Y12448D01*
X32473D01*
X32575Y12347D01*
X26125Y20472D02*
X26227Y20573D01*
X26328D01*
X26227Y20675D01*
X26328Y20777D01*
X26227D01*
X26125Y20878D01*
X26023Y20777D01*
X25922D01*
X26023Y20675D01*
X25922Y20573D01*
X26023D01*
X26125Y20472D01*
X15375Y12722D02*
X15477Y12823D01*
X15578D01*
X15477Y12925D01*
X15578Y13027D01*
X15477D01*
X15375Y13128D01*
X15273Y13027D01*
X15172D01*
X15273Y12925D01*
X15172Y12823D01*
X15273D01*
X15375Y12722D01*
X23275Y23872D02*
X23377Y23973D01*
X23478D01*
X23377Y24075D01*
X23478Y24177D01*
X23377D01*
X23275Y24278D01*
X23173Y24177D01*
X23072D01*
X23173Y24075D01*
X23072Y23973D01*
X23173D01*
X23275Y23872D01*
X26725Y17397D02*
X26827Y17498D01*
X26928D01*
X26827Y17600D01*
X26928Y17702D01*
X26827D01*
X26725Y17803D01*
X26623Y17702D01*
X26522D01*
X26623Y17600D01*
X26522Y17498D01*
X26623D01*
X26725Y17397D01*
X25450Y25122D02*
X25552Y25223D01*
X25653D01*
X25552Y25325D01*
X25653Y25427D01*
X25552D01*
X25450Y25528D01*
X25348Y25427D01*
X25247D01*
X25348Y25325D01*
X25247Y25223D01*
X25348D01*
X25450Y25122D01*
X41200Y54172D02*
X41302Y54273D01*
X41403D01*
X41302Y54375D01*
X41403Y54477D01*
X41302D01*
X41200Y54578D01*
X41098Y54477D01*
X40997D01*
X41098Y54375D01*
X40997Y54273D01*
X41098D01*
X41200Y54172D01*
X38200Y53047D02*
X38302Y53148D01*
X38403D01*
X38302Y53250D01*
X38403Y53352D01*
X38302D01*
X38200Y53453D01*
X38098Y53352D01*
X37997D01*
X38098Y53250D01*
X37997Y53148D01*
X38098D01*
X38200Y53047D01*
X36450D02*
X36552Y53148D01*
X36653D01*
X36552Y53250D01*
X36653Y53352D01*
X36552D01*
X36450Y53453D01*
X36348Y53352D01*
X36247D01*
X36348Y53250D01*
X36247Y53148D01*
X36348D01*
X36450Y53047D01*
X34675D02*
X34777Y53148D01*
X34878D01*
X34777Y53250D01*
X34878Y53352D01*
X34777D01*
X34675Y53453D01*
X34573Y53352D01*
X34472D01*
X34573Y53250D01*
X34472Y53148D01*
X34573D01*
X34675Y53047D01*
X38275Y24222D02*
X38377Y24323D01*
X38478D01*
X38377Y24425D01*
X38478Y24527D01*
X38377D01*
X38275Y24628D01*
X38173Y24527D01*
X38072D01*
X38173Y24425D01*
X38072Y24323D01*
X38173D01*
X38275Y24222D01*
D107*
X1703Y32080D02*
G03*
X1703Y32080I-203J0D01*
G01*
Y34620D02*
G03*
X1703Y34620I-203J0D01*
G01*
Y37160D02*
G03*
X1703Y37160I-203J0D01*
G01*
Y39700D02*
G03*
X1703Y39700I-203J0D01*
G01*
Y42240D02*
G03*
X1703Y42240I-203J0D01*
G01*
Y44780D02*
G03*
X1703Y44780I-203J0D01*
G01*
Y47320D02*
G03*
X1703Y47320I-203J0D01*
G01*
Y49860D02*
G03*
X1703Y49860I-203J0D01*
G01*
X49963Y36140D02*
G03*
X49963Y36140I-203J0D01*
G01*
Y38680D02*
G03*
X49963Y38680I-203J0D01*
G01*
Y43760D02*
G03*
X49963Y43760I-203J0D01*
G01*
Y46300D02*
G03*
X49963Y46300I-203J0D01*
G01*
Y48840D02*
G03*
X49963Y48840I-203J0D01*
G01*
Y51380D02*
G03*
X49963Y51380I-203J0D01*
G01*
Y53920D02*
G03*
X49963Y53920I-203J0D01*
G01*
Y56460D02*
G03*
X49963Y56460I-203J0D01*
G01*
Y59000D02*
G03*
X49963Y59000I-203J0D01*
G01*
Y41220D02*
G03*
X49963Y41220I-203J0D01*
G01*
X1703Y14300D02*
G03*
X1703Y14300I-203J0D01*
G01*
Y16840D02*
G03*
X1703Y16840I-203J0D01*
G01*
Y19380D02*
G03*
X1703Y19380I-203J0D01*
G01*
Y21920D02*
G03*
X1703Y21920I-203J0D01*
G01*
Y24460D02*
G03*
X1703Y24460I-203J0D01*
G01*
Y27000D02*
G03*
X1703Y27000I-203J0D01*
G01*
X49963Y32080D02*
G03*
X49963Y32080I-203J0D01*
G01*
Y29540D02*
G03*
X49963Y29540I-203J0D01*
G01*
Y27000D02*
G03*
X49963Y27000I-203J0D01*
G01*
Y24460D02*
G03*
X49963Y24460I-203J0D01*
G01*
Y21920D02*
G03*
X49963Y21920I-203J0D01*
G01*
Y19380D02*
G03*
X49963Y19380I-203J0D01*
G01*
Y16840D02*
G03*
X49963Y16840I-203J0D01*
G01*
Y14300D02*
G03*
X49963Y14300I-203J0D01*
G01*
X7303Y58525D02*
G03*
X7303Y58525I-203J0D01*
G01*
Y55985D02*
G03*
X7303Y55985I-203J0D01*
G01*
M02*
