G04 Layer_Color=8421504*
%FSLAX43Y43*%
%MOMM*%
G71*
G01*
G75*
%ADD21R,1.000X1.000*%
%ADD61R,1.300X1.300*%
%ADD62R,2.550X1.100*%
%ADD63R,1.100X2.550*%
%ADD64R,1.120X4.850*%
%ADD65R,0.610X2.010*%
%ADD66R,0.620X0.620*%
%ADD67R,1.000X0.300*%
%ADD68R,0.300X1.000*%
%ADD69R,0.950X0.700*%
%ADD70R,0.900X0.400*%
%ADD71R,1.250X1.500*%
%ADD72R,0.850X0.750*%
%ADD73R,0.620X0.620*%
%ADD74R,0.550X0.650*%
%ADD75R,0.650X0.550*%
%ADD76R,1.200X1.200*%
%ADD77R,1.400X1.250*%
%ADD78R,1.050X1.450*%
%ADD79R,0.750X0.850*%
D21*
X40050Y58725D02*
D03*
Y57025D02*
D03*
X38225Y58700D02*
D03*
Y57000D02*
D03*
X36450Y58700D02*
D03*
Y57000D02*
D03*
X34675Y58700D02*
D03*
Y57000D02*
D03*
D61*
X26725Y13300D02*
D03*
X25275Y14750D02*
D03*
Y11850D02*
D03*
X28175Y11850D02*
D03*
X28175Y14750D02*
D03*
Y13300D02*
D03*
X25275D02*
D03*
X26725Y14750D02*
D03*
Y11850D02*
D03*
D62*
X2725Y700D02*
D03*
X15325D02*
D03*
Y2100D02*
D03*
X2725Y3500D02*
D03*
Y2100D02*
D03*
Y4900D02*
D03*
Y6300D02*
D03*
Y7700D02*
D03*
Y9100D02*
D03*
Y10500D02*
D03*
X15325Y3500D02*
D03*
Y4900D02*
D03*
Y6300D02*
D03*
Y7700D02*
D03*
Y9100D02*
D03*
Y10500D02*
D03*
D63*
X4125Y13300D02*
D03*
X5525D02*
D03*
X6925D02*
D03*
X8325D02*
D03*
X9725D02*
D03*
X11125D02*
D03*
X13925D02*
D03*
X12525D02*
D03*
D64*
X30880Y2375D02*
D03*
X22380D02*
D03*
D65*
X26630Y955D02*
D03*
D66*
X33500Y13950D02*
D03*
Y13150D02*
D03*
X28725Y7875D02*
D03*
Y7075D02*
D03*
X25475Y7625D02*
D03*
Y8425D02*
D03*
X26375Y7625D02*
D03*
Y8425D02*
D03*
X30475Y7075D02*
D03*
Y7875D02*
D03*
X29600Y7075D02*
D03*
Y7875D02*
D03*
X17750Y17925D02*
D03*
Y17125D02*
D03*
X21925Y15925D02*
D03*
Y16725D02*
D03*
X23675Y8650D02*
D03*
Y9450D02*
D03*
X17200Y12950D02*
D03*
Y13750D02*
D03*
X16275Y12950D02*
D03*
Y13750D02*
D03*
X18375Y13950D02*
D03*
Y13150D02*
D03*
X32275Y7050D02*
D03*
Y7850D02*
D03*
X31250Y9600D02*
D03*
Y10400D02*
D03*
X25975Y19650D02*
D03*
Y18850D02*
D03*
D67*
X23775Y15500D02*
D03*
Y14700D02*
D03*
Y13900D02*
D03*
Y13100D02*
D03*
Y12300D02*
D03*
Y11500D02*
D03*
Y11100D02*
D03*
Y11900D02*
D03*
Y12700D02*
D03*
Y13500D02*
D03*
Y14300D02*
D03*
Y15100D02*
D03*
X29675Y11500D02*
D03*
Y12300D02*
D03*
Y13100D02*
D03*
Y13900D02*
D03*
Y14700D02*
D03*
Y15500D02*
D03*
Y15100D02*
D03*
Y14300D02*
D03*
Y13500D02*
D03*
Y12700D02*
D03*
Y11900D02*
D03*
Y11100D02*
D03*
D68*
X24925Y10350D02*
D03*
X25725D02*
D03*
X26525D02*
D03*
X27325D02*
D03*
X28125D02*
D03*
X28925D02*
D03*
X28525D02*
D03*
X27725D02*
D03*
X26925D02*
D03*
X26125D02*
D03*
X25325D02*
D03*
X24525D02*
D03*
X28525Y16250D02*
D03*
X27725D02*
D03*
X26925D02*
D03*
X26125D02*
D03*
X25325D02*
D03*
X24525D02*
D03*
X24925D02*
D03*
X25725D02*
D03*
X26525D02*
D03*
X27325D02*
D03*
X28125D02*
D03*
X28925D02*
D03*
D69*
X35775Y9775D02*
D03*
X37125D02*
D03*
X35775Y8675D02*
D03*
X37125D02*
D03*
D70*
X26575Y6775D02*
D03*
Y6125D02*
D03*
Y5500D02*
D03*
X25275Y6775D02*
D03*
Y6125D02*
D03*
Y5500D02*
D03*
D71*
X20675Y15350D02*
D03*
Y17550D02*
D03*
X19075Y15350D02*
D03*
Y17550D02*
D03*
D72*
X36450Y54350D02*
D03*
Y55450D02*
D03*
X34675D02*
D03*
Y54350D02*
D03*
X40050Y55475D02*
D03*
Y54375D02*
D03*
X38225Y55450D02*
D03*
Y54350D02*
D03*
D73*
X20150Y13600D02*
D03*
X20950D02*
D03*
X20100Y12600D02*
D03*
X20900D02*
D03*
X19250Y11050D02*
D03*
X20050D02*
D03*
X20900Y9250D02*
D03*
X20100D02*
D03*
X18375Y10150D02*
D03*
X19175D02*
D03*
X20100D02*
D03*
X20900D02*
D03*
X23475Y17350D02*
D03*
X24275D02*
D03*
X23275Y19150D02*
D03*
X24075D02*
D03*
X32125Y11350D02*
D03*
X31325D02*
D03*
D74*
X17825Y11900D02*
D03*
X16925D02*
D03*
D75*
X21800Y10150D02*
D03*
Y9250D02*
D03*
X15375Y46050D02*
D03*
Y45150D02*
D03*
D76*
X38850Y7400D02*
D03*
Y9200D02*
D03*
X34150Y11650D02*
D03*
Y9850D02*
D03*
D77*
X38025Y11425D02*
D03*
X36325D02*
D03*
D78*
X24075Y20575D02*
D03*
X22475D02*
D03*
D79*
X25425Y24075D02*
D03*
X24325D02*
D03*
M02*
