G04 Layer_Color=16711935*
%FSLAX43Y43*%
%MOMM*%
G71*
G01*
G75*
%ADD55C,0.100*%
D55*
X47145Y36100D02*
G03*
X47145Y36100I-1270J0D01*
G01*
X5795Y27400D02*
G03*
X5795Y27400I-1270J0D01*
G01*
X5745Y21900D02*
G03*
X5745Y21900I-1270J0D01*
G01*
X43845Y48825D02*
G03*
X43845Y48825I-1270J0D01*
G01*
X47120Y46250D02*
G03*
X47120Y46250I-1270J0D01*
G01*
X43845Y43775D02*
G03*
X43845Y43775I-1270J0D01*
G01*
X47120Y41225D02*
G03*
X47120Y41225I-1270J0D01*
G01*
X43870Y38675D02*
G03*
X43870Y38675I-1270J0D01*
G01*
X2770Y52850D02*
G03*
X2770Y52850I-1270J0D01*
G01*
X51070Y11325D02*
G03*
X51070Y11325I-1270J0D01*
G01*
X5795Y24650D02*
G03*
X5795Y24650I-1270J0D01*
G01*
X48145Y27000D02*
G03*
X48145Y27000I-1270J0D01*
G01*
X43970Y24475D02*
G03*
X43970Y24475I-1270J0D01*
G01*
X48120Y21900D02*
G03*
X48120Y21900I-1270J0D01*
G01*
X43545Y19400D02*
G03*
X43545Y19400I-1270J0D01*
G01*
X48120Y32300D02*
G03*
X48120Y32300I-1270J0D01*
G01*
X43570Y29550D02*
G03*
X43570Y29550I-1270J0D01*
G01*
X30775Y6925D02*
Y8025D01*
X30175Y6925D02*
Y8025D01*
Y6925D02*
X30775D01*
X30175Y8025D02*
X30775D01*
X33800Y13000D02*
Y14100D01*
X33200Y13000D02*
Y14100D01*
X33800D01*
X33200Y13000D02*
X33800D01*
X28425Y6925D02*
Y8025D01*
X29025Y6925D02*
Y8025D01*
X28425D02*
X29025D01*
X28425Y6925D02*
X29025D01*
X29900Y6925D02*
Y8025D01*
X29300Y6925D02*
Y8025D01*
Y6925D02*
X29900D01*
X29300Y8025D02*
X29900D01*
X29725Y10300D02*
Y16300D01*
X23725Y10300D02*
X29725D01*
X23725Y16300D02*
X29725D01*
X23725Y10300D02*
Y16300D01*
X29025Y6925D02*
Y8025D01*
X28425Y6925D02*
Y8025D01*
X29025D01*
X28425Y6925D02*
X29025D01*
X25175Y7475D02*
Y8575D01*
X25775Y7475D02*
Y8575D01*
X25175Y7475D02*
X25775D01*
X25175Y8575D02*
X25775D01*
X26075Y7475D02*
Y8575D01*
X26675Y7475D02*
Y8575D01*
X26075Y7475D02*
X26675D01*
X26075Y8575D02*
X26675D01*
X30175Y6925D02*
Y8025D01*
X30775Y6925D02*
Y8025D01*
X30175Y6925D02*
X30775D01*
X30175Y8025D02*
X30775D01*
X29300Y6925D02*
Y8025D01*
X29900Y6925D02*
Y8025D01*
X29300Y6925D02*
X29900D01*
X29300Y8025D02*
X29900D01*
X19375Y51470D02*
Y54010D01*
X11375Y51470D02*
X19375D01*
X11375D02*
Y54010D01*
X19375D01*
X18050Y16975D02*
Y18075D01*
X17450Y16975D02*
Y18075D01*
X18050D01*
X17450Y16975D02*
X18050D01*
X21625Y15775D02*
Y16875D01*
X22225Y15775D02*
Y16875D01*
X21625Y15775D02*
X22225D01*
X21625Y16875D02*
X22225D01*
X36175Y54375D02*
X36725D01*
X36175Y55425D02*
X36725D01*
X36175Y54375D02*
Y55425D01*
X36725Y54375D02*
Y55425D01*
X34400D02*
X34950D01*
X34400Y54375D02*
X34950D01*
Y55425D01*
X34400Y54375D02*
Y55425D01*
X39775Y55450D02*
X40325D01*
X39775Y54400D02*
X40325D01*
Y55450D01*
X39775Y54400D02*
Y55450D01*
X37950Y55425D02*
X38500D01*
X37950Y54375D02*
X38500D01*
Y55425D01*
X37950Y54375D02*
Y55425D01*
X23375Y8500D02*
Y9600D01*
X23975Y8500D02*
Y9600D01*
X23375Y8500D02*
X23975D01*
X23375Y9600D02*
X23975D01*
X23525Y14775D02*
X24575D01*
X23525Y14225D02*
X24575D01*
Y14775D01*
X23525Y14225D02*
Y14775D01*
X20000Y13900D02*
X21100D01*
X20000Y13300D02*
X21100D01*
X20000D02*
Y13900D01*
X21100Y13300D02*
Y13900D01*
X19950Y12900D02*
X21050D01*
X19950Y12300D02*
X21050D01*
X19950D02*
Y12900D01*
X21050Y12300D02*
Y12900D01*
X16850Y11625D02*
X17900D01*
X16850Y12175D02*
X17900D01*
Y11625D02*
Y12175D01*
X16850Y11625D02*
Y12175D01*
X16900Y12800D02*
Y13900D01*
X17500Y12800D02*
Y13900D01*
X16900Y12800D02*
X17500D01*
X16900Y13900D02*
X17500D01*
X15975Y12800D02*
Y13900D01*
X16575Y12800D02*
Y13900D01*
X15975Y12800D02*
X16575D01*
X15975Y13900D02*
X16575D01*
X18675Y13000D02*
Y14100D01*
X18075Y13000D02*
Y14100D01*
X18675D01*
X18075Y13000D02*
X18675D01*
X19100Y11350D02*
X20200D01*
X19100Y10750D02*
X20200D01*
X19100D02*
Y11350D01*
X20200Y10750D02*
Y11350D01*
X19950Y8950D02*
X21050D01*
X19950Y9550D02*
X21050D01*
Y8950D02*
Y9550D01*
X19950Y8950D02*
Y9550D01*
X18225Y10450D02*
X19325D01*
X18225Y9850D02*
X19325D01*
X18225D02*
Y10450D01*
X19325Y9850D02*
Y10450D01*
X19950D02*
X21050D01*
X19950Y9850D02*
X21050D01*
X19950D02*
Y10450D01*
X21050Y9850D02*
Y10450D01*
X22075Y9175D02*
Y10225D01*
X21525Y9175D02*
Y10225D01*
X22075D01*
X21525Y9175D02*
X22075D01*
X38375Y7425D02*
Y9175D01*
X39325Y7425D02*
Y9175D01*
X38375Y7425D02*
X39325D01*
X38375Y9175D02*
X39325D01*
X36275Y10925D02*
X38075D01*
X36275Y11925D02*
X38075D01*
Y10925D02*
Y11925D01*
X36275Y10925D02*
Y11925D01*
X31975Y6900D02*
Y8000D01*
X32575Y6900D02*
Y8000D01*
X31975Y6900D02*
X32575D01*
X31975Y8000D02*
X32575D01*
X15650Y45075D02*
Y46125D01*
X15100Y45075D02*
Y46125D01*
X15650D01*
X15100Y45075D02*
X15650D01*
X30950Y9450D02*
Y10550D01*
X31550Y9450D02*
Y10550D01*
X30950Y9450D02*
X31550D01*
X30950Y10550D02*
X31550D01*
X28800Y13200D02*
X29900D01*
X28800Y13800D02*
X29900D01*
X28800Y13200D02*
Y13800D01*
X29900Y13200D02*
Y13800D01*
X26950Y15475D02*
Y16575D01*
X26350Y15475D02*
Y16575D01*
Y15475D02*
X26950D01*
X26350Y16575D02*
X26950D01*
X23325Y17650D02*
X24425D01*
X23325Y17050D02*
X24425D01*
X23325D02*
Y17650D01*
X24425Y17050D02*
Y17650D01*
X23125Y19450D02*
X24225D01*
X23125Y18850D02*
X24225D01*
X23125D02*
Y19450D01*
X24225Y18850D02*
Y19450D01*
X22175Y19850D02*
X24375D01*
X22175Y21300D02*
X24375D01*
Y19850D02*
Y21300D01*
X22175Y19850D02*
Y21300D01*
X31175Y11050D02*
X32275D01*
X31175Y11650D02*
X32275D01*
Y11050D02*
Y11650D01*
X31175Y11050D02*
Y11650D01*
X34625Y9875D02*
Y11625D01*
X33675Y9875D02*
Y11625D01*
X34625D01*
X33675Y9875D02*
X34625D01*
X26275Y18700D02*
Y19800D01*
X25675Y18700D02*
Y19800D01*
X26275D01*
X25675Y18700D02*
X26275D01*
X25400Y23800D02*
Y24350D01*
X24350Y23800D02*
Y24350D01*
Y23800D02*
X25400D01*
X24350Y24350D02*
X25400D01*
M02*
